<?xml version="1.0" encoding="utf-8"?>
<!-- Generator: Adobe Illustrator 24.0.2, SVG Export Plug-In . SVG Version: 6.00 Build 0)  -->
<svg version="1.1" id="Layer_1" xmlns="http://www.w3.org/2000/svg" xmlns:xlink="http://www.w3.org/1999/xlink" x="0px" y="0px"
	 viewBox="0 0 612 792" style="enable-background:new 0 0 612 792;" xml:space="preserve">
<style type="text/css">
	.st0{fill:none;stroke:#000000;stroke-miterlimit:10;}
</style>
<g>
	<path class="st0" d="M491.7,374.3H230.9c-6.3,0-11.3,5.1-11.3,11.3v331.7c0,6.3,5.1,11.3,11.3,11.3h260.8c6.3,0,11.3-5.1,11.3-11.3
		V385.6C503.1,379.4,498,374.3,491.7,374.3z M480.4,700.1c0,3.1-2.5,5.7-5.7,5.7h-227c-3.1,0-5.7-2.5-5.7-5.7V402.6
		c0-3.1,2.5-5.7,5.7-5.7h227c3.1,0,5.7,2.5,5.7,5.7V700.1z"/>
</g>
<circle class="st0" cx="233.8" cy="388.5" r="5"/>
<circle class="st0" cx="488.9" cy="714.5" r="5"/>
<circle class="st0" cx="488.9" cy="388.5" r="5"/>
<circle class="st0" cx="233.8" cy="714.5" r="5"/>
</svg>
