<?xml version="1.0" encoding="utf-8"?>
<!-- Generator: Adobe Illustrator 24.0.2, SVG Export Plug-In . SVG Version: 6.00 Build 0)  -->
<svg version="1.1" id="Layer_1" xmlns="http://www.w3.org/2000/svg" xmlns:xlink="http://www.w3.org/1999/xlink" x="0px" y="0px"
	 viewBox="0 0 612 792" style="enable-background:new 0 0 612 792;" xml:space="preserve">
<style type="text/css">
	.st0{fill:none;stroke:#000000;stroke-miterlimit:10;}
	.st1{stroke:#000000;stroke-width:2;stroke-miterlimit:10;}
</style>
<g>
	<path class="st0" d="M491.7,374.3H230.9c-6.3,0-11.3,5.1-11.3,11.3v331.7c0,6.3,5.1,11.3,11.3,11.3h260.8c6.3,0,11.3-5.1,11.3-11.3
		V385.6C503.1,379.4,498,374.3,491.7,374.3z"/>
</g>
<circle class="st0" cx="233.8" cy="388.5" r="5"/>
<circle class="st0" cx="488.9" cy="714.5" r="5"/>
<circle class="st0" cx="488.9" cy="388.5" r="5"/>
<circle class="st0" cx="233.8" cy="714.5" r="5"/>
<g>
	<path class="st1" d="M225.8,546.7c1.5-0.9,3-1.7,4.5-2.5c0.8-0.4,0.9-2.1,1.4-3.2c-0.4-0.3-0.9-0.6-1.3-0.8
		c-1.6,0.8-3.1,1.7-4.7,2.6V546.7z"/>
	<path class="st1" d="M225.8,628.5c1.5-0.9,3-1.7,4.5-2.5c0.8-0.4,0.9-2.1,1.4-3.2c-0.4-0.3-0.9-0.6-1.3-0.8
		c-1.6,0.8-3.1,1.7-4.7,2.6V628.5z"/>
	<path class="st1" d="M225.8,464.1c1.5-0.9,3-1.7,4.5-2.5c0.8-0.4,0.9-2.1,1.4-3.2c-0.4-0.3-0.8-0.5-1.2-0.8
		c-1.6,0.8-3.1,1.7-4.7,2.6V464.1z"/>
	<path class="st1" d="M231.1,704.9c-0.2-0.1-0.4-0.3-0.6-0.4c-1.6,0.8-3.1,1.7-4.7,2.6v1.5C227.1,706.8,228.9,705.5,231.1,704.9z"/>
	<path class="st1" d="M464.4,705.9c-3.6,2.1-7.3,3.9-10.6,6.3c-5,3.7-10,7.4-14.9,11.1h5.5c7.1-5.4,14.3-10.5,22.2-14.7
		c0.9-0.5,1.2-2,1.8-3.1c-0.4-0.2-0.8-0.5-1.2-0.7C466.2,705.2,465.2,705.5,464.4,705.9z"/>
	<path class="st1" d="M376.7,521.9c1.5-0.2,3.3,0,4.5-0.7c10.1-6.3,20.2-12.5,29.9-19.2c18.8-13.1,35.2-29.5,55.5-40.3
		c0.8-0.4,1.1-2.1,1.6-3.2c-0.5-0.4-0.9-0.8-1.4-1.2c-5.8,3.7-12,7-17.5,11.2c-22.9,17.2-45.7,34.6-70.3,49.4
		C378,518.6,377.5,520.6,376.7,521.9z"/>
	<path class="st1" d="M259.5,518.6c-0.9,0.6-1,2.2-1.4,3.4c1.1,0,2.2,0.1,3.3,0c0.6-0.1,1.1-0.5,1.6-0.9
		c13.5-9.1,27.2-17.7,40.3-27.3c14.7-10.8,28.3-23.3,44.5-32c0.9-0.5,1.3-2,2-3.1c-0.5-0.4-1-0.9-1.5-1.3
		c-5.1,3.1-10.3,5.9-15.2,9.3c-20.4,14.5-40.7,29.2-61,43.7C268,513.3,263.6,515.7,259.5,518.6z"/>
	<path class="st1" d="M349.6,541.1c-0.4-0.4-0.8-0.7-1.2-1.1c-4.4,2.5-9,4.7-13.1,7.7c-24.7,18.2-48.9,37.1-75.2,52.9
		c-0.7,0.4-1.6,1-1.9,1.7c-0.3,0.7-0.3,1.7,0.1,2.4c0.2,0.4,1.3,0.4,1.9,0.3c1.1-0.3,2.1-0.9,3-1.5c13.6-9.1,27.4-17.9,40.6-27.6
		c14.5-10.7,27.9-22.9,43.9-31.5C348.7,543.9,349,542.3,349.6,541.1z"/>
	<path class="st1" d="M260.2,686.8c1.1-0.3,2.1-0.9,3-1.5c13.6-9.1,27.4-17.9,40.6-27.6c14.5-10.7,27.9-23,43.9-31.5
		c0.9-0.5,1.3-2.2,2-3.3c-0.4-0.4-0.8-0.7-1.2-1.1c-4.4,2.6-9,4.7-13.1,7.7c-24.7,18.2-48.9,37.1-75.2,52.9c-0.7,0.4-1.6,1-1.9,1.7
		c-0.3,0.7-0.3,1.7,0,2.4C258.5,686.9,259.6,687,260.2,686.8z"/>
	<path class="st1" d="M381.8,685.4c12.7-8.5,25.6-16.5,37.9-25.5c15.6-11.3,29.7-24.7,46.8-33.8c0.9-0.5,1.2-2.1,1.8-3.1
		c-0.5-0.4-1.1-0.8-1.6-1.3c-5.7,3.6-11.6,6.8-16.9,10.8c-23.1,17.4-46.1,34.9-70.9,49.9c-1.1,0.7-1.5,2.7-2.2,4.1
		c1.3-0.2,2.7-0.3,4-0.5C381.1,685.9,381.5,685.6,381.8,685.4z"/>
	<path class="st1" d="M497.6,686.3v-3.9c-1.1,0.7-1.6,2.7-2.3,4C496.1,686.3,496.9,686.3,497.6,686.3z"/>
	<path class="st1" d="M376.7,604.4c1.6-0.2,3.6,0.1,4.8-0.7c12.4-8,24.9-15.8,36.8-24.4c16.1-11.7,30.6-25.5,48.3-35
		c0.9-0.5,1.2-2.1,1.7-3.1c-0.4-0.4-0.8-0.8-1.2-1.1c-4.5,2.6-9.2,4.9-13.3,7.9c-24.4,17.9-48.2,36.7-74.2,52.3
		C378.2,601,377.6,603,376.7,604.4z"/>
	<path class="st1" d="M497.6,435.4c-1.1,0.7-1.5,2.6-2.3,4c0.7-0.1,1.5,0,2.3-0.1V435.4z"/>
	<path class="st1" d="M376.8,439.5c1.3-0.2,2.7-0.3,4-0.5c0.3,0,0.7-0.3,1-0.5c12.7-8.5,25.6-16.5,37.9-25.5
		c15.6-11.3,29.7-24.7,46.8-33.8c0.3-0.2,0.6-0.5,0.8-0.9H461c-3.8,2.3-7.6,4.6-11.1,7.2c-23.1,17.4-46.1,34.9-70.9,49.9
		C377.9,436.1,377.5,438.1,376.8,439.5z"/>
	<path class="st1" d="M258.3,439.4c0.3,0.5,2.7-0.3,4.1-0.6c0.2,0,0.5-0.2,0.7-0.3c13.3-8.9,26.8-17.4,39.7-26.9
		c14.9-10.9,28.6-23.6,45.1-32.4c0.3-0.2,0.6-0.5,0.8-0.9h-6.4c-2.4,1.4-4.8,2.8-7,4.4c-15.3,11.1-30.3,22.6-45.7,33.6
		c-9.4,6.7-19.3,12.6-28.9,18.8C259.2,436.1,256.9,437,258.3,439.4z"/>
	<path class="st1" d="M497.6,600.5c-0.1,0-0.2,0.1-0.2,0.1c-0.7,0.4-1.6,1-1.9,1.7c-0.3,0.7-0.3,1.7,0.1,2.4
		c0.2,0.3,1.3,0.4,1.9,0.3c0.1,0,0.1,0,0.2-0.1V600.5z"/>
	<path class="st1" d="M346.7,705.5c-3.9,2.2-8,4.2-11.6,6.8c-5,3.7-9.9,7.3-14.8,11h5.5c7-5.3,14.1-10.4,21.9-14.6
		c0.9-0.5,1.3-2.1,2-3.3c-0.3-0.2-0.6-0.5-0.9-0.7C348.1,705.1,347.3,705.2,346.7,705.5z"/>
	<path class="st1" d="M497.6,518c-1.1,0.8-1.6,2.6-2.3,3.9c0.7-0.1,1.6-0.1,2.3-0.1V518z"/>
	<path class="st1" d="M497.6,560.1c-18,14.4-36.6,27.8-55.8,40.2c-1.1,0.7-1.5,2.6-2.2,4c1.3,0,2.9,0.4,3.8-0.2
		c18.7-11.9,36.8-24.8,54.2-38.6V560.1z"/>
	<path class="st1" d="M322.6,605.5c1.1-0.7,2.1-1.2,3-1.8c23.8-15.3,46.5-32.1,68.2-50.4c1.3-1.1,3-4,2.7-4.4
		c-2.3-2.6-3.9,0.1-5.5,1.4c-21.6,18-44.1,34.7-67.7,49.8c-0.8,0.5-1.7,1.1-2.3,1.9c-0.3,0.5-0.3,1.5-0.1,2.1
		C321.2,604.7,322,605.1,322.6,605.5z"/>
	<path class="st1" d="M497.6,476.9c-15.1,11.3-30.1,22.6-45.3,33.9c-3.7,2.8-7.8,5-11.5,7.7c-0.7,0.5-1.3,1.8-1.4,2.7
		c0,0.5,1,1.2,1.6,1.9c1.2-0.7,2.2-1.2,3.1-1.8c18.4-11.9,36.3-24.6,53.4-38.3V476.9z"/>
	<path class="st1" d="M321.3,436.6c-0.4,0.5-0.5,1.7-0.3,2.4c0.2,0.6,1,0.9,1.6,1.4c1.1-0.7,2.1-1.2,3-1.8
		c16.7-11.9,33.5-23.6,50.1-35.7c6.9-5,13.3-10.6,19.8-16.1c0.7-0.6,0.8-2,1.1-3.1c-1.2,0-2.5-0.4-3.6,0c-1,0.3-1.8,1.3-2.7,2
		c-21.2,17.7-43.3,34-66.5,49C323,435.3,322,435.8,321.3,436.6z"/>
	<path class="st1" d="M497.6,395c-18,14.4-36.7,27.9-56.2,40.4c-0.6,0.4-1.4,0.8-1.7,1.4c-0.3,0.5-0.4,1.5-0.2,2.1
		c0.2,0.6,1,1,1.6,1.5c1.1-0.7,2.1-1.1,3-1.7c17.8-12.8,35.7-25.7,53.5-38.6V395z"/>
	<path class="st1" d="M396.1,465.7c-1.2,0.2-2.7,0.3-3.6,1c-22.3,18.5-45.5,35.8-69.8,51.4c-0.9,0.6-1.2,2.3-1.7,3.5
		c1.3,0,2.9,0.6,3.8,0c24.7-15.7,48.2-33.1,70.6-52.1c0.7-0.6,1.3-1.4,2-2.2C396.9,466.6,396.4,465.7,396.1,465.7z"/>
	<path class="st1" d="M497.6,642.1c-1.7,1.4-3.5,2.7-5.2,4c-16.8,12.2-33.8,24.1-50.7,36.2c-1,0.8-1.5,2.4-2.2,3.7
		c1.3,0.1,2.9,0.7,3.7,0.1c18.8-12,36.9-24.9,54.4-38.8V642.1z"/>
	<path class="st1" d="M397.4,631.9c-0.5-0.8-0.9-1.7-1.2-1.7c-1.1,0-2.6,0-3.4,0.6c-5.2,4.1-10.2,8.6-15.5,12.5
		c-18,13.1-36.2,26-54.3,38.9c-1.4,1-3.6,1.8-1.9,3.9c0.5,0.6,2.9,0.2,4-0.4c24.3-15.4,47.4-32.6,69.5-51.2
		C395.6,633.7,396.5,632.8,397.4,631.9z"/>
	<path class="st1" d="M396.1,712.7c-1.2,0.2-2.7,0.3-3.6,1c-3.9,3.3-7.9,6.5-11.9,9.7h6.6c2.8-2.3,5.5-4.6,8.3-6.9
		c0.7-0.6,1.3-1.4,2-2.2C396.9,713.5,396.4,712.6,396.1,712.7z"/>
	<path class="st1" d="M275.4,712.6c-1,0.2-1.8,1.2-2.7,1.9c-3.7,2.9-7.4,5.9-11,8.8h6.6c2.6-2.1,5.3-4.2,7.9-6.3
		c1-0.8,2.1-1.3,3.2-2c-0.2-0.5-0.4-1.1-0.6-1.6C277.6,713.1,276.4,712.5,275.4,712.6z"/>
	<path class="st1" d="M225.8,508.4c8.6-6.1,17.2-12.3,25.8-18.6c8.6-6.3,16.7-13.2,24.9-20c0.9-0.7,1.1-2.4,1.6-3.6
		c-1.4,0.2-2.9,0.1-4.2,0.6c-1,0.4-1.8,1.4-2.7,2.1c-15.1,11.5-30.2,22.9-45.4,34.4V508.4z"/>
	<path class="st1" d="M276,634.7c1.1-0.8,2.4-1.4,3.6-2.1c-0.3-0.6-0.6-1.1-0.9-1.7c-1-0.4-2.1-1.1-3-1c-0.9,0.1-1.7,1-2.4,1.6
		c-12.4,9.8-24.5,19.9-37.1,29.4c-3.4,2.5-6.8,5-10.3,7.4v4.7c5-3.5,10.1-7.1,15-10.8C252.7,653.3,264.3,643.8,276,634.7z"/>
	<path class="st1" d="M225.8,425.7c9.4-6.7,18.7-13.4,28-20.2c7.8-5.8,15.3-12.2,22.8-18.4c0.9-0.7,0.9-2.4,1.4-3.6
		c-1.3,0.2-2.7,0.1-3.9,0.6c-0.9,0.3-1.6,1.2-2.4,1.8c-15,12.2-30.1,24.4-45.9,35.6V425.7z"/>
	<path class="st1" d="M225.8,590.9c9.4-6.7,18.7-13.4,28-20.2c7.8-5.8,15.3-12.2,22.8-18.4c0.9-0.7,0.9-2.4,1.4-3.6
		c-1.3,0.2-2.7,0.1-3.9,0.6c-0.9,0.3-1.6,1.2-2.4,1.8c-15,12.2-30.1,24.4-45.9,35.6V590.9z"/>
	<path class="st1" d="M496.5,708.2c0.4-0.3,0.7-0.5,1.1-0.8v-5.6c-1.4,1.3-2.9,2.5-4.5,3.6c0,0-0.1,0.1-0.1,0.1
		C494.4,706.1,495.6,707,496.5,708.2z"/>
	<path class="st1" d="M476.3,716.5c-1.5,1-4.9,1.6-3.2,4.5c1.7,2.8,3.7,0.1,5.3-0.9c0.6-0.3,1.1-0.7,1.7-1c-0.7-1.3-1-2.7-1.1-4.3
		C478.1,715.3,477.2,715.9,476.3,716.5z"/>
	<path class="st1" d="M386.2,701c0.4-0.6-0.2-2-0.3-3.1c-1,0.1-2.1,0-2.9,0.5c-4.2,3.1-8.2,6.4-12.4,9.4c-5,3.5-10.2,6.7-15.2,10.2
		c-0.7,0.5-1.1,1.8-1.1,2.8c0,0.5,1.2,1,1.8,1.4c0.7-0.4,1.2-0.5,1.5-0.8c8.1-5.4,16.3-10.7,24.3-16.2
		C383.7,704.2,385.1,702.6,386.2,701z"/>
	<path class="st1" d="M383.1,451.4c-4.3,3.2-8.4,6.6-12.7,9.7c-4.9,3.5-10,6.6-14.9,10.1c-0.7,0.5-1.2,1.8-1.2,2.7
		c0,0.5,1.2,1,1.8,1.5c0.8-0.4,1.4-0.7,1.8-1c7.6-5,15.3-9.9,22.8-15c2-1.4,3.8-3.3,5.4-5.2c0.5-0.6-0.3-2.2-0.4-3.3
		C384.8,451,383.8,450.9,383.1,451.4z"/>
	<path class="st1" d="M497.6,454.5c-2.9,2.3-5.9,4.6-8.9,6.7c-4.8,3.4-9.8,6.5-14.6,9.9c-0.7,0.5-1.2,1.8-1.2,2.7
		c0,0.5,1.2,1,1.8,1.5c0.8-0.4,1.4-0.7,1.8-1c7-4.6,14.1-9.2,21.1-13.8V454.5z"/>
	<path class="st1" d="M355.4,553.7c-0.7,0.5-1.1,1.8-1.1,2.8c0,0.5,1.2,1,1.8,1.4c0.7-0.4,1.2-0.5,1.6-0.8
		c8.1-5.4,16.3-10.7,24.3-16.2c1.6-1.1,3-2.7,4.2-4.3c0.4-0.6-0.2-2-0.3-3.1c-1,0.2-2.1,0-2.9,0.5c-4.2,3.1-8.2,6.4-12.4,9.4
		C365.7,547,360.5,550.2,355.4,553.7z"/>
	<path class="st1" d="M497.6,537.1c-2.8,2.2-5.7,4.4-8.6,6.5c-4.9,3.5-10,6.6-14.9,10.1c-0.7,0.5-1.2,1.8-1.2,2.7
		c0,0.5,1.2,1,1.8,1.5c0.8-0.4,1.3-0.7,1.9-1c7-4.6,14-9.1,21-13.8V537.1z"/>
	<path class="st1" d="M358.6,638.2c6.6-4.1,13.1-8.2,19.5-12.6c2.6-1.7,4.9-3.9,7.2-5.9c0.6-0.5,1-1.4,1.6-2.2
		c-0.6-0.7-0.9-1.5-1.5-1.6c-0.7-0.1-1.7,0.2-2.3,0.6c-9,6.1-17.9,12.2-26.8,18.4c-1,0.7-1.3,2.4-2,3.7
		C355.8,638.5,357.5,638.9,358.6,638.2z"/>
	<path class="st1" d="M497.6,619.3c-7.6,5.1-15.2,10.3-22.6,15.6c-1,0.7-1.3,2.4-1.9,3.7c1.4-0.1,3.1,0.3,4.2-0.4
		c6.5-4,12.9-8.1,19.2-12.4c0.4-0.3,0.8-0.6,1.2-0.9V619.3z"/>
	<path class="st1" d="M254.6,541.9c-5.2,3.6-10.7,6.9-15.9,10.5c-1.8,1.2-3.9,2.8-1,5.4c7.5-4.8,15-9.4,22.2-14.3
		c2.7-1.8,5.1-4.1,7.3-6.4c0.6-0.7,0.1-2.4,0.1-3.7c-1,0.3-2.3,0.2-3.1,0.8C260.9,536.7,257.9,539.6,254.6,541.9z"/>
	<path class="st1" d="M358.8,391.2c6.3-4.1,12.6-8.1,18.8-12.3c0.3-0.2,0.6-0.4,0.9-0.7h-8.4c-4.6,3.1-9.1,6.3-13.7,9.5
		c-1,0.7-2.4,2.9-2,3.6C355.7,393.7,357.4,392.2,358.8,391.2z"/>
	<path class="st1" d="M489,378.6c-0.1,0-0.1,0-0.2-0.1c0,0-0.1,0-0.1,0.1c0,0,0.1,0,0.1,0C488.9,378.6,489,378.6,489,378.6z"/>
	<path class="st1" d="M474.8,392.8c1-0.6,1.7-1,2.5-1.4c0.6-0.4,1.2-0.8,1.9-1.2c-0.1-0.6-0.2-1.1-0.2-1.7c0-1.4,0.3-2.6,0.8-3.8
		c-1.9,1.3-3.7,2.5-5.6,3.8c-0.7,0.5-1.2,1.8-1.2,2.7C472.9,391.7,474.1,392.3,474.8,392.8z"/>
	<path class="st1" d="M267.3,701.4c0.6-0.6,0-2.4,0-3.6c-1,0.2-2.1,0.1-2.9,0.7c-3.5,2.6-6.7,5.6-10.2,8c-3.4,2.4-7,4.7-10.5,7
		c0,0.3,0.1,0.7,0.1,1c0,1.7-0.4,3.2-1.2,4.6c5.7-3.6,11.3-7.1,16.8-10.8C262.2,706.3,264.8,703.9,267.3,701.4z"/>
	<path class="st1" d="M238.7,469.8c-1.9,1.3-4.1,3-1,5.4c7.8-5.1,15.7-10,23.4-15.1c2.4-1.6,4.4-3.7,6.3-5.8c0.6-0.6,0-2.2,0-3.4
		c-1,0.1-2.2-0.1-2.9,0.4c-4,3-7.8,6.2-11.8,9.1C248.1,463.7,243.3,466.6,238.7,469.8z"/>
	<path class="st1" d="M243.7,388.8c5.4-3.5,10.9-7,16.2-10.5h-8.1c-0.8,0.5-1.5,1-2.3,1.6c-2.2,1.5-4.5,3-6.8,4.5
		c0.6,1.2,0.9,2.6,0.9,4.1C243.7,388.6,243.7,388.7,243.7,388.8z"/>
	<path class="st1" d="M238.6,634.3c-1.8,1.3-3.9,2.9-0.9,5.4c7.4-4.8,14.7-9.3,21.9-14.1c2.6-1.7,4.9-3.8,7.2-6
		c0.7-0.7,0.6-2.1,0.9-3.2c-1.2,0.1-2.5-0.2-3.4,0.4c-4.8,3.1-9.4,6.5-14.2,9.7C246.2,629.1,242.3,631.6,238.6,634.3z"/>
	<path class="st1" d="M344.9,440.6c-3.6,2.8-7.3,5.3-10.8,8.2c-0.8,0.6-1,2.1-1.1,3.2c0,0.4,0.9,0.9,1.5,1.4
		c0.9-0.6,1.6-1.1,2.3-1.6c4.3-3.2,8.7-6.3,13-9.6c2.6-2,5.1-4.1,7.3-6.4c0.6-0.7,0.4-2.3,0.6-3.5c-1.2,0.2-2.6,0.1-3.5,0.8
		C351,435.4,348,438.1,344.9,440.6z"/>
	<path class="st1" d="M344.6,523.4c-3.4,2.7-7.1,5.2-10.4,8c-0.7,0.6-1,2.1-1.1,3.2c0,0.4,0.9,0.9,1.5,1.4c0.9-0.6,1.6-1.1,2.3-1.6
		c4.3-3.2,8.7-6.3,13-9.6c2.6-2,5.1-4.1,7.3-6.4c0.7-0.7,0.4-2.3,0.6-3.5c-1.2,0.2-2.6,0.1-3.5,0.7
		C350.9,518.1,347.8,520.8,344.6,523.4z"/>
	<path class="st1" d="M476.5,679.4c-1.2,0.1-2.7-0.1-3.6,0.5c-3.5,2.6-6.8,5.4-10.2,8.1c-3.3,2.6-6.8,5.1-10.1,7.8
		c-0.7,0.6-0.9,1.9-1,3c0,0.6,0.6,1.3,0.9,1.9c1.5-0.9,2.2-1.4,2.9-1.8c4.5-3.3,8.9-6.4,13.3-9.8c2.6-2,5-4.1,7.3-6.4
		C476.6,682.1,476.4,680.5,476.5,679.4z"/>
	<path class="st1" d="M354.4,679.9c-3.6,2.6-7,5.6-10.5,8.3c-3.3,2.6-6.6,4.9-9.8,7.6c-0.7,0.6-0.9,1.9-1,2.9c0,0.5,0.8,1,1.4,1.7
		c1-0.7,1.8-1.2,2.6-1.8c4.2-3,8.3-6,12.4-9.1c2.8-2.1,5.4-4.4,7.9-6.9c0.6-0.6,0.4-2.2,0.6-3.3
		C356.7,679.6,355.2,679.3,354.4,679.9z"/>
	<path class="st1" d="M455.5,534.4c4.1-3,8.3-6,12.4-9.1c2.7-2.1,5.5-4.4,7.9-6.8c0.7-0.7,0.4-2.3,0.6-3.5c-1.2,0.2-2.7,0-3.6,0.7
		c-3.3,2.4-6.4,5.2-9.6,7.7c-3.5,2.7-7.1,5.2-10.5,8c-0.8,0.6-1,2.1-1.1,3.2c0,0.4,0.9,0.9,1.5,1.5
		C454.1,535.4,454.8,534.9,455.5,534.4z"/>
	<path class="st1" d="M472.8,433.2c-3.1,2.3-6,4.9-9,7.3c-3.6,2.8-7.5,5.5-11.1,8.4c-0.7,0.6-0.9,2.1-1,3.3c0,0.4,1,0.8,1.6,1.3
		c0.9-0.6,1.6-1.1,2.3-1.6c4.2-3.1,8.5-6.1,12.7-9.3c2.7-2.1,5.2-4.2,7.6-6.7c0.6-0.7,0.3-2.3,0.5-3.5
		C475.1,432.5,473.7,432.5,472.8,433.2z"/>
	<path class="st1" d="M292.3,475.4c-0.7,0.6-0.6,2.1-0.9,3.2c1,0.1,2.3,0.7,2.9,0.2c6.8-5,13.5-10.2,20.2-15.4
		c0.9-0.7,1.5-1.9,2.4-3.1c-0.6-0.7-1-1.7-1.4-1.7c-1,0-2.1,0.2-2.9,0.8c-3.5,2.6-6.8,5.5-10.2,8.2
		C299.1,470.2,295.6,472.6,292.3,475.4z"/>
	<path class="st1" d="M424.5,428.5c-4.1,3-8,6.3-12,9.5c-2.9,2.2-5.8,4.4-8.6,6.7c-0.6,0.6-0.9,1.9-0.9,2.9c0,0.4,1,0.8,1.6,1.3
		c0.8-0.5,1.5-0.8,2.1-1.2c5.4-4,10.9-7.9,16.3-12c1.7-1.3,3.2-2.9,4.5-4.5c0.5-0.7,0.2-1.9,0.3-3
		C426.6,428.3,425.3,427.9,424.5,428.5z"/>
	<path class="st1" d="M305.7,428.6c-3.6,2.8-7,5.7-10.5,8.4c-3.3,2.6-6.7,4.9-9.8,7.6c-0.7,0.6-0.6,2.3-0.9,3.5
		c1.1-0.1,2.5,0.2,3.3-0.3c4.7-3.3,9.4-6.7,14-10.2c2.4-1.8,4.5-3.9,6.7-6c0.6-0.6,0.9-1.5,1.8-2.9c-0.6-0.4-1.3-1-1.9-1
		C307.5,427.8,306.4,428.1,305.7,428.6z"/>
	<path class="st1" d="M299.3,639.5c5-3.8,9.9-7.5,14.8-11.4c1.1-0.9,1.8-2.3,2.8-3.7c-0.8-0.7-1.3-1.5-1.8-1.5
		c-0.9,0-1.9,0.3-2.6,0.8c-3.6,2.8-7.2,5.7-10.8,8.6c-3,2.3-6.1,4.4-8.9,6.9c-0.9,0.8-1,2.6-1.4,4c1.3-0.3,2.7-0.2,3.9-0.8
		C296.8,641.7,298,640.5,299.3,639.5z"/>
	<path class="st1" d="M411.5,644.1c1.1-0.7,2-1.3,2.9-1.9c4.4-3.2,8.9-6.4,13.3-9.7c2.3-1.7,4.4-3.7,6.3-5.8
		c0.6-0.7,0.5-2.2,0.7-3.3c-1.2,0.2-2.7-0.1-3.5,0.5c-3.5,2.6-6.8,5.4-10.2,8.1c-3.3,2.6-6.8,5.1-10.1,7.8c-0.7,0.6-0.9,1.9-1,2.9
		C409.9,643.1,410.9,643.6,411.5,644.1z"/>
	<path class="st1" d="M413.4,395.9c1.5-0.8,2.8-2,4.2-3.1c5.1-3.8,10.2-7.6,15.1-11.6c0.9-0.7,1.5-1.7,2.4-2.9h-5.6
		c-2.4,1.9-4.7,3.9-7.1,5.8c-3.7,2.9-7.7,5.6-11.3,8.6c-0.7,0.6-0.6,2.3-0.9,3.5C411.2,396.1,412.5,396.4,413.4,395.9z"/>
	<path class="st1" d="M294.2,396.3c6.8-5,13.6-10.2,20.3-15.4c0.8-0.6,1.4-1.6,2.1-2.6h-5.7c-2.9,2.3-5.8,4.7-8.7,6.9
		c-3.2,2.6-6.6,4.9-9.8,7.6c-0.7,0.6-0.7,2.1-1,3.2C292.3,396.1,293.6,396.7,294.2,396.3z"/>
	<path class="st1" d="M308,679.2c0.8-0.7,1.3-1.8,2.4-3.4c-0.7-0.4-1.4-1.1-2-1c-0.9,0-1.9,0.3-2.6,0.9c-2.5,2-4.8,4.3-7.4,6.3
		c-4.2,3.2-8.5,6.1-12.6,9.4c-0.8,0.7-0.8,2.4-1.2,3.7c1.2-0.2,2.6,0.1,3.6-0.5c3.1-2.1,6.1-4.4,9-6.7
		C300.8,685,304.4,682.1,308,679.2z"/>
	<path class="st1" d="M427,678.5c0.6-0.8,0.4-2.3,0.6-3.5c-1.2,0.3-2.6,0.2-3.5,0.8c-2.9,2.1-5.6,4.6-8.4,6.8
		c-3.9,3-7.8,5.8-11.7,8.8c-0.7,0.6-1.2,1.9-1.2,2.9c0,0.5,1.1,1.1,1.7,1.6c1-0.7,1.8-1.1,2.5-1.6c4.9-3.6,9.9-7.2,14.8-10.9
		C423.8,682,425.5,680.4,427,678.5z"/>
	<path class="st1" d="M424.3,593.9c-3.4,2.5-6.6,5.3-9.9,7.9c-3.4,2.7-7,5.2-10.4,8c-0.7,0.6-1,1.9-1.1,2.9c0,0.4,0.9,0.9,1.5,1.5
		c0.9-0.5,1.7-0.9,2.4-1.4c5.1-3.7,10.3-7.5,15.4-11.3c1.9-1.4,3.6-3.1,5.1-5c0.6-0.7,0.2-2.1,0.2-3.2
		C426.5,593.4,425.1,593.2,424.3,593.9z"/>
	<path class="st1" d="M308.7,596.4c0.5-0.7,0.2-2.1,0.2-3.2c-1.1,0.2-2.4,0.1-3.2,0.7c-3.4,2.5-6.6,5.3-9.9,7.9
		c-3.4,2.7-7,5.2-10.4,8c-0.7,0.6-0.9,1.9-1,2.9c0,0.4,1,0.9,1.6,1.4c0.9-0.5,1.7-0.9,2.4-1.4c5.1-3.7,10.3-7.5,15.4-11.3
		C305.5,599.9,307.2,598.2,308.7,596.4z"/>
	<path class="st1" d="M434,541.2c-1,0.1-2.1,0.4-2.9,1c-3,2.3-5.9,4.9-9,7.3c-3.6,2.8-7.5,5.4-11,8.4c-0.7,0.6-0.7,2.3-1,3.5
		c0.9,0.1,2.1,0.6,2.6,0.2c7-5.2,13.9-10.5,20.8-15.9c0.8-0.7,1.3-1.8,2.5-3.6C435.3,541.7,434.6,541.1,434,541.2z"/>
	<path class="st1" d="M292.3,557.9c-0.7,0.6-0.7,2.1-1,3.2c1,0.1,2.3,0.7,2.9,0.3c6.8-5,13.6-10.2,20.3-15.4
		c0.9-0.7,1.5-1.9,2.4-3.1c-0.5-0.7-0.9-1.7-1.3-1.7c-1,0-2.2,0.2-2.9,0.7c-3.6,2.7-7,5.6-10.5,8.3
		C298.9,552.9,295.5,555.3,292.3,557.9z"/>
	<path class="st1" d="M305.7,511.3c-3.4,2.5-6.6,5.3-9.9,7.9c-3.4,2.7-7,5.2-10.4,8c-0.7,0.6-1,1.9-1.1,2.9c0,0.4,1,0.9,1.6,1.4
		c0.9-0.5,1.7-0.9,2.4-1.4c5.1-3.7,10.3-7.5,15.4-11.3c1.9-1.4,3.6-3.1,5.1-5c0.5-0.7,0.1-2.1,0.2-3.2
		C307.8,510.8,306.5,510.7,305.7,511.3z"/>
	<path class="st1" d="M424.3,511.3c-3.4,2.5-6.6,5.3-9.9,7.9c-3.4,2.7-7,5.2-10.4,8c-0.7,0.6-1,1.9-1.1,2.9c0,0.4,1,0.9,1.6,1.5
		c0.9-0.5,1.7-0.9,2.4-1.4c5.1-3.7,10.3-7.5,15.4-11.3c1.9-1.4,3.6-3.1,5.1-5c0.5-0.7,0.2-2.1,0.2-3.2
		C426.4,510.8,425.1,510.7,424.3,511.3z"/>
	<path class="st1" d="M315.5,705.6c-1,0-2.1,0.3-2.9,0.8c-3.5,2.6-6.8,5.5-10.2,8.1c-3.3,2.6-6.8,5-10.1,7.8c-0.3,0.2-0.4,0.6-0.5,1
		h5.7c5.6-4.2,11.2-8.4,16.8-12.7c1-0.8,1.7-2.1,2.7-3.3C316.3,706.6,315.9,705.6,315.5,705.6z"/>
	<path class="st1" d="M422.3,713.7c-3.7,2.9-7.6,5.6-11.3,8.6c-0.3,0.3-0.6,0.7-0.7,1.1h6.1c3.9-2.8,7.7-5.6,11.5-8.5
		c2.2-1.7,4.3-3.5,6.1-5.6c0.6-0.7,0.4-2.3,0.6-3.6c-1.2,0.3-2.6,0.2-3.5,0.9C428,708.8,425.3,711.4,422.3,713.7z"/>
	<path class="st1" d="M411.5,474.9c-0.9,0.7-1.1,2.4-1.5,3.7c1.3-0.1,2.9,0.2,3.8-0.4c5.4-3.7,10.8-7.7,16-11.7
		c1.8-1.4,3.5-3.2,4.9-5.1c0.4-0.6-0.4-2.1-0.8-3.9c-1.6,1.2-2.3,1.7-2.9,2.2c-2.7,2.2-5.3,4.5-8.1,6.7
		C419.1,469.2,415.2,471.9,411.5,474.9z"/>
	<path class="st1" d="M375.9,508c4.8-3.5,9.7-7,14.5-10.6c1.9-1.4,3.7-3,5.2-4.9c0.7-0.8,0.7-2.3,1-3.5c-1.3,0.2-2.8,0-3.8,0.7
		c-3.2,2.3-6.2,5-9.4,7.4c-3.6,2.8-7.2,5.4-10.7,8.2c-0.7,0.5-1,1.9-1,2.9c0,0.4,0.9,0.9,1.5,1.5C374.2,509,375.1,508.5,375.9,508z"
		/>
	<path class="st1" d="M257.1,425.4c5-3.6,9.9-7.1,14.8-10.9c2-1.5,3.8-3.3,5.4-5.2c0.6-0.7,0.3-2.1,0.5-3.2
		c-1.1,0.1-2.5-0.1-3.3,0.4c-4.3,3.2-8.4,6.6-12.7,9.9c-2.7,2.1-5.4,4.1-8,6.3c-0.6,0.6-0.8,1.9-0.8,2.9c0,0.4,1,0.8,1.6,1.3
		C255.7,426.4,256.5,426,257.1,425.4z"/>
	<path class="st1" d="M396,406c-1,0-2.2,0.2-2.9,0.8c-3.9,2.9-7.6,6-11.4,9c-3,2.4-6.2,4.6-9.2,7.1c-0.6,0.5-0.5,2-0.7,3
		c1,0.1,2.3,0.7,2.9,0.3c6.9-5.2,13.7-10.4,20.5-15.7c0.9-0.7,1.4-1.7,2.2-2.8C396.8,407,396.5,406,396,406z"/>
	<path class="st1" d="M497.6,417.8c-2.1,1.6-4.3,3.2-6.3,4.9c-0.7,0.6-0.6,2.1-0.9,3.2c0.9,0.1,2.1,0.8,2.6,0.4
		c1.5-1.2,3.1-2.4,4.6-3.6V417.8z"/>
	<path class="st1" d="M497.6,500.4c-2.2,1.6-4.4,3.3-6.4,5c-0.6,0.5-0.5,2.1-0.7,3.2c0.9,0.1,2.1,0.6,2.6,0.2c1.5-1.1,3-2.3,4.5-3.4
		V500.4z"/>
	<path class="st1" d="M277.3,574.7c0.6-0.4,0.9-1.2,1.4-2c-0.5-0.6-0.9-1.6-1.4-1.6c-1,0-2.1,0.3-2.9,0.8c-3.4,2.6-6.6,5.3-9.9,7.9
		c-3.4,2.7-7,5.2-10.4,8c-0.7,0.6-0.6,2.1-0.9,3.2c0.9,0.2,2.1,0.8,2.6,0.4C263,586,270.2,580.3,277.3,574.7z"/>
	<path class="st1" d="M497.6,664.8c-2.1,1.6-4.2,3.1-6.2,4.8c-0.7,0.6-1,1.9-1.1,2.9c0,0.4,0.9,1,1.5,1.5c1-0.6,1.8-1.1,2.7-1.6
		c1-0.8,2.1-1.5,3.1-2.3V664.8z"/>
	<path class="st1" d="M382.7,580.1c-3.3,2.6-6.8,5.1-10.1,7.8c-0.6,0.5-0.8,1.9-0.8,2.9c0,0.4,1,0.8,1.6,1.3c1-0.7,1.8-1.2,2.6-1.7
		c4.8-3.5,9.6-6.9,14.2-10.4c2.1-1.6,4-3.4,5.7-5.4c0.6-0.7,0.4-2.1,0.5-3.2c-1.2,0.2-2.6,0-3.5,0.7
		C389.5,574.6,386.2,577.4,382.7,580.1z"/>
	<path class="st1" d="M374.5,673.3c7.1-5.3,14.1-10.8,21-16.3c0.7-0.6,1.2-1.6,1.8-2.6c-0.6-0.6-1.1-1.6-1.5-1.6c-1,0-2.1,0.4-2.9,1
		c-3.5,2.6-6.8,5.5-10.2,8.1c-3.3,2.6-6.8,5.1-10.1,7.8c-0.7,0.6-0.5,2.1-0.7,3.2C372.8,673.1,374,673.6,374.5,673.3z"/>
	<path class="st1" d="M254.7,674c1.1-0.7,1.9-1.3,2.7-1.9c4.1-3,8.3-6,12.4-9.1c2.6-2,5.1-4.1,7.3-6.4c0.7-0.7,0.5-2.3,0.6-3.5
		c-1.2,0.2-2.6,0.1-3.5,0.8c-3.4,2.5-6.6,5.3-9.9,7.9c-3.4,2.6-6.8,5.1-10.1,7.8c-0.7,0.6-1.1,1.9-1.2,2.8
		C253,672.9,254.1,673.4,254.7,674z"/>
	<path class="st1" d="M276.3,487.9c-0.8,0.7-1.5,1.3-2.3,1.9c-2.7,2.2-5.4,4.5-8.1,6.6c-3.7,2.8-7.5,5.4-11.1,8.4
		c-0.9,0.7-1.1,2.4-1.6,3.7c1.4-0.1,3,0.2,4-0.5c5-3.4,9.8-6.9,14.6-10.6c2.2-1.7,4.1-3.7,6-5.7c0.5-0.5,0.6-1.6,0.5-2.3
		C278,488.7,277.1,488.4,276.3,487.9z"/>
	<path class="st1" d="M497.6,582.9c-2.2,1.7-4.4,3.3-6.6,5.1c-0.6,0.5-0.5,2-0.7,3c1,0.1,2.3,0.7,2.9,0.3c1.5-1.1,2.9-2.2,4.4-3.3
		V582.9z"/>
	<path class="st1" d="M455.4,616.9c6.6-4.8,13-9.8,19.4-14.8c0.9-0.7,1.6-1.9,2.5-3c-0.6-0.8-1-1.9-1.3-1.9c-1.1,0.1-2.4,0.3-3.3,1
		c-3.1,2.3-6,4.9-9,7.3c-3.5,2.7-7.1,5.1-10.5,7.9c-0.9,0.7-1.1,2.4-1.6,3.7C453,617.1,454.6,617.5,455.4,616.9z"/>
	<path class="st1" d="M334.9,618c1-0.6,2-1.1,2.9-1.8c4.1-2.9,8.2-5.8,12.1-8.9c2.6-2,5.1-4.1,7.3-6.4c0.6-0.7,0.4-2.3,0.5-3.5
		c-1.2,0.3-2.6,0.2-3.5,0.8c-3.1,2.3-6,4.9-9,7.3c-3.6,2.8-7.5,5.5-11.1,8.4c-0.7,0.6-0.9,1.9-1,2.9
		C333,617.1,334.1,617.6,334.9,618z"/>
	<path class="st1" d="M225.8,529.4c3.5-2.6,7-5.2,10.4-7.9c1.6-1.3,2.7-3.2,4-5c-0.6-0.8-1-1.8-1.5-1.8c-0.7-0.1-1.6,0.3-2.2,0.8
		c-3.5,2.7-7,5.6-10.5,8.4c-0.1,0-0.1,0.1-0.2,0.1V529.4z"/>
	<path class="st1" d="M227.7,687.1c-0.6,0.5-1.3,1-1.9,1.5v5.3c2.9-2.1,5.7-4.2,8.5-6.4c1.9-1.5,3.5-3.5,5-5.5
		c0.5-0.7-0.1-2.1-0.2-4c-1.5,1.1-2.1,1.5-2.7,1.9C233.5,682.3,230.7,684.8,227.7,687.1z"/>
	<path class="st1" d="M236.5,432.9c-3.4,2.7-6.8,5.5-10.2,8.2c-0.2,0.1-0.3,0.2-0.5,0.4v5.5c3.1-2.3,6.3-4.6,9.3-7
		c1.6-1.3,3-3,4.1-4.8c0.4-0.7-0.1-1.9-0.2-2.9C238.1,432.4,237.1,432.4,236.5,432.9z"/>
	<path class="st1" d="M462,563.4c-3,2.2-5.7,4.8-8.7,7.1c-3.8,2.9-7.7,5.6-11.4,8.6c-0.7,0.6-1.2,1.9-1.2,2.8c0,0.5,1.1,1.1,1.7,1.7
		c1.1-0.7,1.9-1.2,2.7-1.8c4.6-3.4,9.3-6.7,13.9-10.2c2.1-1.7,4.2-3.6,6-5.6c0.6-0.7,0.3-2.2,0.4-3.3
		C464.3,562.9,462.9,562.8,462,563.4z"/>
	<path class="st1" d="M346.3,562.3c-1,0.1-2.1,0.4-2.9,1.1c-3,2.3-5.7,4.8-8.7,7.1c-3.6,2.8-7.3,5.3-10.8,8.2
		c-0.9,0.8-1.1,2.6-1.6,3.9c1.3-0.2,2.8,0,3.8-0.6c2.4-1.5,4.6-3.4,6.9-5.1c4.1-3.1,8.2-6.2,12.2-9.4c1-0.8,1.7-2.1,2.6-3.3
		C347.2,563.3,346.7,562.3,346.3,562.3z"/>
	<path class="st1" d="M225.8,568.6c0.6-0.5,1.2-0.9,1.8-1.4c0.9-0.7,1.5-1.9,2.4-3c-0.6-0.8-1-1.8-1.4-1.8c-0.9,0-2,0.2-2.8,0.8
		V568.6z"/>
	<path class="st1" d="M462.1,398.2c-3.3,2.5-6.4,5.2-9.6,7.7c-3.6,2.8-7.2,5.4-10.7,8.2c-0.7,0.6-0.9,1.9-0.9,2.9
		c0,0.4,1,0.9,1.6,1.4c1-0.6,1.8-1.1,2.6-1.7c4.7-3.4,9.5-6.9,14.2-10.4c2.1-1.6,4-3.4,5.7-5.4c0.6-0.7,0.2-2.3,0.3-3.5
		C464.2,397.6,462.9,397.6,462.1,398.2z"/>
	<path class="st1" d="M225.8,650.5c0.5-0.4,1.1-0.8,1.6-1.3c1-0.8,1.6-2.1,2.5-3.3c-0.6-0.8-1.1-1.8-1.6-1.8
		c-0.9,0.1-1.8,0.4-2.6,0.9V650.5z"/>
	<path class="st1" d="M346.4,644.2c-1,0-2.1,0.4-2.9,0.9c-3.1,2.4-6.1,5.1-9.3,7.5c-3.6,2.8-7.5,5.5-11,8.4
		c-0.7,0.6-0.6,2.1-0.9,3.2c0.9,0.2,2.1,0.8,2.6,0.4c7.2-5.4,14.2-10.9,21.3-16.5c0.6-0.5,0.9-1.4,1.5-2.3
		C347.2,645.2,346.8,644.2,346.4,644.2z"/>
	<path class="st1" d="M462.2,645c-3.5,2.7-6.9,5.6-10.5,8.4c-3.3,2.6-6.6,4.9-9.8,7.6c-0.7,0.6-0.6,2.3-0.9,3.5
		c1.1-0.1,2.4,0.3,3.2-0.3c4.5-3.1,9-6.4,13.3-9.7c2.5-1.9,4.8-4,7.1-6.1c0.7-0.6,1.1-1.6,1.7-2.6c-0.6-0.7-1.1-1.6-1.6-1.7
		C463.9,644.1,462.9,644.4,462.2,645z"/>
	<path class="st1" d="M462.1,480.7c-3.4,2.6-6.6,5.3-9.9,7.9c-3.4,2.7-7,5.2-10.4,8c-0.7,0.6-1,1.9-1,2.9c0,0.4,1,0.9,1.6,1.4
		c0.9-0.5,1.7-0.9,2.3-1.4c5.2-3.7,10.3-7.5,15.4-11.3c1.8-1.4,3.5-2.9,4.8-4.7c0.6-0.8,0.3-2.3,0.4-3.5
		C464.2,480.2,462.9,480.1,462.1,480.7z"/>
	<path class="st1" d="M343.5,480.7c-3.3,2.5-6.4,5.2-9.6,7.7c-3.6,2.8-7.2,5.4-10.7,8.2c-0.7,0.6-0.9,1.9-0.9,2.9
		c0,0.4,1,0.9,1.6,1.4c1-0.6,1.8-1.1,2.6-1.7c4.7-3.4,9.5-6.9,14.2-10.4c2.1-1.6,4-3.4,5.7-5.4c0.6-0.7,0.2-2.3,0.3-3.5
		C345.6,480.2,344.3,480.1,343.5,480.7z"/>
	<path class="st1" d="M225.8,486.1c0.8-0.7,1.6-1.4,2.4-2.2c0.7-0.6,1.1-1.6,1.7-2.6c-0.6-0.7-1.1-1.6-1.6-1.7
		c-0.8,0-1.8,0.3-2.5,0.8V486.1z"/>
	<path class="st1" d="M229.9,399c-0.6-0.8-1-1.8-1.5-1.8c-0.9,0-1.9,0.3-2.7,0.8v5.5c0.5-0.4,1-0.8,1.5-1.2
		C228.4,401.5,229,400.2,229.9,399z"/>
	<path class="st1" d="M326.6,416.6c4.6-3.4,9.3-6.7,13.9-10.2c2.1-1.6,4.1-3.4,5.8-5.3c0.7-0.8,0.4-2.4,0.6-3.6
		c-1.2,0.3-2.6,0.2-3.5,0.8c-3,2.2-5.7,4.7-8.7,7c-3.7,2.9-7.6,5.6-11.4,8.6c-0.7,0.6-1.2,1.9-1.2,2.9c0,0.5,1.1,1.1,1.7,1.6
		C324.9,417.7,325.8,417.2,326.6,416.6z"/>
	<path class="st1" d="M225.8,611.9c3.8-2.8,7.5-5.6,11.2-8.5c1.3-1,2.1-2.8,3.1-4.4c-0.5-0.7-0.9-1.7-1.4-1.7
		c-0.7-0.1-1.6,0.2-2.2,0.7c-3.4,2.7-6.8,5.5-10.2,8.2c-0.2,0.1-0.3,0.3-0.5,0.4V611.9z"/>
</g>
</svg>
