<?xml version="1.0" standalone="no"?>
 <!DOCTYPE svg PUBLIC "-//W3C//DTD SVG 1.1//EN" 
 "http://www.w3.org/Graphics/SVG/1.1/DTD/svg11.dtd"> 
<svg
  xmlns:svg="http://www.w3.org/2000/svg"
  xmlns="http://www.w3.org/2000/svg"
  xmlns:xlink="http://www.w3.org/1999/xlink"
  version="1.1"
  width="75.0824mm" height="94.6912mm" viewBox="0.0000 0.0000 75.0824 94.6912">
<title>SVG Image created as biometrics-Edge_Cuts.svg date 2023/07/19 08:49:49 </title>
  <desc>Image generated by PCBNEW </desc>
<g style="fill:#000000; fill-opacity:1.0000;stroke:#000000; stroke-opacity:1.0000;
stroke-linecap:round; stroke-linejoin:round;"
 transform="translate(0 0) scale(1 1)">
</g>
<g style="fill:#000000; fill-opacity:0.0; 
stroke:#000000; stroke-width:0.0000; stroke-opacity:1; 
stroke-linecap:round; stroke-linejoin:round;">
</g>
<g style="fill:#000000; fill-opacity:0.0; 
stroke:#000000; stroke-width:0.1000; stroke-opacity:1; 
stroke-linecap:round; stroke-linejoin:round;">
<path style="fill:#000000; fill-opacity:0.0; 
stroke:#000000; stroke-width:0.1000; stroke-opacity:1; 
stroke-linecap:round; stroke-linejoin:round;fill:none"
d="M 71.3672,2.4885
71.4338,2.4936
71.4995,2.5019
71.5641,2.5135
71.6276,2.5281
71.6899,2.5458
71.7509,2.5664
71.8105,2.5899
71.8686,2.6162
71.9252,2.6452
71.9801,2.6768
72.0334,2.7109
72.0848,2.7475
72.1344,2.7865
72.1820,2.8277
72.2276,2.8712
72.2710,2.9168
72.3123,2.9644
72.3513,3.0140
72.3878,3.0654
72.4220,3.1187
72.4536,3.1736
72.4826,3.2302
72.5088,3.2883
72.5323,3.3479
72.5530,3.4089
72.5707,3.4712
72.5853,3.5347
72.5968,3.5993
72.6052,3.6650
72.6103,3.7316
72.6120,3.7991
72.6103,3.8667
72.6052,3.9333
72.5968,3.9990
72.5853,4.0636
72.5707,4.1271
72.5530,4.1894
72.5323,4.2504
72.5088,4.3100
72.4826,4.3681
72.4536,4.4247
72.4220,4.4796
72.3878,4.5329
72.3513,4.5843
72.3123,4.6339
72.2710,4.6815
72.2276,4.7271
72.1820,4.7706
72.1344,4.8118
72.0848,4.8508
72.0334,4.8874
71.9801,4.9215
71.9252,4.9531
71.8686,4.9821
71.8105,5.0083
71.7509,5.0318
71.6899,5.0525
71.6276,5.0702
71.5641,5.0848
71.4995,5.0964
71.4338,5.1047
71.3672,5.1098
71.2996,5.1115
71.2321,5.1098
71.1655,5.1047
71.0998,5.0964
71.0352,5.0848
70.9717,5.0702
70.9094,5.0525
70.8484,5.0318
70.7888,5.0083
70.7307,4.9821
70.6741,4.9531
70.6191,4.9215
70.5659,4.8874
70.5145,4.8508
70.4649,4.8118
70.4173,4.7706
70.3717,4.7271
70.3282,4.6815
70.2870,4.6339
70.2480,4.5843
70.2114,4.5329
70.1773,4.4796
70.1457,4.4247
70.1167,4.3681
70.0904,4.3100
70.0669,4.2504
70.0463,4.1894
70.0286,4.1271
70.0140,4.0636
70.0024,3.9990
69.9941,3.9333
69.9890,3.8667
69.9873,3.7991
69.9890,3.7316
69.9941,3.6650
70.0024,3.5993
70.0140,3.5347
70.0286,3.4712
70.0463,3.4089
70.0669,3.3479
70.0904,3.2883
70.1167,3.2302
70.1457,3.1736
70.1773,3.1187
70.2114,3.0654
70.2480,3.0140
70.2870,2.9644
70.3282,2.9168
70.3717,2.8712
70.4173,2.8277
70.4649,2.7865
70.5145,2.7475
70.5659,2.7109
70.6191,2.6768
70.6741,2.6452
70.7307,2.6162
70.7888,2.5899
70.8484,2.5664
70.9094,2.5458
70.9717,2.5281
71.0352,2.5135
71.0998,2.5019
71.1655,2.4936
71.2321,2.4885
71.2996,2.4868
Z" /> 
<path style="fill:#000000; fill-opacity:0.0; 
stroke:#000000; stroke-width:0.1000; stroke-opacity:1; 
stroke-linecap:round; stroke-linejoin:round;fill:none"
d="M 71.3672,88.7400
71.4338,88.7451
71.4995,88.7535
71.5641,88.7650
71.6276,88.7796
71.6899,88.7973
71.7509,88.8180
71.8105,88.8415
71.8686,88.8677
71.9252,88.8967
71.9801,88.9283
72.0334,88.9625
72.0848,88.9990
72.1344,89.0380
72.1820,89.0793
72.2276,89.1227
72.2710,89.1683
72.3123,89.2159
72.3513,89.2655
72.3878,89.3169
72.4220,89.3702
72.4536,89.4251
72.4826,89.4817
72.5088,89.5398
72.5323,89.5994
72.5530,89.6604
72.5707,89.7227
72.5853,89.7862
72.5968,89.8508
72.6052,89.9165
72.6103,89.9831
72.6120,90.0507
72.6103,90.1182
72.6052,90.1848
72.5968,90.2505
72.5853,90.3151
72.5707,90.3786
72.5530,90.4409
72.5323,90.5019
72.5088,90.5615
72.4826,90.6196
72.4536,90.6762
72.4220,90.7312
72.3878,90.7844
72.3513,90.8359
72.3123,90.8854
72.2710,90.9331
72.2276,90.9786
72.1820,91.0221
72.1344,91.0633
72.0848,91.1023
72.0334,91.1389
71.9801,91.1730
71.9252,91.2046
71.8686,91.2336
71.8105,91.2599
71.7509,91.2834
71.6899,91.3040
71.6276,91.3217
71.5641,91.3363
71.4995,91.3479
71.4338,91.3562
71.3672,91.3613
71.2996,91.3630
71.2321,91.3613
71.1655,91.3562
71.0998,91.3479
71.0352,91.3363
70.9717,91.3217
70.9094,91.3040
70.8484,91.2834
70.7888,91.2599
70.7307,91.2336
70.6741,91.2046
70.6191,91.1730
70.5659,91.1389
70.5145,91.1023
70.4649,91.0633
70.4173,91.0221
70.3717,90.9786
70.3282,90.9331
70.2870,90.8854
70.2480,90.8359
70.2114,90.7844
70.1773,90.7312
70.1457,90.6762
70.1167,90.6196
70.0904,90.5615
70.0669,90.5019
70.0463,90.4409
70.0286,90.3786
70.0140,90.3151
70.0024,90.2505
69.9941,90.1848
69.9890,90.1182
69.9873,90.0507
69.9890,89.9831
69.9941,89.9165
70.0024,89.8508
70.0140,89.7862
70.0286,89.7227
70.0463,89.6604
70.0669,89.5994
70.0904,89.5398
70.1167,89.4817
70.1457,89.4251
70.1773,89.3702
70.2114,89.3169
70.2480,89.2655
70.2870,89.2159
70.3282,89.1683
70.3717,89.1227
70.4173,89.0793
70.4649,89.0380
70.5145,88.9990
70.5659,88.9625
70.6191,88.9283
70.6741,88.8967
70.7307,88.8677
70.7888,88.8415
70.8484,88.8180
70.9094,88.7973
70.9717,88.7796
71.0352,88.7650
71.0998,88.7535
71.1655,88.7451
71.2321,88.7400
71.2996,88.7383
Z" /> 
<path style="fill:#000000; fill-opacity:0.0; 
stroke:#000000; stroke-width:0.1000; stroke-opacity:1; 
stroke-linecap:round; stroke-linejoin:round;fill:none"
d="M 3.8667,2.4885
3.9333,2.4936
3.9990,2.5019
4.0636,2.5135
4.1271,2.5281
4.1894,2.5458
4.2504,2.5664
4.3100,2.5899
4.3681,2.6162
4.4247,2.6452
4.4796,2.6768
4.5329,2.7109
4.5843,2.7475
4.6339,2.7865
4.6815,2.8277
4.7271,2.8712
4.7706,2.9168
4.8118,2.9644
4.8508,3.0140
4.8874,3.0654
4.9215,3.1187
4.9531,3.1736
4.9821,3.2302
5.0083,3.2883
5.0318,3.3479
5.0525,3.4089
5.0702,3.4712
5.0848,3.5347
5.0964,3.5993
5.1047,3.6650
5.1098,3.7316
5.1115,3.7991
5.1098,3.8667
5.1047,3.9333
5.0964,3.9990
5.0848,4.0636
5.0702,4.1271
5.0525,4.1894
5.0318,4.2504
5.0083,4.3100
4.9821,4.3681
4.9531,4.4247
4.9215,4.4796
4.8874,4.5329
4.8508,4.5843
4.8118,4.6339
4.7706,4.6815
4.7271,4.7271
4.6815,4.7706
4.6339,4.8118
4.5843,4.8508
4.5329,4.8874
4.4796,4.9215
4.4247,4.9531
4.3681,4.9821
4.3100,5.0083
4.2504,5.0318
4.1894,5.0525
4.1271,5.0702
4.0636,5.0848
3.9990,5.0964
3.9333,5.1047
3.8667,5.1098
3.7991,5.1115
3.7316,5.1098
3.6650,5.1047
3.5993,5.0964
3.5347,5.0848
3.4712,5.0702
3.4089,5.0525
3.3479,5.0318
3.2883,5.0083
3.2302,4.9821
3.1736,4.9531
3.1186,4.9215
3.0654,4.8874
3.0140,4.8508
2.9644,4.8118
2.9168,4.7706
2.8712,4.7271
2.8277,4.6815
2.7865,4.6339
2.7475,4.5843
2.7109,4.5329
2.6768,4.4796
2.6452,4.4247
2.6162,4.3681
2.5899,4.3100
2.5664,4.2504
2.5458,4.1894
2.5281,4.1271
2.5135,4.0636
2.5019,3.9990
2.4936,3.9333
2.4885,3.8667
2.4868,3.7991
2.4885,3.7316
2.4936,3.6650
2.5019,3.5993
2.5135,3.5347
2.5281,3.4712
2.5458,3.4089
2.5664,3.3479
2.5899,3.2883
2.6162,3.2302
2.6452,3.1736
2.6768,3.1187
2.7109,3.0654
2.7475,3.0140
2.7865,2.9644
2.8277,2.9168
2.8712,2.8712
2.9168,2.8277
2.9644,2.7865
3.0140,2.7475
3.0654,2.7109
3.1186,2.6768
3.1736,2.6452
3.2302,2.6162
3.2883,2.5899
3.3479,2.5664
3.4089,2.5458
3.4712,2.5281
3.5347,2.5135
3.5993,2.5019
3.6650,2.4936
3.7316,2.4885
3.7991,2.4868
Z" /> 
<path style="fill:#000000; fill-opacity:0.0; 
stroke:#000000; stroke-width:0.1000; stroke-opacity:1; 
stroke-linecap:round; stroke-linejoin:round;fill:none"
d="M 72.2054,0.0539
72.3577,0.0655
72.5078,0.0846
72.6555,0.1110
72.8007,0.1445
72.9430,0.1850
73.0824,0.2321
73.2186,0.2859
73.3515,0.3460
73.4809,0.4123
73.6065,0.4846
73.7283,0.5626
73.8459,0.6463
73.9593,0.7354
74.0681,0.8297
74.1724,0.9291
74.2717,1.0333
74.3661,1.1422
74.4551,1.2555
74.5388,1.3732
74.6169,1.4949
74.6892,1.6206
74.7554,1.7499
74.8155,1.8828
74.8693,2.0191
74.9165,2.1584
74.9569,2.3008
74.9904,2.4459
75.0168,2.5936
75.0359,2.7437
75.0475,2.8960
75.0514,3.0504
75.0514,90.7994
75.0473,90.9538
75.0355,91.1061
75.0162,91.2562
74.9897,91.4039
74.9560,91.5490
74.9155,91.6914
74.8682,91.8308
74.8144,91.9670
74.7542,92.0999
74.6879,92.2292
74.6156,92.3549
74.5375,92.4766
74.4538,92.5943
74.3647,92.7076
74.2704,92.8165
74.1710,92.9207
74.0668,93.0201
73.9579,93.1144
73.8446,93.2035
73.7269,93.2872
73.6052,93.3653
73.4795,93.4375
73.3501,93.5038
73.2171,93.5639
73.0808,93.6177
72.9413,93.6649
72.7989,93.7053
72.6536,93.7388
72.5058,93.7652
72.3555,93.7843
72.2030,93.7959
72.0484,93.7998
3.0504,93.7998
2.8960,93.7959
2.7437,93.7843
2.5936,93.7652
2.4459,93.7388
2.3008,93.7053
2.1584,93.6649
2.0191,93.6177
1.8828,93.5639
1.7499,93.5038
1.6206,93.4375
1.4949,93.3653
1.3732,93.2872
1.2555,93.2035
1.1422,93.1144
1.0333,93.0201
0.9291,92.9207
0.8297,92.8165
0.7354,92.7076
0.6463,92.5943
0.5626,92.4766
0.4846,92.3549
0.4123,92.2292
0.3460,92.0999
0.2859,91.9670
0.2321,91.8308
0.1850,91.6914
0.1445,91.5490
0.1110,91.4039
0.0846,91.2562
0.0655,91.1061
0.0539,90.9538
0.0500,90.7994
0.0500,3.0504
0.0539,2.8960
0.0655,2.7437
0.0846,2.5936
0.1110,2.4459
0.1445,2.3008
0.1850,2.1584
0.2321,2.0191
0.2859,1.8828
0.3460,1.7499
0.4123,1.6206
0.4846,1.4949
0.5626,1.3732
0.6463,1.2555
0.7354,1.1422
0.8297,1.0333
0.9291,0.9291
1.0333,0.8297
1.1422,0.7354
1.2555,0.6463
1.3732,0.5626
1.4949,0.4846
1.6206,0.4123
1.7499,0.3460
1.8828,0.2859
2.0191,0.2321
2.1584,0.1850
2.3008,0.1445
2.4459,0.1110
2.5936,0.0846
2.7437,0.0655
2.8960,0.0539
3.0504,0.0500
72.0511,0.0500
Z" /> 
<path style="fill:#000000; fill-opacity:0.0; 
stroke:#000000; stroke-width:0.1000; stroke-opacity:1; 
stroke-linecap:round; stroke-linejoin:round;fill:none"
d="M 3.8667,88.7400
3.9333,88.7451
3.9990,88.7535
4.0636,88.7650
4.1271,88.7796
4.1894,88.7973
4.2504,88.8180
4.3100,88.8415
4.3681,88.8677
4.4247,88.8967
4.4796,88.9283
4.5329,88.9625
4.5843,88.9990
4.6339,89.0380
4.6815,89.0793
4.7271,89.1227
4.7706,89.1683
4.8118,89.2159
4.8508,89.2655
4.8874,89.3169
4.9215,89.3702
4.9531,89.4251
4.9821,89.4817
5.0083,89.5398
5.0318,89.5994
5.0525,89.6604
5.0702,89.7227
5.0848,89.7862
5.0964,89.8508
5.1047,89.9165
5.1098,89.9831
5.1115,90.0507
5.1098,90.1182
5.1047,90.1848
5.0964,90.2505
5.0848,90.3151
5.0702,90.3786
5.0525,90.4409
5.0318,90.5019
5.0083,90.5615
4.9821,90.6196
4.9531,90.6762
4.9215,90.7312
4.8874,90.7844
4.8508,90.8359
4.8118,90.8854
4.7706,90.9331
4.7271,90.9786
4.6815,91.0221
4.6339,91.0633
4.5843,91.1023
4.5329,91.1389
4.4796,91.1730
4.4247,91.2046
4.3681,91.2336
4.3100,91.2599
4.2504,91.2834
4.1894,91.3040
4.1271,91.3217
4.0636,91.3363
3.9990,91.3479
3.9333,91.3562
3.8667,91.3613
3.7991,91.3630
3.7316,91.3613
3.6650,91.3562
3.5993,91.3479
3.5347,91.3363
3.4712,91.3217
3.4089,91.3040
3.3479,91.2834
3.2883,91.2599
3.2302,91.2336
3.1736,91.2046
3.1186,91.1730
3.0654,91.1389
3.0140,91.1023
2.9644,91.0633
2.9168,91.0221
2.8712,90.9786
2.8277,90.9331
2.7865,90.8854
2.7475,90.8359
2.7109,90.7844
2.6768,90.7312
2.6452,90.6762
2.6162,90.6196
2.5899,90.5615
2.5664,90.5019
2.5458,90.4409
2.5281,90.3786
2.5135,90.3151
2.5019,90.2505
2.4936,90.1848
2.4885,90.1182
2.4868,90.0507
2.4885,89.9831
2.4936,89.9165
2.5019,89.8508
2.5135,89.7862
2.5281,89.7227
2.5458,89.6604
2.5664,89.5994
2.5899,89.5398
2.6162,89.4817
2.6452,89.4251
2.6768,89.3702
2.7109,89.3169
2.7475,89.2655
2.7865,89.2159
2.8277,89.1683
2.8712,89.1227
2.9168,89.0793
2.9644,89.0380
3.0140,88.9990
3.0654,88.9625
3.1186,88.9283
3.1736,88.8967
3.2302,88.8677
3.2883,88.8415
3.3479,88.8180
3.4089,88.7973
3.4712,88.7796
3.5347,88.7650
3.5993,88.7535
3.6650,88.7451
3.7316,88.7400
3.7991,88.7383
Z" /> 
<g >
</g>
<g >
</g>
<g >
</g>
<g >
</g>
<g >
</g>
<g >
</g>
</g> 
</svg>
