<?xml version="1.0" encoding="utf-8"?>
<!-- Generator: Adobe Illustrator 24.0.2, SVG Export Plug-In . SVG Version: 6.00 Build 0)  -->
<svg version="1.1" id="Layer_1" xmlns="http://www.w3.org/2000/svg" xmlns:xlink="http://www.w3.org/1999/xlink" x="0px" y="0px"
	 viewBox="0 0 612 792" style="enable-background:new 0 0 612 792;" xml:space="preserve">
<style type="text/css">
	.st0{fill:none;stroke:#000000;stroke-miterlimit:10;}
</style>
<g>
	<path d="M263.5,497.1v1.4h-3.2v0c0.1,0.1,0.3,0.2,0.4,0.4s0.2,0.3,0.3,0.5s0.1,0.3,0.2,0.5s0.1,0.4,0.1,0.5c0,0.5-0.1,0.9-0.3,1.3
		c-0.2,0.4-0.4,0.7-0.7,0.9s-0.6,0.4-1,0.5s-0.8,0.2-1.3,0.2c-0.4,0-0.8,0-1.2-0.2c-0.4-0.1-0.7-0.3-1-0.5s-0.5-0.5-0.7-0.8
		c-0.2-0.3-0.3-0.7-0.3-1.2c0-0.2,0-0.4,0-0.6s0.1-0.4,0.2-0.6c0.1-0.2,0.2-0.4,0.3-0.5s0.3-0.3,0.5-0.4v0h-0.9v-1.3L263.5,497.1
		L263.5,497.1z M258,501.9c0.3,0,0.5,0,0.8-0.1s0.5-0.2,0.7-0.3s0.4-0.3,0.5-0.5s0.2-0.5,0.2-0.7c0-0.6-0.2-1-0.6-1.3
		c-0.4-0.3-0.9-0.4-1.6-0.4c-0.3,0-0.6,0-0.9,0.1c-0.3,0.1-0.5,0.2-0.7,0.3s-0.3,0.3-0.5,0.5c-0.1,0.2-0.2,0.5-0.2,0.7
		c0,0.3,0.1,0.6,0.2,0.8c0.1,0.2,0.3,0.4,0.5,0.5c0.2,0.1,0.4,0.2,0.7,0.3C257.5,501.9,257.8,501.9,258,501.9z"/>
	<path d="M261.1,504.4v1.4h-6.2v-1.4H261.1z M263.5,504.4v1.4h-1.3v-1.4H263.5z"/>
	<path d="M254.8,510.1c0-0.5,0.1-0.9,0.2-1.3s0.4-0.7,0.7-1c0.3-0.3,0.6-0.5,1-0.6c0.4-0.1,0.8-0.2,1.3-0.2c0.5,0,0.9,0.1,1.3,0.2
		c0.4,0.1,0.7,0.3,1,0.6s0.5,0.6,0.7,1s0.2,0.8,0.2,1.3s-0.1,0.9-0.2,1.3c-0.2,0.4-0.4,0.7-0.7,1c-0.3,0.3-0.6,0.5-1,0.6
		s-0.8,0.2-1.3,0.2c-0.5,0-0.9-0.1-1.3-0.2s-0.7-0.3-1-0.6c-0.3-0.3-0.5-0.6-0.7-1C254.8,511.1,254.8,510.6,254.8,510.1z
		 M255.8,510.1c0,0.3,0.1,0.6,0.2,0.8s0.3,0.4,0.5,0.5c0.2,0.1,0.4,0.2,0.7,0.3s0.5,0.1,0.8,0.1c0.3,0,0.5,0,0.8-0.1
		s0.5-0.2,0.7-0.3c0.2-0.1,0.4-0.3,0.5-0.5s0.2-0.5,0.2-0.8c0-0.3-0.1-0.6-0.2-0.8s-0.3-0.4-0.5-0.5c-0.2-0.1-0.4-0.2-0.7-0.3
		s-0.5-0.1-0.8-0.1c-0.3,0-0.5,0-0.8,0.1c-0.3,0.1-0.5,0.2-0.7,0.3c-0.2,0.1-0.4,0.3-0.5,0.5S255.8,509.8,255.8,510.1z"/>
	<path d="M261.1,514.4v1.3h-0.9v0c0.1,0.1,0.3,0.2,0.4,0.3s0.2,0.2,0.3,0.4c0.1,0.2,0.2,0.3,0.2,0.5s0.1,0.4,0.1,0.7
		c0,0.4-0.1,0.7-0.2,1s-0.4,0.5-0.8,0.7c0.3,0.2,0.6,0.5,0.8,0.8c0.2,0.3,0.3,0.7,0.3,1.1c0,0.7-0.2,1.2-0.5,1.5
		c-0.3,0.4-0.9,0.5-1.6,0.5h-4.3V522h3.6c0.2,0,0.5,0,0.7,0c0.2,0,0.4-0.1,0.5-0.1s0.3-0.2,0.3-0.3s0.1-0.4,0.1-0.6
		c0-0.5-0.1-0.8-0.4-1s-0.7-0.3-1.2-0.3h-3.6v-1.4h4c0.4,0,0.8-0.1,1-0.2s0.3-0.4,0.3-0.9c0-0.2,0-0.3-0.1-0.5
		c-0.1-0.2-0.2-0.3-0.3-0.4s-0.3-0.2-0.5-0.3s-0.4-0.1-0.7-0.1H255v-1.4L261.1,514.4L261.1,514.4z"/>
	<path d="M257.7,525.9c-0.2,0-0.5,0-0.7,0.1c-0.2,0.1-0.4,0.2-0.6,0.3s-0.3,0.3-0.4,0.5s-0.1,0.5-0.1,0.7c0,0.4,0.1,0.7,0.3,1
		s0.4,0.4,0.8,0.5v1.3c-0.3-0.1-0.6-0.2-0.9-0.4c-0.3-0.2-0.5-0.4-0.7-0.6s-0.3-0.5-0.4-0.8c-0.1-0.3-0.1-0.6-0.1-1
		c0-0.5,0.1-0.9,0.2-1.3s0.4-0.7,0.7-1s0.6-0.5,1-0.6s0.8-0.2,1.3-0.2c0.4,0,0.9,0.1,1.2,0.2c0.4,0.1,0.7,0.3,1,0.6
		c0.3,0.3,0.5,0.6,0.7,0.9c0.2,0.4,0.3,0.8,0.3,1.2c0,0.5-0.1,0.9-0.3,1.3c-0.2,0.4-0.5,0.7-0.8,1s-0.7,0.4-1.2,0.6
		s-0.9,0.2-1.4,0.1L257.7,525.9L257.7,525.9z M258.6,529.1c0.2,0,0.4-0.1,0.6-0.1c0.2-0.1,0.4-0.2,0.5-0.3s0.3-0.3,0.4-0.5
		s0.1-0.4,0.1-0.6c0-0.2,0-0.5-0.1-0.7c-0.1-0.2-0.2-0.4-0.4-0.5s-0.3-0.2-0.5-0.3s-0.4-0.1-0.6-0.1L258.6,529.1L258.6,529.1z"/>
	<path d="M261.1,530.9v1h1.9v1.4h-1.9v1.2h-1v-1.2h-3.3c-0.1,0-0.3,0-0.4,0s-0.2,0-0.3,0.1c-0.1,0-0.1,0.1-0.2,0.2s-0.1,0.2-0.1,0.4
		c0,0.1,0,0.2,0,0.3c0,0.1,0,0.2,0,0.3H255c0-0.2,0-0.3-0.1-0.4s0-0.3,0-0.4c0-0.4,0-0.7,0.1-0.9s0.2-0.4,0.3-0.5s0.3-0.2,0.5-0.2
		s0.4-0.1,0.7-0.1h3.7v-1L261.1,530.9L261.1,530.9z"/>
	<path d="M261.1,535.5v1.3h-1.2v0c0.2,0,0.3,0.1,0.5,0.2c0.2,0.1,0.3,0.3,0.4,0.4s0.2,0.3,0.3,0.5c0.1,0.2,0.1,0.4,0.1,0.6
		c0,0.2,0,0.3,0,0.3s0,0.1,0,0.2h-1.3c0-0.1,0-0.2,0-0.3s0-0.2,0-0.3c0-0.2,0-0.5-0.1-0.7c-0.1-0.2-0.2-0.4-0.4-0.5
		s-0.4-0.3-0.7-0.4c-0.3-0.1-0.6-0.1-0.9-0.1h-2.9v-1.4L261.1,535.5L261.1,535.5z"/>
	<path d="M261.1,539.8v1.4h-6.2v-1.4H261.1z M263.5,539.8v1.4h-1.3v-1.4H263.5z"/>
	<path d="M259.1,546.8c0.4-0.1,0.7-0.2,0.9-0.5c0.2-0.2,0.3-0.6,0.3-1c0-0.2,0-0.4-0.1-0.6s-0.2-0.4-0.3-0.5s-0.4-0.3-0.7-0.4
		c-0.3-0.1-0.7-0.2-1.1-0.2c-0.3,0-0.5,0-0.8,0.1c-0.3,0.1-0.5,0.2-0.7,0.3s-0.4,0.3-0.5,0.5s-0.2,0.5-0.2,0.8c0,0.4,0.1,0.7,0.4,1
		s0.6,0.4,1,0.5v1.4c-0.8-0.1-1.4-0.4-1.9-0.9c-0.4-0.5-0.6-1.1-0.6-1.9c0-0.5,0.1-0.9,0.2-1.3s0.4-0.7,0.7-0.9
		c0.3-0.3,0.6-0.5,1-0.6s0.8-0.2,1.3-0.2c0.5,0,0.9,0.1,1.3,0.2s0.8,0.3,1.1,0.6s0.5,0.6,0.7,1c0.2,0.4,0.3,0.8,0.3,1.3
		c0,0.4,0,0.7-0.1,1c-0.1,0.3-0.2,0.6-0.4,0.9s-0.4,0.5-0.7,0.6s-0.6,0.3-1,0.3L259.1,546.8L259.1,546.8z"/>
	<path d="M256.9,550.3c-0.4,0-0.7,0.2-0.8,0.5c-0.2,0.3-0.2,0.6-0.2,1c0,0.1,0,0.3,0,0.4c0,0.2,0.1,0.3,0.1,0.5
		c0.1,0.1,0.1,0.3,0.2,0.3c0.1,0.1,0.2,0.1,0.4,0.1c0.2,0,0.3-0.1,0.4-0.2s0.2-0.3,0.3-0.5c0.1-0.2,0.1-0.4,0.2-0.6
		c0-0.2,0.1-0.5,0.2-0.7c0.1-0.3,0.1-0.5,0.2-0.7c0.1-0.2,0.2-0.5,0.3-0.6c0.1-0.2,0.3-0.3,0.5-0.5s0.5-0.2,0.8-0.2
		c0.3,0,0.6,0.1,0.9,0.2c0.2,0.2,0.4,0.4,0.5,0.6c0.1,0.2,0.2,0.5,0.3,0.8s0.1,0.6,0.1,0.9c0,0.3,0,0.6-0.1,0.9s-0.2,0.6-0.3,0.8
		c-0.1,0.2-0.4,0.4-0.6,0.6c-0.2,0.2-0.5,0.2-0.9,0.3v-1.4c0.3-0.1,0.5-0.2,0.7-0.5c0.1-0.2,0.2-0.5,0.2-0.8c0-0.1,0-0.2,0-0.3
		c0-0.1,0-0.3-0.1-0.4s-0.1-0.2-0.2-0.3s-0.2-0.1-0.3-0.1c-0.2,0-0.3,0.1-0.4,0.2c-0.1,0.1-0.2,0.3-0.3,0.5s-0.1,0.4-0.2,0.6
		c0,0.2-0.1,0.5-0.2,0.7s-0.1,0.5-0.2,0.7s-0.2,0.5-0.3,0.6c-0.1,0.2-0.3,0.3-0.5,0.5s-0.5,0.2-0.8,0.2c-0.4,0-0.7-0.1-0.9-0.2
		s-0.5-0.4-0.6-0.7c-0.2-0.3-0.3-0.6-0.4-0.9c-0.1-0.3-0.1-0.7-0.1-1c0-0.4,0-0.8,0.1-1.1s0.2-0.6,0.4-0.9s0.4-0.4,0.7-0.6
		c0.3-0.1,0.6-0.2,1-0.2L256.9,550.3L256.9,550.3z"/>
	<path d="M256.5,555.6v1.7h-1.6v-1.7H256.5z"/>
	<path d="M254.9,564.7v-1.3h0.8v0c-0.4-0.2-0.6-0.5-0.8-0.8c-0.2-0.3-0.2-0.7-0.2-1.1c0-0.5,0.1-0.9,0.3-1.3s0.4-0.7,0.7-0.9
		c0.3-0.2,0.6-0.4,1-0.5s0.8-0.2,1.3-0.2c0.6,0,1,0.1,1.5,0.2c0.4,0.2,0.7,0.3,1,0.6c0.3,0.2,0.5,0.5,0.6,0.9s0.2,0.7,0.2,1
		c0,0.2,0,0.4,0,0.6c0,0.2-0.1,0.4-0.2,0.6c-0.1,0.2-0.2,0.3-0.3,0.5s-0.3,0.3-0.4,0.4v0h3.2v1.4L254.9,564.7L254.9,564.7z
		 M258,559.9c-0.3,0-0.5,0-0.8,0.1c-0.3,0.1-0.5,0.2-0.7,0.3c-0.2,0.1-0.4,0.3-0.5,0.5s-0.2,0.5-0.2,0.8c0,0.3,0.1,0.6,0.2,0.8
		s0.3,0.4,0.5,0.5c0.2,0.1,0.4,0.2,0.7,0.3s0.5,0.1,0.8,0.1c0.7,0,1.2-0.2,1.6-0.5s0.6-0.7,0.6-1.2c0-0.3-0.1-0.6-0.2-0.8
		s-0.3-0.4-0.5-0.5c-0.2-0.1-0.5-0.2-0.7-0.3S258.2,559.9,258,559.9z"/>
	<path d="M256.3,571.4c-0.2,0-0.3,0-0.4,0.1c-0.1,0-0.1,0.1-0.1,0.3c0,0,0,0.1,0,0.1c0,0.1,0,0.1,0,0.2h-0.9c0,0,0-0.1-0.1-0.2
		s0-0.2-0.1-0.2c0-0.1,0-0.2,0-0.2s0-0.2,0-0.2c0-0.3,0.1-0.5,0.2-0.7c0.1-0.2,0.3-0.3,0.6-0.4c-0.3-0.3-0.5-0.6-0.6-1
		c-0.1-0.4-0.2-0.8-0.2-1.2c0-0.3,0-0.5,0.1-0.8c0.1-0.3,0.2-0.5,0.3-0.7s0.3-0.3,0.6-0.5c0.2-0.1,0.5-0.2,0.8-0.2
		c0.4,0,0.7,0.1,0.9,0.2s0.4,0.3,0.6,0.5c0.1,0.2,0.2,0.5,0.3,0.8c0.1,0.3,0.1,0.6,0.1,0.9c0,0.2,0.1,0.5,0.1,0.7
		c0,0.2,0,0.4,0.1,0.6s0.1,0.3,0.2,0.4s0.2,0.2,0.5,0.2c0.2,0,0.3,0,0.4-0.1s0.2-0.2,0.3-0.3s0.1-0.3,0.1-0.4c0-0.2,0-0.3,0-0.4
		c0-0.4-0.1-0.7-0.2-1s-0.4-0.4-0.7-0.4v-1.4c0.4,0,0.7,0.1,1,0.3c0.3,0.2,0.5,0.4,0.6,0.6s0.3,0.5,0.3,0.9c0.1,0.3,0.1,0.7,0.1,1
		c0,0.3,0,0.6-0.1,0.9c-0.1,0.3-0.2,0.6-0.3,0.8c-0.1,0.2-0.3,0.4-0.6,0.6s-0.5,0.2-0.8,0.2L256.3,571.4L256.3,571.4z M258,570
		c-0.1-0.2-0.2-0.5-0.2-0.8c0-0.3-0.1-0.6-0.1-0.9c0-0.1-0.1-0.3-0.1-0.4s-0.1-0.3-0.2-0.4s-0.2-0.2-0.3-0.2s-0.3-0.1-0.5-0.1
		c-0.1,0-0.3,0-0.4,0.1s-0.2,0.2-0.2,0.3c-0.1,0.1-0.1,0.3-0.1,0.4c0,0.2,0,0.3,0,0.4c0,0.2,0,0.3,0.1,0.5s0.1,0.3,0.2,0.5
		c0.1,0.2,0.2,0.3,0.4,0.4c0.1,0.1,0.3,0.2,0.5,0.2H258z"/>
	<path d="M261.1,572.9v1.3h-0.9l0,0c0.3,0.2,0.6,0.5,0.8,0.8s0.3,0.7,0.3,1.1c0,0.7-0.2,1.2-0.5,1.6s-0.9,0.6-1.6,0.6h-4.3V577h3.9
		c0.5,0,0.8-0.1,1.1-0.3s0.3-0.5,0.3-0.9c0-0.2,0-0.4-0.1-0.6c-0.1-0.2-0.2-0.3-0.4-0.5c-0.1-0.1-0.3-0.2-0.5-0.3s-0.4-0.1-0.6-0.1
		h-3.7v-1.4L261.1,572.9L261.1,572.9z"/>
	<path d="M261.1,579.8v1.4h-6.2v-1.4H261.1z M263.5,579.8v1.4h-1.3v-1.4H263.5z"/>
	<path d="M257.7,583.7c-0.2,0-0.5,0-0.7,0.1s-0.4,0.2-0.6,0.3c-0.2,0.1-0.3,0.3-0.4,0.5s-0.1,0.5-0.1,0.7c0,0.4,0.1,0.7,0.3,1
		s0.4,0.4,0.8,0.5v1.3c-0.3-0.1-0.6-0.2-0.9-0.4s-0.5-0.4-0.7-0.6s-0.3-0.5-0.4-0.8c-0.1-0.3-0.1-0.6-0.1-1c0-0.5,0.1-0.9,0.2-1.3
		s0.4-0.7,0.7-1s0.6-0.5,1-0.6s0.8-0.2,1.3-0.2c0.4,0,0.9,0.1,1.2,0.2c0.4,0.1,0.7,0.3,1,0.6c0.3,0.3,0.5,0.6,0.7,0.9
		c0.2,0.4,0.3,0.8,0.3,1.2c0,0.5-0.1,0.9-0.3,1.3c-0.2,0.4-0.5,0.7-0.8,1c-0.3,0.3-0.7,0.4-1.2,0.6s-0.9,0.2-1.4,0.1L257.7,583.7
		L257.7,583.7z M258.6,586.9c0.2,0,0.4-0.1,0.6-0.1c0.2-0.1,0.4-0.2,0.5-0.3s0.3-0.3,0.4-0.5s0.1-0.4,0.1-0.6c0-0.2,0-0.5-0.1-0.7
		s-0.2-0.4-0.4-0.5s-0.3-0.2-0.5-0.3s-0.4-0.1-0.6-0.1L258.6,586.9L258.6,586.9z"/>
	<path d="M263.5,589.4v1.4h-8.6v-1.4H263.5z"/>
	<path d="M256.9,593.2c-0.4,0-0.7,0.2-0.8,0.5c-0.2,0.3-0.2,0.6-0.2,1c0,0.1,0,0.3,0,0.4c0,0.2,0.1,0.3,0.1,0.5
		c0.1,0.1,0.1,0.3,0.2,0.3c0.1,0.1,0.2,0.1,0.4,0.1c0.2,0,0.3-0.1,0.4-0.2s0.2-0.3,0.3-0.5c0.1-0.2,0.1-0.4,0.2-0.6
		c0-0.2,0.1-0.5,0.2-0.7c0.1-0.3,0.1-0.5,0.2-0.7c0.1-0.2,0.2-0.5,0.3-0.6c0.1-0.2,0.3-0.3,0.5-0.5s0.5-0.2,0.8-0.2
		c0.3,0,0.6,0.1,0.9,0.2c0.2,0.2,0.4,0.4,0.5,0.6c0.1,0.2,0.2,0.5,0.3,0.8c0.1,0.3,0.1,0.6,0.1,0.9c0,0.3,0,0.6-0.1,0.9
		s-0.2,0.6-0.3,0.8c-0.1,0.2-0.4,0.4-0.6,0.6s-0.5,0.2-0.9,0.3v-1.4c0.3-0.1,0.5-0.2,0.7-0.5s0.2-0.5,0.2-0.8c0-0.1,0-0.2,0-0.3
		c0-0.1,0-0.3-0.1-0.4c0-0.1-0.1-0.2-0.2-0.3s-0.2-0.1-0.3-0.1c-0.2,0-0.3,0.1-0.4,0.2c-0.1,0.1-0.2,0.3-0.3,0.5s-0.1,0.4-0.2,0.6
		c0,0.2-0.1,0.5-0.2,0.7s-0.1,0.5-0.2,0.7c-0.1,0.2-0.2,0.5-0.3,0.6c-0.1,0.2-0.3,0.3-0.5,0.5s-0.5,0.2-0.8,0.2
		c-0.4,0-0.7-0.1-0.9-0.2s-0.5-0.4-0.6-0.7c-0.2-0.3-0.3-0.6-0.4-0.9c-0.1-0.3-0.1-0.7-0.1-1c0-0.4,0-0.8,0.1-1.1s0.2-0.6,0.4-0.9
		s0.4-0.4,0.7-0.6c0.3-0.1,0.6-0.2,1-0.2L256.9,593.2L256.9,593.2z"/>
	<path d="M261.1,597.8v1h1.9v1.4h-1.9v1.2h-1v-1.2h-3.3c-0.1,0-0.3,0-0.4,0s-0.2,0-0.3,0.1c-0.1,0-0.1,0.1-0.2,0.2s-0.1,0.2-0.1,0.4
		c0,0.1,0,0.2,0,0.3c0,0.1,0,0.2,0,0.3H255c0-0.2,0-0.3-0.1-0.4s0-0.3,0-0.4c0-0.4,0-0.7,0.1-0.9s0.2-0.4,0.3-0.5s0.3-0.2,0.5-0.2
		s0.4-0.1,0.7-0.1h3.7v-1L261.1,597.8L261.1,597.8z"/>
	<path d="M261.1,602.4v1.3h-1.2v0c0.2,0,0.3,0.1,0.5,0.2s0.3,0.3,0.4,0.4s0.2,0.3,0.3,0.5s0.1,0.4,0.1,0.6c0,0.2,0,0.3,0,0.3
		s0,0.1,0,0.2h-1.3c0-0.1,0-0.2,0-0.3s0-0.2,0-0.3c0-0.2,0-0.5-0.1-0.7c-0.1-0.2-0.2-0.4-0.4-0.5s-0.4-0.3-0.7-0.4
		c-0.3-0.1-0.6-0.1-0.9-0.1h-2.9v-1.4L261.1,602.4L261.1,602.4z"/>
	<path d="M256.3,611.9c-0.2,0-0.3,0-0.4,0.1c-0.1,0-0.1,0.1-0.1,0.3c0,0,0,0.1,0,0.1s0,0.1,0,0.2h-0.9c0,0,0-0.1-0.1-0.2
		s0-0.2-0.1-0.2c0-0.1,0-0.2,0-0.2s0-0.2,0-0.2c0-0.3,0.1-0.5,0.2-0.7s0.3-0.3,0.6-0.4c-0.3-0.3-0.5-0.6-0.6-1
		c-0.1-0.4-0.2-0.8-0.2-1.2c0-0.3,0-0.5,0.1-0.8c0.1-0.3,0.2-0.5,0.3-0.7s0.3-0.3,0.6-0.5c0.2-0.1,0.5-0.2,0.8-0.2
		c0.4,0,0.7,0.1,0.9,0.2s0.4,0.3,0.6,0.5c0.1,0.2,0.2,0.5,0.3,0.8c0.1,0.3,0.1,0.6,0.1,0.9c0,0.2,0.1,0.5,0.1,0.7
		c0,0.2,0,0.4,0.1,0.6c0,0.2,0.1,0.3,0.2,0.4s0.2,0.2,0.5,0.2c0.2,0,0.3,0,0.4-0.1s0.2-0.2,0.3-0.3s0.1-0.3,0.1-0.4
		c0-0.2,0-0.3,0-0.4c0-0.4-0.1-0.7-0.2-1s-0.4-0.4-0.7-0.4v-1.4c0.4,0,0.7,0.1,1,0.3c0.3,0.2,0.5,0.4,0.6,0.6s0.3,0.5,0.3,0.9
		c0.1,0.3,0.1,0.7,0.1,1c0,0.3,0,0.6-0.1,0.9c-0.1,0.3-0.2,0.6-0.3,0.8c-0.1,0.2-0.3,0.4-0.6,0.6s-0.5,0.2-0.8,0.2L256.3,611.9
		L256.3,611.9z M258,610.5c-0.1-0.2-0.2-0.5-0.2-0.8c0-0.3-0.1-0.6-0.1-0.9c0-0.1-0.1-0.3-0.1-0.4c0-0.1-0.1-0.3-0.2-0.4
		s-0.2-0.2-0.3-0.2s-0.3-0.1-0.5-0.1c-0.1,0-0.3,0-0.4,0.1s-0.2,0.2-0.2,0.3c-0.1,0.1-0.1,0.3-0.1,0.4c0,0.2,0,0.3,0,0.4
		c0,0.2,0,0.3,0.1,0.5s0.1,0.3,0.2,0.5c0.1,0.2,0.2,0.3,0.4,0.4c0.1,0.1,0.3,0.2,0.5,0.2H258z"/>
	<path d="M263.5,613.4v1.4h-3.2v0c0.1,0.1,0.3,0.2,0.4,0.3c0.1,0.1,0.2,0.3,0.3,0.5s0.1,0.3,0.2,0.5s0.1,0.4,0.1,0.5
		c0,0.5-0.1,0.9-0.3,1.3c-0.2,0.4-0.4,0.7-0.7,0.9s-0.6,0.4-1,0.5s-0.8,0.2-1.3,0.2c-0.4,0-0.8,0-1.2-0.2c-0.4-0.1-0.7-0.3-1-0.5
		s-0.5-0.5-0.7-0.8c-0.2-0.3-0.3-0.7-0.3-1.2c0-0.2,0-0.4,0-0.6s0.1-0.4,0.2-0.6c0.1-0.2,0.2-0.4,0.3-0.5s0.3-0.3,0.5-0.4v0h-0.9
		v-1.3L263.5,613.4L263.5,613.4z M258,618.2c0.3,0,0.5,0,0.8-0.1s0.5-0.2,0.7-0.3s0.4-0.3,0.5-0.5s0.2-0.5,0.2-0.7
		c0-0.6-0.2-1-0.6-1.3s-0.9-0.4-1.6-0.4c-0.3,0-0.6,0-0.9,0.1c-0.3,0.1-0.5,0.2-0.7,0.3s-0.3,0.3-0.5,0.5s-0.2,0.5-0.2,0.7
		c0,0.3,0.1,0.6,0.2,0.8c0.1,0.2,0.3,0.4,0.5,0.5c0.2,0.1,0.4,0.2,0.7,0.3C257.5,618.1,257.8,618.2,258,618.2z"/>
	<path d="M263.5,620.7v1.4h-8.6v-1.4H263.5z"/>
	<path d="M257.7,624.6c-0.2,0-0.5,0-0.7,0.1c-0.2,0.1-0.4,0.2-0.6,0.3c-0.2,0.1-0.3,0.3-0.4,0.5s-0.1,0.5-0.1,0.7
		c0,0.4,0.1,0.7,0.3,1s0.4,0.4,0.8,0.5v1.3c-0.3-0.1-0.6-0.2-0.9-0.4c-0.3-0.2-0.5-0.4-0.7-0.6s-0.3-0.5-0.4-0.8s-0.1-0.6-0.1-1
		c0-0.5,0.1-0.9,0.2-1.3s0.4-0.7,0.7-1s0.6-0.5,1-0.6s0.8-0.2,1.3-0.2c0.4,0,0.9,0.1,1.2,0.2c0.4,0.1,0.7,0.3,1,0.6
		c0.3,0.3,0.5,0.6,0.7,0.9c0.2,0.4,0.3,0.8,0.3,1.2c0,0.5-0.1,0.9-0.3,1.3c-0.2,0.4-0.5,0.7-0.8,1s-0.7,0.4-1.2,0.6
		s-0.9,0.2-1.4,0.1L257.7,624.6L257.7,624.6z M258.6,627.8c0.2,0,0.4-0.1,0.6-0.1c0.2-0.1,0.4-0.2,0.5-0.3s0.3-0.3,0.4-0.5
		s0.1-0.4,0.1-0.6c0-0.2,0-0.5-0.1-0.7c-0.1-0.2-0.2-0.4-0.4-0.5s-0.3-0.2-0.5-0.3s-0.4-0.1-0.6-0.1L258.6,627.8L258.6,627.8z"/>
	<path d="M261.1,629.5v1.5l-4.6,1.6v0l4.6,1.6v1.4l-6.5-2.4c-0.3-0.1-0.6-0.2-0.8-0.3c-0.3-0.1-0.5-0.2-0.7-0.4
		c-0.2-0.2-0.4-0.3-0.5-0.6s-0.2-0.5-0.2-0.9c0-0.3,0-0.6,0.1-1h1.1c0,0.1,0,0.2-0.1,0.3c0,0.1,0,0.2,0,0.3c0,0.2,0,0.3,0.1,0.4
		c0,0.1,0.1,0.2,0.2,0.3c0.1,0.1,0.2,0.1,0.3,0.2c0.1,0,0.2,0.1,0.4,0.1l0.5,0.2L261.1,629.5z"/>
	<path d="M256.5,635.5v1.7h-1.6v-1.7H256.5z"/>
	<path d="M259.1,642.9c0.4-0.1,0.7-0.2,0.9-0.5s0.3-0.6,0.3-1c0-0.2,0-0.4-0.1-0.6s-0.2-0.4-0.3-0.5s-0.4-0.3-0.7-0.4
		s-0.7-0.2-1.1-0.2c-0.3,0-0.5,0-0.8,0.1c-0.3,0.1-0.5,0.2-0.7,0.3s-0.4,0.3-0.5,0.5s-0.2,0.5-0.2,0.8c0,0.4,0.1,0.7,0.4,1
		s0.6,0.4,1,0.5v1.4c-0.8-0.1-1.4-0.4-1.9-0.9c-0.4-0.5-0.6-1.1-0.6-1.9c0-0.5,0.1-0.9,0.2-1.3s0.4-0.7,0.7-0.9s0.6-0.5,1-0.6
		s0.8-0.2,1.3-0.2c0.5,0,0.9,0.1,1.3,0.2s0.8,0.3,1.1,0.6s0.5,0.6,0.7,1c0.2,0.4,0.3,0.8,0.3,1.3c0,0.4,0,0.7-0.1,1
		c-0.1,0.3-0.2,0.6-0.4,0.9s-0.4,0.5-0.7,0.6s-0.6,0.3-1,0.3L259.1,642.9L259.1,642.9z"/>
	<path d="M254.8,648.2c0-0.5,0.1-0.9,0.2-1.3c0.2-0.4,0.4-0.7,0.7-1s0.6-0.5,1-0.6c0.4-0.1,0.8-0.2,1.3-0.2c0.5,0,0.9,0.1,1.3,0.2
		s0.7,0.3,1,0.6s0.5,0.6,0.7,1c0.2,0.4,0.2,0.8,0.2,1.3s-0.1,0.9-0.2,1.3c-0.2,0.4-0.4,0.7-0.7,1c-0.3,0.3-0.6,0.5-1,0.6
		s-0.8,0.2-1.3,0.2c-0.5,0-0.9-0.1-1.3-0.2s-0.7-0.3-1-0.6c-0.3-0.3-0.5-0.6-0.7-1C254.8,649.2,254.8,648.7,254.8,648.2z
		 M255.8,648.2c0,0.3,0.1,0.6,0.2,0.8s0.3,0.4,0.5,0.5c0.2,0.1,0.4,0.2,0.7,0.3s0.5,0.1,0.8,0.1c0.3,0,0.5,0,0.8-0.1
		c0.3-0.1,0.5-0.2,0.7-0.3c0.2-0.1,0.4-0.3,0.5-0.5s0.2-0.5,0.2-0.8s-0.1-0.6-0.2-0.8s-0.3-0.4-0.5-0.5c-0.2-0.1-0.4-0.2-0.7-0.3
		s-0.5-0.1-0.8-0.1c-0.3,0-0.5,0-0.8,0.1c-0.3,0.1-0.5,0.2-0.7,0.3c-0.2,0.1-0.4,0.3-0.5,0.5S255.8,647.9,255.8,648.2z"/>
	<path d="M261.1,652.5v1.3h-0.9v0c0.1,0.1,0.3,0.2,0.4,0.3s0.2,0.2,0.3,0.4c0.1,0.2,0.2,0.3,0.2,0.5s0.1,0.4,0.1,0.7
		c0,0.4-0.1,0.7-0.2,1s-0.4,0.5-0.8,0.7c0.3,0.2,0.6,0.5,0.8,0.8c0.2,0.3,0.3,0.7,0.3,1.1c0,0.7-0.2,1.2-0.5,1.5
		c-0.3,0.4-0.9,0.5-1.6,0.5h-4.3v-1.4h3.6c0.2,0,0.5,0,0.7,0c0.2,0,0.4-0.1,0.5-0.1s0.3-0.2,0.3-0.3s0.1-0.4,0.1-0.6
		c0-0.5-0.1-0.8-0.4-1s-0.7-0.3-1.2-0.3h-3.6v-1.4h4c0.4,0,0.8-0.1,1-0.2c0.2-0.2,0.3-0.4,0.3-0.9c0-0.2,0-0.3-0.1-0.5
		c-0.1-0.2-0.2-0.3-0.3-0.4s-0.3-0.2-0.5-0.3s-0.4-0.1-0.7-0.1H255v-1.4L261.1,652.5L261.1,652.5z"/>
</g>
<rect x="216.9" y="344.9" class="st0" width="283.5" height="354.3"/>
</svg>
