%TF.GenerationSoftware,KiCad,Pcbnew,7.0.5-0*%
%TF.CreationDate,2023-07-22T21:58:15-05:00*%
%TF.ProjectId,biometrics,62696f6d-6574-4726-9963-732e6b696361,rev?*%
%TF.SameCoordinates,Original*%
%TF.FileFunction,Legend,Top*%
%TF.FilePolarity,Positive*%
%FSLAX46Y46*%
G04 Gerber Fmt 4.6, Leading zero omitted, Abs format (unit mm)*
G04 Created by KiCad (PCBNEW 7.0.5-0) date 2023-07-22 21:58:15*
%MOMM*%
%LPD*%
G01*
G04 APERTURE LIST*
%ADD10C,0.150000*%
G04 APERTURE END LIST*
D10*
X97633342Y-107255601D02*
X96433342Y-107255601D01*
X97004771Y-107255601D02*
X97004771Y-106569887D01*
X97633342Y-106569887D02*
X96433342Y-106569887D01*
X97576200Y-105541315D02*
X97633342Y-105655601D01*
X97633342Y-105655601D02*
X97633342Y-105884173D01*
X97633342Y-105884173D02*
X97576200Y-105998458D01*
X97576200Y-105998458D02*
X97461914Y-106055601D01*
X97461914Y-106055601D02*
X97004771Y-106055601D01*
X97004771Y-106055601D02*
X96890485Y-105998458D01*
X96890485Y-105998458D02*
X96833342Y-105884173D01*
X96833342Y-105884173D02*
X96833342Y-105655601D01*
X96833342Y-105655601D02*
X96890485Y-105541315D01*
X96890485Y-105541315D02*
X97004771Y-105484173D01*
X97004771Y-105484173D02*
X97119057Y-105484173D01*
X97119057Y-105484173D02*
X97233342Y-106055601D01*
X97633342Y-104798459D02*
X97576200Y-104912744D01*
X97576200Y-104912744D02*
X97461914Y-104969887D01*
X97461914Y-104969887D02*
X96433342Y-104969887D01*
X97633342Y-104169888D02*
X97576200Y-104284173D01*
X97576200Y-104284173D02*
X97461914Y-104341316D01*
X97461914Y-104341316D02*
X96433342Y-104341316D01*
X97633342Y-103541317D02*
X97576200Y-103655602D01*
X97576200Y-103655602D02*
X97519057Y-103712745D01*
X97519057Y-103712745D02*
X97404771Y-103769888D01*
X97404771Y-103769888D02*
X97061914Y-103769888D01*
X97061914Y-103769888D02*
X96947628Y-103712745D01*
X96947628Y-103712745D02*
X96890485Y-103655602D01*
X96890485Y-103655602D02*
X96833342Y-103541317D01*
X96833342Y-103541317D02*
X96833342Y-103369888D01*
X96833342Y-103369888D02*
X96890485Y-103255602D01*
X96890485Y-103255602D02*
X96947628Y-103198460D01*
X96947628Y-103198460D02*
X97061914Y-103141317D01*
X97061914Y-103141317D02*
X97404771Y-103141317D01*
X97404771Y-103141317D02*
X97519057Y-103198460D01*
X97519057Y-103198460D02*
X97576200Y-103255602D01*
X97576200Y-103255602D02*
X97633342Y-103369888D01*
X97633342Y-103369888D02*
X97633342Y-103541317D01*
X97519057Y-102627031D02*
X97576200Y-102569888D01*
X97576200Y-102569888D02*
X97633342Y-102627031D01*
X97633342Y-102627031D02*
X97576200Y-102684174D01*
X97576200Y-102684174D02*
X97519057Y-102627031D01*
X97519057Y-102627031D02*
X97633342Y-102627031D01*
X97519057Y-102055602D02*
X97576200Y-101998459D01*
X97576200Y-101998459D02*
X97633342Y-102055602D01*
X97633342Y-102055602D02*
X97576200Y-102112745D01*
X97576200Y-102112745D02*
X97519057Y-102055602D01*
X97519057Y-102055602D02*
X97633342Y-102055602D01*
X97519057Y-101484173D02*
X97576200Y-101427030D01*
X97576200Y-101427030D02*
X97633342Y-101484173D01*
X97633342Y-101484173D02*
X97576200Y-101541316D01*
X97576200Y-101541316D02*
X97519057Y-101484173D01*
X97519057Y-101484173D02*
X97633342Y-101484173D01*
X97633342Y-99998458D02*
X96833342Y-99998458D01*
X96433342Y-99998458D02*
X96490485Y-100055601D01*
X96490485Y-100055601D02*
X96547628Y-99998458D01*
X96547628Y-99998458D02*
X96490485Y-99941315D01*
X96490485Y-99941315D02*
X96433342Y-99998458D01*
X96433342Y-99998458D02*
X96547628Y-99998458D01*
X96833342Y-99598458D02*
X96833342Y-99141315D01*
X97633342Y-99427029D02*
X96604771Y-99427029D01*
X96604771Y-99427029D02*
X96490485Y-99369886D01*
X96490485Y-99369886D02*
X96433342Y-99255601D01*
X96433342Y-99255601D02*
X96433342Y-99141315D01*
X96833342Y-97941315D02*
X97633342Y-97655601D01*
X96833342Y-97369886D02*
X97633342Y-97655601D01*
X97633342Y-97655601D02*
X97919057Y-97769886D01*
X97919057Y-97769886D02*
X97976200Y-97827029D01*
X97976200Y-97827029D02*
X98033342Y-97941315D01*
X97633342Y-96741315D02*
X97576200Y-96855600D01*
X97576200Y-96855600D02*
X97519057Y-96912743D01*
X97519057Y-96912743D02*
X97404771Y-96969886D01*
X97404771Y-96969886D02*
X97061914Y-96969886D01*
X97061914Y-96969886D02*
X96947628Y-96912743D01*
X96947628Y-96912743D02*
X96890485Y-96855600D01*
X96890485Y-96855600D02*
X96833342Y-96741315D01*
X96833342Y-96741315D02*
X96833342Y-96569886D01*
X96833342Y-96569886D02*
X96890485Y-96455600D01*
X96890485Y-96455600D02*
X96947628Y-96398458D01*
X96947628Y-96398458D02*
X97061914Y-96341315D01*
X97061914Y-96341315D02*
X97404771Y-96341315D01*
X97404771Y-96341315D02*
X97519057Y-96398458D01*
X97519057Y-96398458D02*
X97576200Y-96455600D01*
X97576200Y-96455600D02*
X97633342Y-96569886D01*
X97633342Y-96569886D02*
X97633342Y-96741315D01*
X96833342Y-95312744D02*
X97633342Y-95312744D01*
X96833342Y-95827029D02*
X97461914Y-95827029D01*
X97461914Y-95827029D02*
X97576200Y-95769886D01*
X97576200Y-95769886D02*
X97633342Y-95655601D01*
X97633342Y-95655601D02*
X97633342Y-95484172D01*
X97633342Y-95484172D02*
X97576200Y-95369886D01*
X97576200Y-95369886D02*
X97519057Y-95312744D01*
X96433342Y-94684172D02*
X96661914Y-94798458D01*
X97633342Y-94169886D02*
X96833342Y-94169886D01*
X97061914Y-94169886D02*
X96947628Y-94112743D01*
X96947628Y-94112743D02*
X96890485Y-94055601D01*
X96890485Y-94055601D02*
X96833342Y-93941315D01*
X96833342Y-93941315D02*
X96833342Y-93827029D01*
X97576200Y-92969886D02*
X97633342Y-93084172D01*
X97633342Y-93084172D02*
X97633342Y-93312744D01*
X97633342Y-93312744D02*
X97576200Y-93427029D01*
X97576200Y-93427029D02*
X97461914Y-93484172D01*
X97461914Y-93484172D02*
X97004771Y-93484172D01*
X97004771Y-93484172D02*
X96890485Y-93427029D01*
X96890485Y-93427029D02*
X96833342Y-93312744D01*
X96833342Y-93312744D02*
X96833342Y-93084172D01*
X96833342Y-93084172D02*
X96890485Y-92969886D01*
X96890485Y-92969886D02*
X97004771Y-92912744D01*
X97004771Y-92912744D02*
X97119057Y-92912744D01*
X97119057Y-92912744D02*
X97233342Y-93484172D01*
X97576200Y-91541315D02*
X97633342Y-91427029D01*
X97633342Y-91427029D02*
X97633342Y-91198458D01*
X97633342Y-91198458D02*
X97576200Y-91084172D01*
X97576200Y-91084172D02*
X97461914Y-91027029D01*
X97461914Y-91027029D02*
X97404771Y-91027029D01*
X97404771Y-91027029D02*
X97290485Y-91084172D01*
X97290485Y-91084172D02*
X97233342Y-91198458D01*
X97233342Y-91198458D02*
X97233342Y-91369887D01*
X97233342Y-91369887D02*
X97176200Y-91484172D01*
X97176200Y-91484172D02*
X97061914Y-91541315D01*
X97061914Y-91541315D02*
X97004771Y-91541315D01*
X97004771Y-91541315D02*
X96890485Y-91484172D01*
X96890485Y-91484172D02*
X96833342Y-91369887D01*
X96833342Y-91369887D02*
X96833342Y-91198458D01*
X96833342Y-91198458D02*
X96890485Y-91084172D01*
X97576200Y-90055600D02*
X97633342Y-90169886D01*
X97633342Y-90169886D02*
X97633342Y-90398458D01*
X97633342Y-90398458D02*
X97576200Y-90512743D01*
X97576200Y-90512743D02*
X97461914Y-90569886D01*
X97461914Y-90569886D02*
X97004771Y-90569886D01*
X97004771Y-90569886D02*
X96890485Y-90512743D01*
X96890485Y-90512743D02*
X96833342Y-90398458D01*
X96833342Y-90398458D02*
X96833342Y-90169886D01*
X96833342Y-90169886D02*
X96890485Y-90055600D01*
X96890485Y-90055600D02*
X97004771Y-89998458D01*
X97004771Y-89998458D02*
X97119057Y-89998458D01*
X97119057Y-89998458D02*
X97233342Y-90569886D01*
X97576200Y-89027029D02*
X97633342Y-89141315D01*
X97633342Y-89141315D02*
X97633342Y-89369887D01*
X97633342Y-89369887D02*
X97576200Y-89484172D01*
X97576200Y-89484172D02*
X97461914Y-89541315D01*
X97461914Y-89541315D02*
X97004771Y-89541315D01*
X97004771Y-89541315D02*
X96890485Y-89484172D01*
X96890485Y-89484172D02*
X96833342Y-89369887D01*
X96833342Y-89369887D02*
X96833342Y-89141315D01*
X96833342Y-89141315D02*
X96890485Y-89027029D01*
X96890485Y-89027029D02*
X97004771Y-88969887D01*
X97004771Y-88969887D02*
X97119057Y-88969887D01*
X97119057Y-88969887D02*
X97233342Y-89541315D01*
X97633342Y-88455601D02*
X96833342Y-88455601D01*
X96433342Y-88455601D02*
X96490485Y-88512744D01*
X96490485Y-88512744D02*
X96547628Y-88455601D01*
X96547628Y-88455601D02*
X96490485Y-88398458D01*
X96490485Y-88398458D02*
X96433342Y-88455601D01*
X96433342Y-88455601D02*
X96547628Y-88455601D01*
X96833342Y-87884172D02*
X97633342Y-87884172D01*
X96947628Y-87884172D02*
X96890485Y-87827029D01*
X96890485Y-87827029D02*
X96833342Y-87712744D01*
X96833342Y-87712744D02*
X96833342Y-87541315D01*
X96833342Y-87541315D02*
X96890485Y-87427029D01*
X96890485Y-87427029D02*
X97004771Y-87369887D01*
X97004771Y-87369887D02*
X97633342Y-87369887D01*
X96833342Y-86284173D02*
X97804771Y-86284173D01*
X97804771Y-86284173D02*
X97919057Y-86341315D01*
X97919057Y-86341315D02*
X97976200Y-86398458D01*
X97976200Y-86398458D02*
X98033342Y-86512744D01*
X98033342Y-86512744D02*
X98033342Y-86684173D01*
X98033342Y-86684173D02*
X97976200Y-86798458D01*
X97576200Y-86284173D02*
X97633342Y-86398458D01*
X97633342Y-86398458D02*
X97633342Y-86627030D01*
X97633342Y-86627030D02*
X97576200Y-86741315D01*
X97576200Y-86741315D02*
X97519057Y-86798458D01*
X97519057Y-86798458D02*
X97404771Y-86855601D01*
X97404771Y-86855601D02*
X97061914Y-86855601D01*
X97061914Y-86855601D02*
X96947628Y-86798458D01*
X96947628Y-86798458D02*
X96890485Y-86741315D01*
X96890485Y-86741315D02*
X96833342Y-86627030D01*
X96833342Y-86627030D02*
X96833342Y-86398458D01*
X96833342Y-86398458D02*
X96890485Y-86284173D01*
X96833342Y-84969887D02*
X96833342Y-84512744D01*
X96433342Y-84798458D02*
X97461914Y-84798458D01*
X97461914Y-84798458D02*
X97576200Y-84741315D01*
X97576200Y-84741315D02*
X97633342Y-84627030D01*
X97633342Y-84627030D02*
X97633342Y-84512744D01*
X97633342Y-84112744D02*
X96433342Y-84112744D01*
X97633342Y-83598459D02*
X97004771Y-83598459D01*
X97004771Y-83598459D02*
X96890485Y-83655601D01*
X96890485Y-83655601D02*
X96833342Y-83769887D01*
X96833342Y-83769887D02*
X96833342Y-83941316D01*
X96833342Y-83941316D02*
X96890485Y-84055601D01*
X96890485Y-84055601D02*
X96947628Y-84112744D01*
X97633342Y-83027030D02*
X96833342Y-83027030D01*
X96433342Y-83027030D02*
X96490485Y-83084173D01*
X96490485Y-83084173D02*
X96547628Y-83027030D01*
X96547628Y-83027030D02*
X96490485Y-82969887D01*
X96490485Y-82969887D02*
X96433342Y-83027030D01*
X96433342Y-83027030D02*
X96547628Y-83027030D01*
X97576200Y-82512744D02*
X97633342Y-82398458D01*
X97633342Y-82398458D02*
X97633342Y-82169887D01*
X97633342Y-82169887D02*
X97576200Y-82055601D01*
X97576200Y-82055601D02*
X97461914Y-81998458D01*
X97461914Y-81998458D02*
X97404771Y-81998458D01*
X97404771Y-81998458D02*
X97290485Y-82055601D01*
X97290485Y-82055601D02*
X97233342Y-82169887D01*
X97233342Y-82169887D02*
X97233342Y-82341316D01*
X97233342Y-82341316D02*
X97176200Y-82455601D01*
X97176200Y-82455601D02*
X97061914Y-82512744D01*
X97061914Y-82512744D02*
X97004771Y-82512744D01*
X97004771Y-82512744D02*
X96890485Y-82455601D01*
X96890485Y-82455601D02*
X96833342Y-82341316D01*
X96833342Y-82341316D02*
X96833342Y-82169887D01*
X96833342Y-82169887D02*
X96890485Y-82055601D01*
X97576200Y-80627029D02*
X97633342Y-80512743D01*
X97633342Y-80512743D02*
X97633342Y-80284172D01*
X97633342Y-80284172D02*
X97576200Y-80169886D01*
X97576200Y-80169886D02*
X97461914Y-80112743D01*
X97461914Y-80112743D02*
X97404771Y-80112743D01*
X97404771Y-80112743D02*
X97290485Y-80169886D01*
X97290485Y-80169886D02*
X97233342Y-80284172D01*
X97233342Y-80284172D02*
X97233342Y-80455601D01*
X97233342Y-80455601D02*
X97176200Y-80569886D01*
X97176200Y-80569886D02*
X97061914Y-80627029D01*
X97061914Y-80627029D02*
X97004771Y-80627029D01*
X97004771Y-80627029D02*
X96890485Y-80569886D01*
X96890485Y-80569886D02*
X96833342Y-80455601D01*
X96833342Y-80455601D02*
X96833342Y-80284172D01*
X96833342Y-80284172D02*
X96890485Y-80169886D01*
X97633342Y-79598457D02*
X96833342Y-79598457D01*
X96433342Y-79598457D02*
X96490485Y-79655600D01*
X96490485Y-79655600D02*
X96547628Y-79598457D01*
X96547628Y-79598457D02*
X96490485Y-79541314D01*
X96490485Y-79541314D02*
X96433342Y-79598457D01*
X96433342Y-79598457D02*
X96547628Y-79598457D01*
X97633342Y-78512743D02*
X96433342Y-78512743D01*
X97576200Y-78512743D02*
X97633342Y-78627028D01*
X97633342Y-78627028D02*
X97633342Y-78855600D01*
X97633342Y-78855600D02*
X97576200Y-78969885D01*
X97576200Y-78969885D02*
X97519057Y-79027028D01*
X97519057Y-79027028D02*
X97404771Y-79084171D01*
X97404771Y-79084171D02*
X97061914Y-79084171D01*
X97061914Y-79084171D02*
X96947628Y-79027028D01*
X96947628Y-79027028D02*
X96890485Y-78969885D01*
X96890485Y-78969885D02*
X96833342Y-78855600D01*
X96833342Y-78855600D02*
X96833342Y-78627028D01*
X96833342Y-78627028D02*
X96890485Y-78512743D01*
X97576200Y-77484171D02*
X97633342Y-77598457D01*
X97633342Y-77598457D02*
X97633342Y-77827029D01*
X97633342Y-77827029D02*
X97576200Y-77941314D01*
X97576200Y-77941314D02*
X97461914Y-77998457D01*
X97461914Y-77998457D02*
X97004771Y-77998457D01*
X97004771Y-77998457D02*
X96890485Y-77941314D01*
X96890485Y-77941314D02*
X96833342Y-77827029D01*
X96833342Y-77827029D02*
X96833342Y-77598457D01*
X96833342Y-77598457D02*
X96890485Y-77484171D01*
X96890485Y-77484171D02*
X97004771Y-77427029D01*
X97004771Y-77427029D02*
X97119057Y-77427029D01*
X97119057Y-77427029D02*
X97233342Y-77998457D01*
X97633342Y-75827029D02*
X97576200Y-75941314D01*
X97576200Y-75941314D02*
X97519057Y-75998457D01*
X97519057Y-75998457D02*
X97404771Y-76055600D01*
X97404771Y-76055600D02*
X97061914Y-76055600D01*
X97061914Y-76055600D02*
X96947628Y-75998457D01*
X96947628Y-75998457D02*
X96890485Y-75941314D01*
X96890485Y-75941314D02*
X96833342Y-75827029D01*
X96833342Y-75827029D02*
X96833342Y-75655600D01*
X96833342Y-75655600D02*
X96890485Y-75541314D01*
X96890485Y-75541314D02*
X96947628Y-75484172D01*
X96947628Y-75484172D02*
X97061914Y-75427029D01*
X97061914Y-75427029D02*
X97404771Y-75427029D01*
X97404771Y-75427029D02*
X97519057Y-75484172D01*
X97519057Y-75484172D02*
X97576200Y-75541314D01*
X97576200Y-75541314D02*
X97633342Y-75655600D01*
X97633342Y-75655600D02*
X97633342Y-75827029D01*
X96833342Y-75084172D02*
X96833342Y-74627029D01*
X97633342Y-74912743D02*
X96604771Y-74912743D01*
X96604771Y-74912743D02*
X96490485Y-74855600D01*
X96490485Y-74855600D02*
X96433342Y-74741315D01*
X96433342Y-74741315D02*
X96433342Y-74627029D01*
X96833342Y-73484172D02*
X96833342Y-73027029D01*
X96433342Y-73312743D02*
X97461914Y-73312743D01*
X97461914Y-73312743D02*
X97576200Y-73255600D01*
X97576200Y-73255600D02*
X97633342Y-73141315D01*
X97633342Y-73141315D02*
X97633342Y-73027029D01*
X97633342Y-72627029D02*
X96433342Y-72627029D01*
X97633342Y-72112744D02*
X97004771Y-72112744D01*
X97004771Y-72112744D02*
X96890485Y-72169886D01*
X96890485Y-72169886D02*
X96833342Y-72284172D01*
X96833342Y-72284172D02*
X96833342Y-72455601D01*
X96833342Y-72455601D02*
X96890485Y-72569886D01*
X96890485Y-72569886D02*
X96947628Y-72627029D01*
X97576200Y-71084172D02*
X97633342Y-71198458D01*
X97633342Y-71198458D02*
X97633342Y-71427030D01*
X97633342Y-71427030D02*
X97576200Y-71541315D01*
X97576200Y-71541315D02*
X97461914Y-71598458D01*
X97461914Y-71598458D02*
X97004771Y-71598458D01*
X97004771Y-71598458D02*
X96890485Y-71541315D01*
X96890485Y-71541315D02*
X96833342Y-71427030D01*
X96833342Y-71427030D02*
X96833342Y-71198458D01*
X96833342Y-71198458D02*
X96890485Y-71084172D01*
X96890485Y-71084172D02*
X97004771Y-71027030D01*
X97004771Y-71027030D02*
X97119057Y-71027030D01*
X97119057Y-71027030D02*
X97233342Y-71598458D01*
X97633342Y-69598458D02*
X96433342Y-69598458D01*
X96890485Y-69598458D02*
X96833342Y-69484173D01*
X96833342Y-69484173D02*
X96833342Y-69255601D01*
X96833342Y-69255601D02*
X96890485Y-69141315D01*
X96890485Y-69141315D02*
X96947628Y-69084173D01*
X96947628Y-69084173D02*
X97061914Y-69027030D01*
X97061914Y-69027030D02*
X97404771Y-69027030D01*
X97404771Y-69027030D02*
X97519057Y-69084173D01*
X97519057Y-69084173D02*
X97576200Y-69141315D01*
X97576200Y-69141315D02*
X97633342Y-69255601D01*
X97633342Y-69255601D02*
X97633342Y-69484173D01*
X97633342Y-69484173D02*
X97576200Y-69598458D01*
X97633342Y-68341316D02*
X97576200Y-68455601D01*
X97576200Y-68455601D02*
X97519057Y-68512744D01*
X97519057Y-68512744D02*
X97404771Y-68569887D01*
X97404771Y-68569887D02*
X97061914Y-68569887D01*
X97061914Y-68569887D02*
X96947628Y-68512744D01*
X96947628Y-68512744D02*
X96890485Y-68455601D01*
X96890485Y-68455601D02*
X96833342Y-68341316D01*
X96833342Y-68341316D02*
X96833342Y-68169887D01*
X96833342Y-68169887D02*
X96890485Y-68055601D01*
X96890485Y-68055601D02*
X96947628Y-67998459D01*
X96947628Y-67998459D02*
X97061914Y-67941316D01*
X97061914Y-67941316D02*
X97404771Y-67941316D01*
X97404771Y-67941316D02*
X97519057Y-67998459D01*
X97519057Y-67998459D02*
X97576200Y-68055601D01*
X97576200Y-68055601D02*
X97633342Y-68169887D01*
X97633342Y-68169887D02*
X97633342Y-68341316D01*
X97633342Y-66912745D02*
X97004771Y-66912745D01*
X97004771Y-66912745D02*
X96890485Y-66969887D01*
X96890485Y-66969887D02*
X96833342Y-67084173D01*
X96833342Y-67084173D02*
X96833342Y-67312745D01*
X96833342Y-67312745D02*
X96890485Y-67427030D01*
X97576200Y-66912745D02*
X97633342Y-67027030D01*
X97633342Y-67027030D02*
X97633342Y-67312745D01*
X97633342Y-67312745D02*
X97576200Y-67427030D01*
X97576200Y-67427030D02*
X97461914Y-67484173D01*
X97461914Y-67484173D02*
X97347628Y-67484173D01*
X97347628Y-67484173D02*
X97233342Y-67427030D01*
X97233342Y-67427030D02*
X97176200Y-67312745D01*
X97176200Y-67312745D02*
X97176200Y-67027030D01*
X97176200Y-67027030D02*
X97119057Y-66912745D01*
X97633342Y-66341316D02*
X96833342Y-66341316D01*
X97061914Y-66341316D02*
X96947628Y-66284173D01*
X96947628Y-66284173D02*
X96890485Y-66227031D01*
X96890485Y-66227031D02*
X96833342Y-66112745D01*
X96833342Y-66112745D02*
X96833342Y-65998459D01*
X97633342Y-65084174D02*
X96433342Y-65084174D01*
X97576200Y-65084174D02*
X97633342Y-65198459D01*
X97633342Y-65198459D02*
X97633342Y-65427031D01*
X97633342Y-65427031D02*
X97576200Y-65541316D01*
X97576200Y-65541316D02*
X97519057Y-65598459D01*
X97519057Y-65598459D02*
X97404771Y-65655602D01*
X97404771Y-65655602D02*
X97061914Y-65655602D01*
X97061914Y-65655602D02*
X96947628Y-65598459D01*
X96947628Y-65598459D02*
X96890485Y-65541316D01*
X96890485Y-65541316D02*
X96833342Y-65427031D01*
X96833342Y-65427031D02*
X96833342Y-65198459D01*
X96833342Y-65198459D02*
X96890485Y-65084174D01*
X97576200Y-64455602D02*
X97633342Y-64455602D01*
X97633342Y-64455602D02*
X97747628Y-64512745D01*
X97747628Y-64512745D02*
X97804771Y-64569888D01*
X96833342Y-63141316D02*
X97633342Y-62855602D01*
X96833342Y-62569887D02*
X97633342Y-62855602D01*
X97633342Y-62855602D02*
X97919057Y-62969887D01*
X97919057Y-62969887D02*
X97976200Y-63027030D01*
X97976200Y-63027030D02*
X98033342Y-63141316D01*
X97633342Y-61941316D02*
X97576200Y-62055601D01*
X97576200Y-62055601D02*
X97519057Y-62112744D01*
X97519057Y-62112744D02*
X97404771Y-62169887D01*
X97404771Y-62169887D02*
X97061914Y-62169887D01*
X97061914Y-62169887D02*
X96947628Y-62112744D01*
X96947628Y-62112744D02*
X96890485Y-62055601D01*
X96890485Y-62055601D02*
X96833342Y-61941316D01*
X96833342Y-61941316D02*
X96833342Y-61769887D01*
X96833342Y-61769887D02*
X96890485Y-61655601D01*
X96890485Y-61655601D02*
X96947628Y-61598459D01*
X96947628Y-61598459D02*
X97061914Y-61541316D01*
X97061914Y-61541316D02*
X97404771Y-61541316D01*
X97404771Y-61541316D02*
X97519057Y-61598459D01*
X97519057Y-61598459D02*
X97576200Y-61655601D01*
X97576200Y-61655601D02*
X97633342Y-61769887D01*
X97633342Y-61769887D02*
X97633342Y-61941316D01*
X96833342Y-60512745D02*
X97633342Y-60512745D01*
X96833342Y-61027030D02*
X97461914Y-61027030D01*
X97461914Y-61027030D02*
X97576200Y-60969887D01*
X97576200Y-60969887D02*
X97633342Y-60855602D01*
X97633342Y-60855602D02*
X97633342Y-60684173D01*
X97633342Y-60684173D02*
X97576200Y-60569887D01*
X97576200Y-60569887D02*
X97519057Y-60512745D01*
X96833342Y-59198459D02*
X96833342Y-58741316D01*
X96433342Y-59027030D02*
X97461914Y-59027030D01*
X97461914Y-59027030D02*
X97576200Y-58969887D01*
X97576200Y-58969887D02*
X97633342Y-58855602D01*
X97633342Y-58855602D02*
X97633342Y-58741316D01*
X97633342Y-58169888D02*
X97576200Y-58284173D01*
X97576200Y-58284173D02*
X97519057Y-58341316D01*
X97519057Y-58341316D02*
X97404771Y-58398459D01*
X97404771Y-58398459D02*
X97061914Y-58398459D01*
X97061914Y-58398459D02*
X96947628Y-58341316D01*
X96947628Y-58341316D02*
X96890485Y-58284173D01*
X96890485Y-58284173D02*
X96833342Y-58169888D01*
X96833342Y-58169888D02*
X96833342Y-57998459D01*
X96833342Y-57998459D02*
X96890485Y-57884173D01*
X96890485Y-57884173D02*
X96947628Y-57827031D01*
X96947628Y-57827031D02*
X97061914Y-57769888D01*
X97061914Y-57769888D02*
X97404771Y-57769888D01*
X97404771Y-57769888D02*
X97519057Y-57827031D01*
X97519057Y-57827031D02*
X97576200Y-57884173D01*
X97576200Y-57884173D02*
X97633342Y-57998459D01*
X97633342Y-57998459D02*
X97633342Y-58169888D01*
X97633342Y-57084174D02*
X97576200Y-57198459D01*
X97576200Y-57198459D02*
X97519057Y-57255602D01*
X97519057Y-57255602D02*
X97404771Y-57312745D01*
X97404771Y-57312745D02*
X97061914Y-57312745D01*
X97061914Y-57312745D02*
X96947628Y-57255602D01*
X96947628Y-57255602D02*
X96890485Y-57198459D01*
X96890485Y-57198459D02*
X96833342Y-57084174D01*
X96833342Y-57084174D02*
X96833342Y-56912745D01*
X96833342Y-56912745D02*
X96890485Y-56798459D01*
X96890485Y-56798459D02*
X96947628Y-56741317D01*
X96947628Y-56741317D02*
X97061914Y-56684174D01*
X97061914Y-56684174D02*
X97404771Y-56684174D01*
X97404771Y-56684174D02*
X97519057Y-56741317D01*
X97519057Y-56741317D02*
X97576200Y-56798459D01*
X97576200Y-56798459D02*
X97633342Y-56912745D01*
X97633342Y-56912745D02*
X97633342Y-57084174D01*
X97633342Y-56169888D02*
X96433342Y-56169888D01*
X97176200Y-56055603D02*
X97633342Y-55712745D01*
X96833342Y-55712745D02*
X97290485Y-56169888D01*
X96833342Y-54455602D02*
X96833342Y-53998459D01*
X96433342Y-54284173D02*
X97461914Y-54284173D01*
X97461914Y-54284173D02*
X97576200Y-54227030D01*
X97576200Y-54227030D02*
X97633342Y-54112745D01*
X97633342Y-54112745D02*
X97633342Y-53998459D01*
X97633342Y-53598459D02*
X96433342Y-53598459D01*
X97633342Y-53084174D02*
X97004771Y-53084174D01*
X97004771Y-53084174D02*
X96890485Y-53141316D01*
X96890485Y-53141316D02*
X96833342Y-53255602D01*
X96833342Y-53255602D02*
X96833342Y-53427031D01*
X96833342Y-53427031D02*
X96890485Y-53541316D01*
X96890485Y-53541316D02*
X96947628Y-53598459D01*
X97576200Y-52055602D02*
X97633342Y-52169888D01*
X97633342Y-52169888D02*
X97633342Y-52398460D01*
X97633342Y-52398460D02*
X97576200Y-52512745D01*
X97576200Y-52512745D02*
X97461914Y-52569888D01*
X97461914Y-52569888D02*
X97004771Y-52569888D01*
X97004771Y-52569888D02*
X96890485Y-52512745D01*
X96890485Y-52512745D02*
X96833342Y-52398460D01*
X96833342Y-52398460D02*
X96833342Y-52169888D01*
X96833342Y-52169888D02*
X96890485Y-52055602D01*
X96890485Y-52055602D02*
X97004771Y-51998460D01*
X97004771Y-51998460D02*
X97119057Y-51998460D01*
X97119057Y-51998460D02*
X97233342Y-52569888D01*
X97576200Y-50627031D02*
X97633342Y-50512745D01*
X97633342Y-50512745D02*
X97633342Y-50284174D01*
X97633342Y-50284174D02*
X97576200Y-50169888D01*
X97576200Y-50169888D02*
X97461914Y-50112745D01*
X97461914Y-50112745D02*
X97404771Y-50112745D01*
X97404771Y-50112745D02*
X97290485Y-50169888D01*
X97290485Y-50169888D02*
X97233342Y-50284174D01*
X97233342Y-50284174D02*
X97233342Y-50455603D01*
X97233342Y-50455603D02*
X97176200Y-50569888D01*
X97176200Y-50569888D02*
X97061914Y-50627031D01*
X97061914Y-50627031D02*
X97004771Y-50627031D01*
X97004771Y-50627031D02*
X96890485Y-50569888D01*
X96890485Y-50569888D02*
X96833342Y-50455603D01*
X96833342Y-50455603D02*
X96833342Y-50284174D01*
X96833342Y-50284174D02*
X96890485Y-50169888D01*
X97576200Y-49141316D02*
X97633342Y-49255602D01*
X97633342Y-49255602D02*
X97633342Y-49484174D01*
X97633342Y-49484174D02*
X97576200Y-49598459D01*
X97576200Y-49598459D02*
X97461914Y-49655602D01*
X97461914Y-49655602D02*
X97004771Y-49655602D01*
X97004771Y-49655602D02*
X96890485Y-49598459D01*
X96890485Y-49598459D02*
X96833342Y-49484174D01*
X96833342Y-49484174D02*
X96833342Y-49255602D01*
X96833342Y-49255602D02*
X96890485Y-49141316D01*
X96890485Y-49141316D02*
X97004771Y-49084174D01*
X97004771Y-49084174D02*
X97119057Y-49084174D01*
X97119057Y-49084174D02*
X97233342Y-49655602D01*
X96833342Y-48569888D02*
X97633342Y-48569888D01*
X96947628Y-48569888D02*
X96890485Y-48512745D01*
X96890485Y-48512745D02*
X96833342Y-48398460D01*
X96833342Y-48398460D02*
X96833342Y-48227031D01*
X96833342Y-48227031D02*
X96890485Y-48112745D01*
X96890485Y-48112745D02*
X97004771Y-48055603D01*
X97004771Y-48055603D02*
X97633342Y-48055603D01*
X97576200Y-47541317D02*
X97633342Y-47427031D01*
X97633342Y-47427031D02*
X97633342Y-47198460D01*
X97633342Y-47198460D02*
X97576200Y-47084174D01*
X97576200Y-47084174D02*
X97461914Y-47027031D01*
X97461914Y-47027031D02*
X97404771Y-47027031D01*
X97404771Y-47027031D02*
X97290485Y-47084174D01*
X97290485Y-47084174D02*
X97233342Y-47198460D01*
X97233342Y-47198460D02*
X97233342Y-47369889D01*
X97233342Y-47369889D02*
X97176200Y-47484174D01*
X97176200Y-47484174D02*
X97061914Y-47541317D01*
X97061914Y-47541317D02*
X97004771Y-47541317D01*
X97004771Y-47541317D02*
X96890485Y-47484174D01*
X96890485Y-47484174D02*
X96833342Y-47369889D01*
X96833342Y-47369889D02*
X96833342Y-47198460D01*
X96833342Y-47198460D02*
X96890485Y-47084174D01*
X97633342Y-46341317D02*
X97576200Y-46455602D01*
X97576200Y-46455602D02*
X97519057Y-46512745D01*
X97519057Y-46512745D02*
X97404771Y-46569888D01*
X97404771Y-46569888D02*
X97061914Y-46569888D01*
X97061914Y-46569888D02*
X96947628Y-46512745D01*
X96947628Y-46512745D02*
X96890485Y-46455602D01*
X96890485Y-46455602D02*
X96833342Y-46341317D01*
X96833342Y-46341317D02*
X96833342Y-46169888D01*
X96833342Y-46169888D02*
X96890485Y-46055602D01*
X96890485Y-46055602D02*
X96947628Y-45998460D01*
X96947628Y-45998460D02*
X97061914Y-45941317D01*
X97061914Y-45941317D02*
X97404771Y-45941317D01*
X97404771Y-45941317D02*
X97519057Y-45998460D01*
X97519057Y-45998460D02*
X97576200Y-46055602D01*
X97576200Y-46055602D02*
X97633342Y-46169888D01*
X97633342Y-46169888D02*
X97633342Y-46341317D01*
X97633342Y-45427031D02*
X96833342Y-45427031D01*
X97061914Y-45427031D02*
X96947628Y-45369888D01*
X96947628Y-45369888D02*
X96890485Y-45312746D01*
X96890485Y-45312746D02*
X96833342Y-45198460D01*
X96833342Y-45198460D02*
X96833342Y-45084174D01*
X97633342Y-43255603D02*
X97004771Y-43255603D01*
X97004771Y-43255603D02*
X96890485Y-43312745D01*
X96890485Y-43312745D02*
X96833342Y-43427031D01*
X96833342Y-43427031D02*
X96833342Y-43655603D01*
X96833342Y-43655603D02*
X96890485Y-43769888D01*
X97576200Y-43255603D02*
X97633342Y-43369888D01*
X97633342Y-43369888D02*
X97633342Y-43655603D01*
X97633342Y-43655603D02*
X97576200Y-43769888D01*
X97576200Y-43769888D02*
X97461914Y-43827031D01*
X97461914Y-43827031D02*
X97347628Y-43827031D01*
X97347628Y-43827031D02*
X97233342Y-43769888D01*
X97233342Y-43769888D02*
X97176200Y-43655603D01*
X97176200Y-43655603D02*
X97176200Y-43369888D01*
X97176200Y-43369888D02*
X97119057Y-43255603D01*
X96833342Y-42684174D02*
X98033342Y-42684174D01*
X96890485Y-42684174D02*
X96833342Y-42569889D01*
X96833342Y-42569889D02*
X96833342Y-42341317D01*
X96833342Y-42341317D02*
X96890485Y-42227031D01*
X96890485Y-42227031D02*
X96947628Y-42169889D01*
X96947628Y-42169889D02*
X97061914Y-42112746D01*
X97061914Y-42112746D02*
X97404771Y-42112746D01*
X97404771Y-42112746D02*
X97519057Y-42169889D01*
X97519057Y-42169889D02*
X97576200Y-42227031D01*
X97576200Y-42227031D02*
X97633342Y-42341317D01*
X97633342Y-42341317D02*
X97633342Y-42569889D01*
X97633342Y-42569889D02*
X97576200Y-42684174D01*
X97633342Y-41084175D02*
X97004771Y-41084175D01*
X97004771Y-41084175D02*
X96890485Y-41141317D01*
X96890485Y-41141317D02*
X96833342Y-41255603D01*
X96833342Y-41255603D02*
X96833342Y-41484175D01*
X96833342Y-41484175D02*
X96890485Y-41598460D01*
X97576200Y-41084175D02*
X97633342Y-41198460D01*
X97633342Y-41198460D02*
X97633342Y-41484175D01*
X97633342Y-41484175D02*
X97576200Y-41598460D01*
X97576200Y-41598460D02*
X97461914Y-41655603D01*
X97461914Y-41655603D02*
X97347628Y-41655603D01*
X97347628Y-41655603D02*
X97233342Y-41598460D01*
X97233342Y-41598460D02*
X97176200Y-41484175D01*
X97176200Y-41484175D02*
X97176200Y-41198460D01*
X97176200Y-41198460D02*
X97119057Y-41084175D01*
X97633342Y-40512746D02*
X96833342Y-40512746D01*
X97061914Y-40512746D02*
X96947628Y-40455603D01*
X96947628Y-40455603D02*
X96890485Y-40398461D01*
X96890485Y-40398461D02*
X96833342Y-40284175D01*
X96833342Y-40284175D02*
X96833342Y-40169889D01*
X96833342Y-39941318D02*
X96833342Y-39484175D01*
X96433342Y-39769889D02*
X97461914Y-39769889D01*
X97461914Y-39769889D02*
X97576200Y-39712746D01*
X97576200Y-39712746D02*
X97633342Y-39598461D01*
X97633342Y-39598461D02*
X97633342Y-39484175D01*
X97519057Y-39084175D02*
X97576200Y-39027032D01*
X97576200Y-39027032D02*
X97633342Y-39084175D01*
X97633342Y-39084175D02*
X97576200Y-39141318D01*
X97576200Y-39141318D02*
X97519057Y-39084175D01*
X97519057Y-39084175D02*
X97633342Y-39084175D01*
X98365342Y-107427030D02*
X98365342Y-106741316D01*
X99565342Y-107084173D02*
X98365342Y-107084173D01*
X99565342Y-106341315D02*
X98365342Y-106341315D01*
X99565342Y-105827030D02*
X98936771Y-105827030D01*
X98936771Y-105827030D02*
X98822485Y-105884172D01*
X98822485Y-105884172D02*
X98765342Y-105998458D01*
X98765342Y-105998458D02*
X98765342Y-106169887D01*
X98765342Y-106169887D02*
X98822485Y-106284172D01*
X98822485Y-106284172D02*
X98879628Y-106341315D01*
X99565342Y-105255601D02*
X98765342Y-105255601D01*
X98365342Y-105255601D02*
X98422485Y-105312744D01*
X98422485Y-105312744D02*
X98479628Y-105255601D01*
X98479628Y-105255601D02*
X98422485Y-105198458D01*
X98422485Y-105198458D02*
X98365342Y-105255601D01*
X98365342Y-105255601D02*
X98479628Y-105255601D01*
X99508200Y-104741315D02*
X99565342Y-104627029D01*
X99565342Y-104627029D02*
X99565342Y-104398458D01*
X99565342Y-104398458D02*
X99508200Y-104284172D01*
X99508200Y-104284172D02*
X99393914Y-104227029D01*
X99393914Y-104227029D02*
X99336771Y-104227029D01*
X99336771Y-104227029D02*
X99222485Y-104284172D01*
X99222485Y-104284172D02*
X99165342Y-104398458D01*
X99165342Y-104398458D02*
X99165342Y-104569887D01*
X99165342Y-104569887D02*
X99108200Y-104684172D01*
X99108200Y-104684172D02*
X98993914Y-104741315D01*
X98993914Y-104741315D02*
X98936771Y-104741315D01*
X98936771Y-104741315D02*
X98822485Y-104684172D01*
X98822485Y-104684172D02*
X98765342Y-104569887D01*
X98765342Y-104569887D02*
X98765342Y-104398458D01*
X98765342Y-104398458D02*
X98822485Y-104284172D01*
X99565342Y-102798457D02*
X98365342Y-102798457D01*
X98822485Y-102798457D02*
X98765342Y-102684172D01*
X98765342Y-102684172D02*
X98765342Y-102455600D01*
X98765342Y-102455600D02*
X98822485Y-102341314D01*
X98822485Y-102341314D02*
X98879628Y-102284172D01*
X98879628Y-102284172D02*
X98993914Y-102227029D01*
X98993914Y-102227029D02*
X99336771Y-102227029D01*
X99336771Y-102227029D02*
X99451057Y-102284172D01*
X99451057Y-102284172D02*
X99508200Y-102341314D01*
X99508200Y-102341314D02*
X99565342Y-102455600D01*
X99565342Y-102455600D02*
X99565342Y-102684172D01*
X99565342Y-102684172D02*
X99508200Y-102798457D01*
X99565342Y-101541315D02*
X99508200Y-101655600D01*
X99508200Y-101655600D02*
X99451057Y-101712743D01*
X99451057Y-101712743D02*
X99336771Y-101769886D01*
X99336771Y-101769886D02*
X98993914Y-101769886D01*
X98993914Y-101769886D02*
X98879628Y-101712743D01*
X98879628Y-101712743D02*
X98822485Y-101655600D01*
X98822485Y-101655600D02*
X98765342Y-101541315D01*
X98765342Y-101541315D02*
X98765342Y-101369886D01*
X98765342Y-101369886D02*
X98822485Y-101255600D01*
X98822485Y-101255600D02*
X98879628Y-101198458D01*
X98879628Y-101198458D02*
X98993914Y-101141315D01*
X98993914Y-101141315D02*
X99336771Y-101141315D01*
X99336771Y-101141315D02*
X99451057Y-101198458D01*
X99451057Y-101198458D02*
X99508200Y-101255600D01*
X99508200Y-101255600D02*
X99565342Y-101369886D01*
X99565342Y-101369886D02*
X99565342Y-101541315D01*
X99565342Y-100112744D02*
X98936771Y-100112744D01*
X98936771Y-100112744D02*
X98822485Y-100169886D01*
X98822485Y-100169886D02*
X98765342Y-100284172D01*
X98765342Y-100284172D02*
X98765342Y-100512744D01*
X98765342Y-100512744D02*
X98822485Y-100627029D01*
X99508200Y-100112744D02*
X99565342Y-100227029D01*
X99565342Y-100227029D02*
X99565342Y-100512744D01*
X99565342Y-100512744D02*
X99508200Y-100627029D01*
X99508200Y-100627029D02*
X99393914Y-100684172D01*
X99393914Y-100684172D02*
X99279628Y-100684172D01*
X99279628Y-100684172D02*
X99165342Y-100627029D01*
X99165342Y-100627029D02*
X99108200Y-100512744D01*
X99108200Y-100512744D02*
X99108200Y-100227029D01*
X99108200Y-100227029D02*
X99051057Y-100112744D01*
X99565342Y-99541315D02*
X98765342Y-99541315D01*
X98993914Y-99541315D02*
X98879628Y-99484172D01*
X98879628Y-99484172D02*
X98822485Y-99427030D01*
X98822485Y-99427030D02*
X98765342Y-99312744D01*
X98765342Y-99312744D02*
X98765342Y-99198458D01*
X99565342Y-98284173D02*
X98365342Y-98284173D01*
X99508200Y-98284173D02*
X99565342Y-98398458D01*
X99565342Y-98398458D02*
X99565342Y-98627030D01*
X99565342Y-98627030D02*
X99508200Y-98741315D01*
X99508200Y-98741315D02*
X99451057Y-98798458D01*
X99451057Y-98798458D02*
X99336771Y-98855601D01*
X99336771Y-98855601D02*
X98993914Y-98855601D01*
X98993914Y-98855601D02*
X98879628Y-98798458D01*
X98879628Y-98798458D02*
X98822485Y-98741315D01*
X98822485Y-98741315D02*
X98765342Y-98627030D01*
X98765342Y-98627030D02*
X98765342Y-98398458D01*
X98765342Y-98398458D02*
X98822485Y-98284173D01*
X99565342Y-96798458D02*
X98765342Y-96798458D01*
X98365342Y-96798458D02*
X98422485Y-96855601D01*
X98422485Y-96855601D02*
X98479628Y-96798458D01*
X98479628Y-96798458D02*
X98422485Y-96741315D01*
X98422485Y-96741315D02*
X98365342Y-96798458D01*
X98365342Y-96798458D02*
X98479628Y-96798458D01*
X99508200Y-96284172D02*
X99565342Y-96169886D01*
X99565342Y-96169886D02*
X99565342Y-95941315D01*
X99565342Y-95941315D02*
X99508200Y-95827029D01*
X99508200Y-95827029D02*
X99393914Y-95769886D01*
X99393914Y-95769886D02*
X99336771Y-95769886D01*
X99336771Y-95769886D02*
X99222485Y-95827029D01*
X99222485Y-95827029D02*
X99165342Y-95941315D01*
X99165342Y-95941315D02*
X99165342Y-96112744D01*
X99165342Y-96112744D02*
X99108200Y-96227029D01*
X99108200Y-96227029D02*
X98993914Y-96284172D01*
X98993914Y-96284172D02*
X98936771Y-96284172D01*
X98936771Y-96284172D02*
X98822485Y-96227029D01*
X98822485Y-96227029D02*
X98765342Y-96112744D01*
X98765342Y-96112744D02*
X98765342Y-95941315D01*
X98765342Y-95941315D02*
X98822485Y-95827029D01*
X98765342Y-94512743D02*
X98765342Y-94055600D01*
X98365342Y-94341314D02*
X99393914Y-94341314D01*
X99393914Y-94341314D02*
X99508200Y-94284171D01*
X99508200Y-94284171D02*
X99565342Y-94169886D01*
X99565342Y-94169886D02*
X99565342Y-94055600D01*
X99565342Y-93484172D02*
X99508200Y-93598457D01*
X99508200Y-93598457D02*
X99451057Y-93655600D01*
X99451057Y-93655600D02*
X99336771Y-93712743D01*
X99336771Y-93712743D02*
X98993914Y-93712743D01*
X98993914Y-93712743D02*
X98879628Y-93655600D01*
X98879628Y-93655600D02*
X98822485Y-93598457D01*
X98822485Y-93598457D02*
X98765342Y-93484172D01*
X98765342Y-93484172D02*
X98765342Y-93312743D01*
X98765342Y-93312743D02*
X98822485Y-93198457D01*
X98822485Y-93198457D02*
X98879628Y-93141315D01*
X98879628Y-93141315D02*
X98993914Y-93084172D01*
X98993914Y-93084172D02*
X99336771Y-93084172D01*
X99336771Y-93084172D02*
X99451057Y-93141315D01*
X99451057Y-93141315D02*
X99508200Y-93198457D01*
X99508200Y-93198457D02*
X99565342Y-93312743D01*
X99565342Y-93312743D02*
X99565342Y-93484172D01*
X99565342Y-91655600D02*
X98765342Y-91655600D01*
X98365342Y-91655600D02*
X98422485Y-91712743D01*
X98422485Y-91712743D02*
X98479628Y-91655600D01*
X98479628Y-91655600D02*
X98422485Y-91598457D01*
X98422485Y-91598457D02*
X98365342Y-91655600D01*
X98365342Y-91655600D02*
X98479628Y-91655600D01*
X99565342Y-90912743D02*
X99508200Y-91027028D01*
X99508200Y-91027028D02*
X99393914Y-91084171D01*
X99393914Y-91084171D02*
X98365342Y-91084171D01*
X99565342Y-90284172D02*
X99508200Y-90398457D01*
X99508200Y-90398457D02*
X99393914Y-90455600D01*
X99393914Y-90455600D02*
X98365342Y-90455600D01*
X98765342Y-89312744D02*
X99565342Y-89312744D01*
X98765342Y-89827029D02*
X99393914Y-89827029D01*
X99393914Y-89827029D02*
X99508200Y-89769886D01*
X99508200Y-89769886D02*
X99565342Y-89655601D01*
X99565342Y-89655601D02*
X99565342Y-89484172D01*
X99565342Y-89484172D02*
X99508200Y-89369886D01*
X99508200Y-89369886D02*
X99451057Y-89312744D01*
X99508200Y-88798458D02*
X99565342Y-88684172D01*
X99565342Y-88684172D02*
X99565342Y-88455601D01*
X99565342Y-88455601D02*
X99508200Y-88341315D01*
X99508200Y-88341315D02*
X99393914Y-88284172D01*
X99393914Y-88284172D02*
X99336771Y-88284172D01*
X99336771Y-88284172D02*
X99222485Y-88341315D01*
X99222485Y-88341315D02*
X99165342Y-88455601D01*
X99165342Y-88455601D02*
X99165342Y-88627030D01*
X99165342Y-88627030D02*
X99108200Y-88741315D01*
X99108200Y-88741315D02*
X98993914Y-88798458D01*
X98993914Y-88798458D02*
X98936771Y-88798458D01*
X98936771Y-88798458D02*
X98822485Y-88741315D01*
X98822485Y-88741315D02*
X98765342Y-88627030D01*
X98765342Y-88627030D02*
X98765342Y-88455601D01*
X98765342Y-88455601D02*
X98822485Y-88341315D01*
X98765342Y-87941315D02*
X98765342Y-87484172D01*
X98365342Y-87769886D02*
X99393914Y-87769886D01*
X99393914Y-87769886D02*
X99508200Y-87712743D01*
X99508200Y-87712743D02*
X99565342Y-87598458D01*
X99565342Y-87598458D02*
X99565342Y-87484172D01*
X99565342Y-87084172D02*
X98765342Y-87084172D01*
X98993914Y-87084172D02*
X98879628Y-87027029D01*
X98879628Y-87027029D02*
X98822485Y-86969887D01*
X98822485Y-86969887D02*
X98765342Y-86855601D01*
X98765342Y-86855601D02*
X98765342Y-86741315D01*
X99565342Y-85827030D02*
X98936771Y-85827030D01*
X98936771Y-85827030D02*
X98822485Y-85884172D01*
X98822485Y-85884172D02*
X98765342Y-85998458D01*
X98765342Y-85998458D02*
X98765342Y-86227030D01*
X98765342Y-86227030D02*
X98822485Y-86341315D01*
X99508200Y-85827030D02*
X99565342Y-85941315D01*
X99565342Y-85941315D02*
X99565342Y-86227030D01*
X99565342Y-86227030D02*
X99508200Y-86341315D01*
X99508200Y-86341315D02*
X99393914Y-86398458D01*
X99393914Y-86398458D02*
X99279628Y-86398458D01*
X99279628Y-86398458D02*
X99165342Y-86341315D01*
X99165342Y-86341315D02*
X99108200Y-86227030D01*
X99108200Y-86227030D02*
X99108200Y-85941315D01*
X99108200Y-85941315D02*
X99051057Y-85827030D01*
X98765342Y-85427030D02*
X98765342Y-84969887D01*
X98365342Y-85255601D02*
X99393914Y-85255601D01*
X99393914Y-85255601D02*
X99508200Y-85198458D01*
X99508200Y-85198458D02*
X99565342Y-85084173D01*
X99565342Y-85084173D02*
X99565342Y-84969887D01*
X99508200Y-84112744D02*
X99565342Y-84227030D01*
X99565342Y-84227030D02*
X99565342Y-84455602D01*
X99565342Y-84455602D02*
X99508200Y-84569887D01*
X99508200Y-84569887D02*
X99393914Y-84627030D01*
X99393914Y-84627030D02*
X98936771Y-84627030D01*
X98936771Y-84627030D02*
X98822485Y-84569887D01*
X98822485Y-84569887D02*
X98765342Y-84455602D01*
X98765342Y-84455602D02*
X98765342Y-84227030D01*
X98765342Y-84227030D02*
X98822485Y-84112744D01*
X98822485Y-84112744D02*
X98936771Y-84055602D01*
X98936771Y-84055602D02*
X99051057Y-84055602D01*
X99051057Y-84055602D02*
X99165342Y-84627030D01*
X98765342Y-82627030D02*
X99565342Y-82627030D01*
X98879628Y-82627030D02*
X98822485Y-82569887D01*
X98822485Y-82569887D02*
X98765342Y-82455602D01*
X98765342Y-82455602D02*
X98765342Y-82284173D01*
X98765342Y-82284173D02*
X98822485Y-82169887D01*
X98822485Y-82169887D02*
X98936771Y-82112745D01*
X98936771Y-82112745D02*
X99565342Y-82112745D01*
X99565342Y-81369888D02*
X99508200Y-81484173D01*
X99508200Y-81484173D02*
X99451057Y-81541316D01*
X99451057Y-81541316D02*
X99336771Y-81598459D01*
X99336771Y-81598459D02*
X98993914Y-81598459D01*
X98993914Y-81598459D02*
X98879628Y-81541316D01*
X98879628Y-81541316D02*
X98822485Y-81484173D01*
X98822485Y-81484173D02*
X98765342Y-81369888D01*
X98765342Y-81369888D02*
X98765342Y-81198459D01*
X98765342Y-81198459D02*
X98822485Y-81084173D01*
X98822485Y-81084173D02*
X98879628Y-81027031D01*
X98879628Y-81027031D02*
X98993914Y-80969888D01*
X98993914Y-80969888D02*
X99336771Y-80969888D01*
X99336771Y-80969888D02*
X99451057Y-81027031D01*
X99451057Y-81027031D02*
X99508200Y-81084173D01*
X99508200Y-81084173D02*
X99565342Y-81198459D01*
X99565342Y-81198459D02*
X99565342Y-81369888D01*
X98765342Y-80455602D02*
X99565342Y-80455602D01*
X98879628Y-80455602D02*
X98822485Y-80398459D01*
X98822485Y-80398459D02*
X98765342Y-80284174D01*
X98765342Y-80284174D02*
X98765342Y-80112745D01*
X98765342Y-80112745D02*
X98822485Y-79998459D01*
X98822485Y-79998459D02*
X98936771Y-79941317D01*
X98936771Y-79941317D02*
X99565342Y-79941317D01*
X99108200Y-79369888D02*
X99108200Y-78455603D01*
X99508200Y-77369889D02*
X99565342Y-77484174D01*
X99565342Y-77484174D02*
X99565342Y-77712746D01*
X99565342Y-77712746D02*
X99508200Y-77827031D01*
X99508200Y-77827031D02*
X99451057Y-77884174D01*
X99451057Y-77884174D02*
X99336771Y-77941317D01*
X99336771Y-77941317D02*
X98993914Y-77941317D01*
X98993914Y-77941317D02*
X98879628Y-77884174D01*
X98879628Y-77884174D02*
X98822485Y-77827031D01*
X98822485Y-77827031D02*
X98765342Y-77712746D01*
X98765342Y-77712746D02*
X98765342Y-77484174D01*
X98765342Y-77484174D02*
X98822485Y-77369889D01*
X99565342Y-76684175D02*
X99508200Y-76798460D01*
X99508200Y-76798460D02*
X99451057Y-76855603D01*
X99451057Y-76855603D02*
X99336771Y-76912746D01*
X99336771Y-76912746D02*
X98993914Y-76912746D01*
X98993914Y-76912746D02*
X98879628Y-76855603D01*
X98879628Y-76855603D02*
X98822485Y-76798460D01*
X98822485Y-76798460D02*
X98765342Y-76684175D01*
X98765342Y-76684175D02*
X98765342Y-76512746D01*
X98765342Y-76512746D02*
X98822485Y-76398460D01*
X98822485Y-76398460D02*
X98879628Y-76341318D01*
X98879628Y-76341318D02*
X98993914Y-76284175D01*
X98993914Y-76284175D02*
X99336771Y-76284175D01*
X99336771Y-76284175D02*
X99451057Y-76341318D01*
X99451057Y-76341318D02*
X99508200Y-76398460D01*
X99508200Y-76398460D02*
X99565342Y-76512746D01*
X99565342Y-76512746D02*
X99565342Y-76684175D01*
X98765342Y-75769889D02*
X99565342Y-75769889D01*
X98879628Y-75769889D02*
X98822485Y-75712746D01*
X98822485Y-75712746D02*
X98765342Y-75598461D01*
X98765342Y-75598461D02*
X98765342Y-75427032D01*
X98765342Y-75427032D02*
X98822485Y-75312746D01*
X98822485Y-75312746D02*
X98936771Y-75255604D01*
X98936771Y-75255604D02*
X99565342Y-75255604D01*
X98765342Y-74855604D02*
X98765342Y-74398461D01*
X98365342Y-74684175D02*
X99393914Y-74684175D01*
X99393914Y-74684175D02*
X99508200Y-74627032D01*
X99508200Y-74627032D02*
X99565342Y-74512747D01*
X99565342Y-74512747D02*
X99565342Y-74398461D01*
X99565342Y-73484176D02*
X98936771Y-73484176D01*
X98936771Y-73484176D02*
X98822485Y-73541318D01*
X98822485Y-73541318D02*
X98765342Y-73655604D01*
X98765342Y-73655604D02*
X98765342Y-73884176D01*
X98765342Y-73884176D02*
X98822485Y-73998461D01*
X99508200Y-73484176D02*
X99565342Y-73598461D01*
X99565342Y-73598461D02*
X99565342Y-73884176D01*
X99565342Y-73884176D02*
X99508200Y-73998461D01*
X99508200Y-73998461D02*
X99393914Y-74055604D01*
X99393914Y-74055604D02*
X99279628Y-74055604D01*
X99279628Y-74055604D02*
X99165342Y-73998461D01*
X99165342Y-73998461D02*
X99108200Y-73884176D01*
X99108200Y-73884176D02*
X99108200Y-73598461D01*
X99108200Y-73598461D02*
X99051057Y-73484176D01*
X99508200Y-72398462D02*
X99565342Y-72512747D01*
X99565342Y-72512747D02*
X99565342Y-72741319D01*
X99565342Y-72741319D02*
X99508200Y-72855604D01*
X99508200Y-72855604D02*
X99451057Y-72912747D01*
X99451057Y-72912747D02*
X99336771Y-72969890D01*
X99336771Y-72969890D02*
X98993914Y-72969890D01*
X98993914Y-72969890D02*
X98879628Y-72912747D01*
X98879628Y-72912747D02*
X98822485Y-72855604D01*
X98822485Y-72855604D02*
X98765342Y-72741319D01*
X98765342Y-72741319D02*
X98765342Y-72512747D01*
X98765342Y-72512747D02*
X98822485Y-72398462D01*
X98765342Y-72055605D02*
X98765342Y-71598462D01*
X98365342Y-71884176D02*
X99393914Y-71884176D01*
X99393914Y-71884176D02*
X99508200Y-71827033D01*
X99508200Y-71827033D02*
X99565342Y-71712748D01*
X99565342Y-71712748D02*
X99565342Y-71598462D01*
X99565342Y-70284176D02*
X98365342Y-70284176D01*
X99565342Y-69769891D02*
X98936771Y-69769891D01*
X98936771Y-69769891D02*
X98822485Y-69827033D01*
X98822485Y-69827033D02*
X98765342Y-69941319D01*
X98765342Y-69941319D02*
X98765342Y-70112748D01*
X98765342Y-70112748D02*
X98822485Y-70227033D01*
X98822485Y-70227033D02*
X98879628Y-70284176D01*
X99508200Y-68741319D02*
X99565342Y-68855605D01*
X99565342Y-68855605D02*
X99565342Y-69084177D01*
X99565342Y-69084177D02*
X99508200Y-69198462D01*
X99508200Y-69198462D02*
X99393914Y-69255605D01*
X99393914Y-69255605D02*
X98936771Y-69255605D01*
X98936771Y-69255605D02*
X98822485Y-69198462D01*
X98822485Y-69198462D02*
X98765342Y-69084177D01*
X98765342Y-69084177D02*
X98765342Y-68855605D01*
X98765342Y-68855605D02*
X98822485Y-68741319D01*
X98822485Y-68741319D02*
X98936771Y-68684177D01*
X98936771Y-68684177D02*
X99051057Y-68684177D01*
X99051057Y-68684177D02*
X99165342Y-69255605D01*
X99565342Y-67655606D02*
X98936771Y-67655606D01*
X98936771Y-67655606D02*
X98822485Y-67712748D01*
X98822485Y-67712748D02*
X98765342Y-67827034D01*
X98765342Y-67827034D02*
X98765342Y-68055606D01*
X98765342Y-68055606D02*
X98822485Y-68169891D01*
X99508200Y-67655606D02*
X99565342Y-67769891D01*
X99565342Y-67769891D02*
X99565342Y-68055606D01*
X99565342Y-68055606D02*
X99508200Y-68169891D01*
X99508200Y-68169891D02*
X99393914Y-68227034D01*
X99393914Y-68227034D02*
X99279628Y-68227034D01*
X99279628Y-68227034D02*
X99165342Y-68169891D01*
X99165342Y-68169891D02*
X99108200Y-68055606D01*
X99108200Y-68055606D02*
X99108200Y-67769891D01*
X99108200Y-67769891D02*
X99051057Y-67655606D01*
X99565342Y-67084177D02*
X98765342Y-67084177D01*
X98993914Y-67084177D02*
X98879628Y-67027034D01*
X98879628Y-67027034D02*
X98822485Y-66969892D01*
X98822485Y-66969892D02*
X98765342Y-66855606D01*
X98765342Y-66855606D02*
X98765342Y-66741320D01*
X98765342Y-66512749D02*
X98765342Y-66055606D01*
X98365342Y-66341320D02*
X99393914Y-66341320D01*
X99393914Y-66341320D02*
X99508200Y-66284177D01*
X99508200Y-66284177D02*
X99565342Y-66169892D01*
X99565342Y-66169892D02*
X99565342Y-66055606D01*
X99108200Y-65655606D02*
X99108200Y-64741321D01*
X99565342Y-64169892D02*
X98765342Y-64169892D01*
X98993914Y-64169892D02*
X98879628Y-64112749D01*
X98879628Y-64112749D02*
X98822485Y-64055607D01*
X98822485Y-64055607D02*
X98765342Y-63941321D01*
X98765342Y-63941321D02*
X98765342Y-63827035D01*
X99565342Y-62912750D02*
X98936771Y-62912750D01*
X98936771Y-62912750D02*
X98822485Y-62969892D01*
X98822485Y-62969892D02*
X98765342Y-63084178D01*
X98765342Y-63084178D02*
X98765342Y-63312750D01*
X98765342Y-63312750D02*
X98822485Y-63427035D01*
X99508200Y-62912750D02*
X99565342Y-63027035D01*
X99565342Y-63027035D02*
X99565342Y-63312750D01*
X99565342Y-63312750D02*
X99508200Y-63427035D01*
X99508200Y-63427035D02*
X99393914Y-63484178D01*
X99393914Y-63484178D02*
X99279628Y-63484178D01*
X99279628Y-63484178D02*
X99165342Y-63427035D01*
X99165342Y-63427035D02*
X99108200Y-63312750D01*
X99108200Y-63312750D02*
X99108200Y-63027035D01*
X99108200Y-63027035D02*
X99051057Y-62912750D01*
X98765342Y-62512750D02*
X98765342Y-62055607D01*
X98365342Y-62341321D02*
X99393914Y-62341321D01*
X99393914Y-62341321D02*
X99508200Y-62284178D01*
X99508200Y-62284178D02*
X99565342Y-62169893D01*
X99565342Y-62169893D02*
X99565342Y-62055607D01*
X99508200Y-61198464D02*
X99565342Y-61312750D01*
X99565342Y-61312750D02*
X99565342Y-61541322D01*
X99565342Y-61541322D02*
X99508200Y-61655607D01*
X99508200Y-61655607D02*
X99393914Y-61712750D01*
X99393914Y-61712750D02*
X98936771Y-61712750D01*
X98936771Y-61712750D02*
X98822485Y-61655607D01*
X98822485Y-61655607D02*
X98765342Y-61541322D01*
X98765342Y-61541322D02*
X98765342Y-61312750D01*
X98765342Y-61312750D02*
X98822485Y-61198464D01*
X98822485Y-61198464D02*
X98936771Y-61141322D01*
X98936771Y-61141322D02*
X99051057Y-61141322D01*
X99051057Y-61141322D02*
X99165342Y-61712750D01*
X99565342Y-59198465D02*
X98936771Y-59198465D01*
X98936771Y-59198465D02*
X98822485Y-59255607D01*
X98822485Y-59255607D02*
X98765342Y-59369893D01*
X98765342Y-59369893D02*
X98765342Y-59598465D01*
X98765342Y-59598465D02*
X98822485Y-59712750D01*
X99508200Y-59198465D02*
X99565342Y-59312750D01*
X99565342Y-59312750D02*
X99565342Y-59598465D01*
X99565342Y-59598465D02*
X99508200Y-59712750D01*
X99508200Y-59712750D02*
X99393914Y-59769893D01*
X99393914Y-59769893D02*
X99279628Y-59769893D01*
X99279628Y-59769893D02*
X99165342Y-59712750D01*
X99165342Y-59712750D02*
X99108200Y-59598465D01*
X99108200Y-59598465D02*
X99108200Y-59312750D01*
X99108200Y-59312750D02*
X99051057Y-59198465D01*
X98765342Y-58627036D02*
X99565342Y-58627036D01*
X98879628Y-58627036D02*
X98822485Y-58569893D01*
X98822485Y-58569893D02*
X98765342Y-58455608D01*
X98765342Y-58455608D02*
X98765342Y-58284179D01*
X98765342Y-58284179D02*
X98822485Y-58169893D01*
X98822485Y-58169893D02*
X98936771Y-58112751D01*
X98936771Y-58112751D02*
X99565342Y-58112751D01*
X99565342Y-57027037D02*
X98365342Y-57027037D01*
X99508200Y-57027037D02*
X99565342Y-57141322D01*
X99565342Y-57141322D02*
X99565342Y-57369894D01*
X99565342Y-57369894D02*
X99508200Y-57484179D01*
X99508200Y-57484179D02*
X99451057Y-57541322D01*
X99451057Y-57541322D02*
X99336771Y-57598465D01*
X99336771Y-57598465D02*
X98993914Y-57598465D01*
X98993914Y-57598465D02*
X98879628Y-57541322D01*
X98879628Y-57541322D02*
X98822485Y-57484179D01*
X98822485Y-57484179D02*
X98765342Y-57369894D01*
X98765342Y-57369894D02*
X98765342Y-57141322D01*
X98765342Y-57141322D02*
X98822485Y-57027037D01*
X99565342Y-55541322D02*
X98765342Y-55541322D01*
X98993914Y-55541322D02*
X98879628Y-55484179D01*
X98879628Y-55484179D02*
X98822485Y-55427037D01*
X98822485Y-55427037D02*
X98765342Y-55312751D01*
X98765342Y-55312751D02*
X98765342Y-55198465D01*
X99508200Y-54341322D02*
X99565342Y-54455608D01*
X99565342Y-54455608D02*
X99565342Y-54684180D01*
X99565342Y-54684180D02*
X99508200Y-54798465D01*
X99508200Y-54798465D02*
X99393914Y-54855608D01*
X99393914Y-54855608D02*
X98936771Y-54855608D01*
X98936771Y-54855608D02*
X98822485Y-54798465D01*
X98822485Y-54798465D02*
X98765342Y-54684180D01*
X98765342Y-54684180D02*
X98765342Y-54455608D01*
X98765342Y-54455608D02*
X98822485Y-54341322D01*
X98822485Y-54341322D02*
X98936771Y-54284180D01*
X98936771Y-54284180D02*
X99051057Y-54284180D01*
X99051057Y-54284180D02*
X99165342Y-54855608D01*
X99508200Y-53827037D02*
X99565342Y-53712751D01*
X99565342Y-53712751D02*
X99565342Y-53484180D01*
X99565342Y-53484180D02*
X99508200Y-53369894D01*
X99508200Y-53369894D02*
X99393914Y-53312751D01*
X99393914Y-53312751D02*
X99336771Y-53312751D01*
X99336771Y-53312751D02*
X99222485Y-53369894D01*
X99222485Y-53369894D02*
X99165342Y-53484180D01*
X99165342Y-53484180D02*
X99165342Y-53655609D01*
X99165342Y-53655609D02*
X99108200Y-53769894D01*
X99108200Y-53769894D02*
X98993914Y-53827037D01*
X98993914Y-53827037D02*
X98936771Y-53827037D01*
X98936771Y-53827037D02*
X98822485Y-53769894D01*
X98822485Y-53769894D02*
X98765342Y-53655609D01*
X98765342Y-53655609D02*
X98765342Y-53484180D01*
X98765342Y-53484180D02*
X98822485Y-53369894D01*
X98765342Y-52798465D02*
X99965342Y-52798465D01*
X98822485Y-52798465D02*
X98765342Y-52684180D01*
X98765342Y-52684180D02*
X98765342Y-52455608D01*
X98765342Y-52455608D02*
X98822485Y-52341322D01*
X98822485Y-52341322D02*
X98879628Y-52284180D01*
X98879628Y-52284180D02*
X98993914Y-52227037D01*
X98993914Y-52227037D02*
X99336771Y-52227037D01*
X99336771Y-52227037D02*
X99451057Y-52284180D01*
X99451057Y-52284180D02*
X99508200Y-52341322D01*
X99508200Y-52341322D02*
X99565342Y-52455608D01*
X99565342Y-52455608D02*
X99565342Y-52684180D01*
X99565342Y-52684180D02*
X99508200Y-52798465D01*
X99565342Y-51712751D02*
X98765342Y-51712751D01*
X98365342Y-51712751D02*
X98422485Y-51769894D01*
X98422485Y-51769894D02*
X98479628Y-51712751D01*
X98479628Y-51712751D02*
X98422485Y-51655608D01*
X98422485Y-51655608D02*
X98365342Y-51712751D01*
X98365342Y-51712751D02*
X98479628Y-51712751D01*
X99565342Y-51141322D02*
X98765342Y-51141322D01*
X98993914Y-51141322D02*
X98879628Y-51084179D01*
X98879628Y-51084179D02*
X98822485Y-51027037D01*
X98822485Y-51027037D02*
X98765342Y-50912751D01*
X98765342Y-50912751D02*
X98765342Y-50798465D01*
X99565342Y-49884180D02*
X98936771Y-49884180D01*
X98936771Y-49884180D02*
X98822485Y-49941322D01*
X98822485Y-49941322D02*
X98765342Y-50055608D01*
X98765342Y-50055608D02*
X98765342Y-50284180D01*
X98765342Y-50284180D02*
X98822485Y-50398465D01*
X99508200Y-49884180D02*
X99565342Y-49998465D01*
X99565342Y-49998465D02*
X99565342Y-50284180D01*
X99565342Y-50284180D02*
X99508200Y-50398465D01*
X99508200Y-50398465D02*
X99393914Y-50455608D01*
X99393914Y-50455608D02*
X99279628Y-50455608D01*
X99279628Y-50455608D02*
X99165342Y-50398465D01*
X99165342Y-50398465D02*
X99108200Y-50284180D01*
X99108200Y-50284180D02*
X99108200Y-49998465D01*
X99108200Y-49998465D02*
X99051057Y-49884180D01*
X98765342Y-49484180D02*
X98765342Y-49027037D01*
X98365342Y-49312751D02*
X99393914Y-49312751D01*
X99393914Y-49312751D02*
X99508200Y-49255608D01*
X99508200Y-49255608D02*
X99565342Y-49141323D01*
X99565342Y-49141323D02*
X99565342Y-49027037D01*
X99565342Y-48455609D02*
X99508200Y-48569894D01*
X99508200Y-48569894D02*
X99451057Y-48627037D01*
X99451057Y-48627037D02*
X99336771Y-48684180D01*
X99336771Y-48684180D02*
X98993914Y-48684180D01*
X98993914Y-48684180D02*
X98879628Y-48627037D01*
X98879628Y-48627037D02*
X98822485Y-48569894D01*
X98822485Y-48569894D02*
X98765342Y-48455609D01*
X98765342Y-48455609D02*
X98765342Y-48284180D01*
X98765342Y-48284180D02*
X98822485Y-48169894D01*
X98822485Y-48169894D02*
X98879628Y-48112752D01*
X98879628Y-48112752D02*
X98993914Y-48055609D01*
X98993914Y-48055609D02*
X99336771Y-48055609D01*
X99336771Y-48055609D02*
X99451057Y-48112752D01*
X99451057Y-48112752D02*
X99508200Y-48169894D01*
X99508200Y-48169894D02*
X99565342Y-48284180D01*
X99565342Y-48284180D02*
X99565342Y-48455609D01*
X99565342Y-47541323D02*
X98765342Y-47541323D01*
X98993914Y-47541323D02*
X98879628Y-47484180D01*
X98879628Y-47484180D02*
X98822485Y-47427038D01*
X98822485Y-47427038D02*
X98765342Y-47312752D01*
X98765342Y-47312752D02*
X98765342Y-47198466D01*
X98765342Y-46912752D02*
X99565342Y-46627038D01*
X98765342Y-46341323D02*
X99565342Y-46627038D01*
X99565342Y-46627038D02*
X99851057Y-46741323D01*
X99851057Y-46741323D02*
X99908200Y-46798466D01*
X99908200Y-46798466D02*
X99965342Y-46912752D01*
X98765342Y-45141323D02*
X98765342Y-44684180D01*
X98365342Y-44969894D02*
X99393914Y-44969894D01*
X99393914Y-44969894D02*
X99508200Y-44912751D01*
X99508200Y-44912751D02*
X99565342Y-44798466D01*
X99565342Y-44798466D02*
X99565342Y-44684180D01*
X99565342Y-44284180D02*
X98765342Y-44284180D01*
X98993914Y-44284180D02*
X98879628Y-44227037D01*
X98879628Y-44227037D02*
X98822485Y-44169895D01*
X98822485Y-44169895D02*
X98765342Y-44055609D01*
X98765342Y-44055609D02*
X98765342Y-43941323D01*
X99565342Y-43027038D02*
X98936771Y-43027038D01*
X98936771Y-43027038D02*
X98822485Y-43084180D01*
X98822485Y-43084180D02*
X98765342Y-43198466D01*
X98765342Y-43198466D02*
X98765342Y-43427038D01*
X98765342Y-43427038D02*
X98822485Y-43541323D01*
X99508200Y-43027038D02*
X99565342Y-43141323D01*
X99565342Y-43141323D02*
X99565342Y-43427038D01*
X99565342Y-43427038D02*
X99508200Y-43541323D01*
X99508200Y-43541323D02*
X99393914Y-43598466D01*
X99393914Y-43598466D02*
X99279628Y-43598466D01*
X99279628Y-43598466D02*
X99165342Y-43541323D01*
X99165342Y-43541323D02*
X99108200Y-43427038D01*
X99108200Y-43427038D02*
X99108200Y-43141323D01*
X99108200Y-43141323D02*
X99051057Y-43027038D01*
X99508200Y-41941324D02*
X99565342Y-42055609D01*
X99565342Y-42055609D02*
X99565342Y-42284181D01*
X99565342Y-42284181D02*
X99508200Y-42398466D01*
X99508200Y-42398466D02*
X99451057Y-42455609D01*
X99451057Y-42455609D02*
X99336771Y-42512752D01*
X99336771Y-42512752D02*
X98993914Y-42512752D01*
X98993914Y-42512752D02*
X98879628Y-42455609D01*
X98879628Y-42455609D02*
X98822485Y-42398466D01*
X98822485Y-42398466D02*
X98765342Y-42284181D01*
X98765342Y-42284181D02*
X98765342Y-42055609D01*
X98765342Y-42055609D02*
X98822485Y-41941324D01*
X99565342Y-41427038D02*
X98365342Y-41427038D01*
X99108200Y-41312753D02*
X99565342Y-40969895D01*
X98765342Y-40969895D02*
X99222485Y-41427038D01*
X99565342Y-40455609D02*
X98765342Y-40455609D01*
X98365342Y-40455609D02*
X98422485Y-40512752D01*
X98422485Y-40512752D02*
X98479628Y-40455609D01*
X98479628Y-40455609D02*
X98422485Y-40398466D01*
X98422485Y-40398466D02*
X98365342Y-40455609D01*
X98365342Y-40455609D02*
X98479628Y-40455609D01*
X98765342Y-39884180D02*
X99565342Y-39884180D01*
X98879628Y-39884180D02*
X98822485Y-39827037D01*
X98822485Y-39827037D02*
X98765342Y-39712752D01*
X98765342Y-39712752D02*
X98765342Y-39541323D01*
X98765342Y-39541323D02*
X98822485Y-39427037D01*
X98822485Y-39427037D02*
X98936771Y-39369895D01*
X98936771Y-39369895D02*
X99565342Y-39369895D01*
X98765342Y-38284181D02*
X99736771Y-38284181D01*
X99736771Y-38284181D02*
X99851057Y-38341323D01*
X99851057Y-38341323D02*
X99908200Y-38398466D01*
X99908200Y-38398466D02*
X99965342Y-38512752D01*
X99965342Y-38512752D02*
X99965342Y-38684181D01*
X99965342Y-38684181D02*
X99908200Y-38798466D01*
X99508200Y-38284181D02*
X99565342Y-38398466D01*
X99565342Y-38398466D02*
X99565342Y-38627038D01*
X99565342Y-38627038D02*
X99508200Y-38741323D01*
X99508200Y-38741323D02*
X99451057Y-38798466D01*
X99451057Y-38798466D02*
X99336771Y-38855609D01*
X99336771Y-38855609D02*
X98993914Y-38855609D01*
X98993914Y-38855609D02*
X98879628Y-38798466D01*
X98879628Y-38798466D02*
X98822485Y-38741323D01*
X98822485Y-38741323D02*
X98765342Y-38627038D01*
X98765342Y-38627038D02*
X98765342Y-38398466D01*
X98765342Y-38398466D02*
X98822485Y-38284181D01*
X101497342Y-107084173D02*
X101440200Y-107198458D01*
X101440200Y-107198458D02*
X101383057Y-107255601D01*
X101383057Y-107255601D02*
X101268771Y-107312744D01*
X101268771Y-107312744D02*
X100925914Y-107312744D01*
X100925914Y-107312744D02*
X100811628Y-107255601D01*
X100811628Y-107255601D02*
X100754485Y-107198458D01*
X100754485Y-107198458D02*
X100697342Y-107084173D01*
X100697342Y-107084173D02*
X100697342Y-106912744D01*
X100697342Y-106912744D02*
X100754485Y-106798458D01*
X100754485Y-106798458D02*
X100811628Y-106741316D01*
X100811628Y-106741316D02*
X100925914Y-106684173D01*
X100925914Y-106684173D02*
X101268771Y-106684173D01*
X101268771Y-106684173D02*
X101383057Y-106741316D01*
X101383057Y-106741316D02*
X101440200Y-106798458D01*
X101440200Y-106798458D02*
X101497342Y-106912744D01*
X101497342Y-106912744D02*
X101497342Y-107084173D01*
X100697342Y-106284173D02*
X101497342Y-105998459D01*
X101497342Y-105998459D02*
X100697342Y-105712744D01*
X101440200Y-104798458D02*
X101497342Y-104912744D01*
X101497342Y-104912744D02*
X101497342Y-105141316D01*
X101497342Y-105141316D02*
X101440200Y-105255601D01*
X101440200Y-105255601D02*
X101325914Y-105312744D01*
X101325914Y-105312744D02*
X100868771Y-105312744D01*
X100868771Y-105312744D02*
X100754485Y-105255601D01*
X100754485Y-105255601D02*
X100697342Y-105141316D01*
X100697342Y-105141316D02*
X100697342Y-104912744D01*
X100697342Y-104912744D02*
X100754485Y-104798458D01*
X100754485Y-104798458D02*
X100868771Y-104741316D01*
X100868771Y-104741316D02*
X100983057Y-104741316D01*
X100983057Y-104741316D02*
X101097342Y-105312744D01*
X101497342Y-104227030D02*
X100697342Y-104227030D01*
X100925914Y-104227030D02*
X100811628Y-104169887D01*
X100811628Y-104169887D02*
X100754485Y-104112745D01*
X100754485Y-104112745D02*
X100697342Y-103998459D01*
X100697342Y-103998459D02*
X100697342Y-103884173D01*
X101497342Y-102569887D02*
X100297342Y-102569887D01*
X100754485Y-102569887D02*
X100697342Y-102455602D01*
X100697342Y-102455602D02*
X100697342Y-102227030D01*
X100697342Y-102227030D02*
X100754485Y-102112744D01*
X100754485Y-102112744D02*
X100811628Y-102055602D01*
X100811628Y-102055602D02*
X100925914Y-101998459D01*
X100925914Y-101998459D02*
X101268771Y-101998459D01*
X101268771Y-101998459D02*
X101383057Y-102055602D01*
X101383057Y-102055602D02*
X101440200Y-102112744D01*
X101440200Y-102112744D02*
X101497342Y-102227030D01*
X101497342Y-102227030D02*
X101497342Y-102455602D01*
X101497342Y-102455602D02*
X101440200Y-102569887D01*
X101497342Y-101312745D02*
X101440200Y-101427030D01*
X101440200Y-101427030D02*
X101325914Y-101484173D01*
X101325914Y-101484173D02*
X100297342Y-101484173D01*
X100697342Y-100341317D02*
X101497342Y-100341317D01*
X100697342Y-100855602D02*
X101325914Y-100855602D01*
X101325914Y-100855602D02*
X101440200Y-100798459D01*
X101440200Y-100798459D02*
X101497342Y-100684174D01*
X101497342Y-100684174D02*
X101497342Y-100512745D01*
X101497342Y-100512745D02*
X101440200Y-100398459D01*
X101440200Y-100398459D02*
X101383057Y-100341317D01*
X101440200Y-99312745D02*
X101497342Y-99427031D01*
X101497342Y-99427031D02*
X101497342Y-99655603D01*
X101497342Y-99655603D02*
X101440200Y-99769888D01*
X101440200Y-99769888D02*
X101325914Y-99827031D01*
X101325914Y-99827031D02*
X100868771Y-99827031D01*
X100868771Y-99827031D02*
X100754485Y-99769888D01*
X100754485Y-99769888D02*
X100697342Y-99655603D01*
X100697342Y-99655603D02*
X100697342Y-99427031D01*
X100697342Y-99427031D02*
X100754485Y-99312745D01*
X100754485Y-99312745D02*
X100868771Y-99255603D01*
X100868771Y-99255603D02*
X100983057Y-99255603D01*
X100983057Y-99255603D02*
X101097342Y-99827031D01*
X100697342Y-98912746D02*
X100697342Y-98455603D01*
X100297342Y-98741317D02*
X101325914Y-98741317D01*
X101325914Y-98741317D02*
X101440200Y-98684174D01*
X101440200Y-98684174D02*
X101497342Y-98569889D01*
X101497342Y-98569889D02*
X101497342Y-98455603D01*
X101497342Y-97884175D02*
X101440200Y-97998460D01*
X101440200Y-97998460D02*
X101383057Y-98055603D01*
X101383057Y-98055603D02*
X101268771Y-98112746D01*
X101268771Y-98112746D02*
X100925914Y-98112746D01*
X100925914Y-98112746D02*
X100811628Y-98055603D01*
X100811628Y-98055603D02*
X100754485Y-97998460D01*
X100754485Y-97998460D02*
X100697342Y-97884175D01*
X100697342Y-97884175D02*
X100697342Y-97712746D01*
X100697342Y-97712746D02*
X100754485Y-97598460D01*
X100754485Y-97598460D02*
X100811628Y-97541318D01*
X100811628Y-97541318D02*
X100925914Y-97484175D01*
X100925914Y-97484175D02*
X101268771Y-97484175D01*
X101268771Y-97484175D02*
X101383057Y-97541318D01*
X101383057Y-97541318D02*
X101440200Y-97598460D01*
X101440200Y-97598460D02*
X101497342Y-97712746D01*
X101497342Y-97712746D02*
X101497342Y-97884175D01*
X101497342Y-96798461D02*
X101440200Y-96912746D01*
X101440200Y-96912746D02*
X101383057Y-96969889D01*
X101383057Y-96969889D02*
X101268771Y-97027032D01*
X101268771Y-97027032D02*
X100925914Y-97027032D01*
X100925914Y-97027032D02*
X100811628Y-96969889D01*
X100811628Y-96969889D02*
X100754485Y-96912746D01*
X100754485Y-96912746D02*
X100697342Y-96798461D01*
X100697342Y-96798461D02*
X100697342Y-96627032D01*
X100697342Y-96627032D02*
X100754485Y-96512746D01*
X100754485Y-96512746D02*
X100811628Y-96455604D01*
X100811628Y-96455604D02*
X100925914Y-96398461D01*
X100925914Y-96398461D02*
X101268771Y-96398461D01*
X101268771Y-96398461D02*
X101383057Y-96455604D01*
X101383057Y-96455604D02*
X101440200Y-96512746D01*
X101440200Y-96512746D02*
X101497342Y-96627032D01*
X101497342Y-96627032D02*
X101497342Y-96798461D01*
X100697342Y-96055604D02*
X100697342Y-95598461D01*
X100297342Y-95884175D02*
X101325914Y-95884175D01*
X101325914Y-95884175D02*
X101440200Y-95827032D01*
X101440200Y-95827032D02*
X101497342Y-95712747D01*
X101497342Y-95712747D02*
X101497342Y-95598461D01*
X101497342Y-95198461D02*
X100297342Y-95198461D01*
X101497342Y-94684176D02*
X100868771Y-94684176D01*
X100868771Y-94684176D02*
X100754485Y-94741318D01*
X100754485Y-94741318D02*
X100697342Y-94855604D01*
X100697342Y-94855604D02*
X100697342Y-95027033D01*
X100697342Y-95027033D02*
X100754485Y-95141318D01*
X100754485Y-95141318D02*
X100811628Y-95198461D01*
X100697342Y-93369890D02*
X100697342Y-92912747D01*
X100297342Y-93198461D02*
X101325914Y-93198461D01*
X101325914Y-93198461D02*
X101440200Y-93141318D01*
X101440200Y-93141318D02*
X101497342Y-93027033D01*
X101497342Y-93027033D02*
X101497342Y-92912747D01*
X101497342Y-92341319D02*
X101440200Y-92455604D01*
X101440200Y-92455604D02*
X101383057Y-92512747D01*
X101383057Y-92512747D02*
X101268771Y-92569890D01*
X101268771Y-92569890D02*
X100925914Y-92569890D01*
X100925914Y-92569890D02*
X100811628Y-92512747D01*
X100811628Y-92512747D02*
X100754485Y-92455604D01*
X100754485Y-92455604D02*
X100697342Y-92341319D01*
X100697342Y-92341319D02*
X100697342Y-92169890D01*
X100697342Y-92169890D02*
X100754485Y-92055604D01*
X100754485Y-92055604D02*
X100811628Y-91998462D01*
X100811628Y-91998462D02*
X100925914Y-91941319D01*
X100925914Y-91941319D02*
X101268771Y-91941319D01*
X101268771Y-91941319D02*
X101383057Y-91998462D01*
X101383057Y-91998462D02*
X101440200Y-92055604D01*
X101440200Y-92055604D02*
X101497342Y-92169890D01*
X101497342Y-92169890D02*
X101497342Y-92341319D01*
X101497342Y-89998462D02*
X100868771Y-89998462D01*
X100868771Y-89998462D02*
X100754485Y-90055604D01*
X100754485Y-90055604D02*
X100697342Y-90169890D01*
X100697342Y-90169890D02*
X100697342Y-90398462D01*
X100697342Y-90398462D02*
X100754485Y-90512747D01*
X101440200Y-89998462D02*
X101497342Y-90112747D01*
X101497342Y-90112747D02*
X101497342Y-90398462D01*
X101497342Y-90398462D02*
X101440200Y-90512747D01*
X101440200Y-90512747D02*
X101325914Y-90569890D01*
X101325914Y-90569890D02*
X101211628Y-90569890D01*
X101211628Y-90569890D02*
X101097342Y-90512747D01*
X101097342Y-90512747D02*
X101040200Y-90398462D01*
X101040200Y-90398462D02*
X101040200Y-90112747D01*
X101040200Y-90112747D02*
X100983057Y-89998462D01*
X100697342Y-88627033D02*
X101497342Y-88398462D01*
X101497342Y-88398462D02*
X100925914Y-88169890D01*
X100925914Y-88169890D02*
X101497342Y-87941319D01*
X101497342Y-87941319D02*
X100697342Y-87712747D01*
X101440200Y-86798461D02*
X101497342Y-86912747D01*
X101497342Y-86912747D02*
X101497342Y-87141319D01*
X101497342Y-87141319D02*
X101440200Y-87255604D01*
X101440200Y-87255604D02*
X101325914Y-87312747D01*
X101325914Y-87312747D02*
X100868771Y-87312747D01*
X100868771Y-87312747D02*
X100754485Y-87255604D01*
X100754485Y-87255604D02*
X100697342Y-87141319D01*
X100697342Y-87141319D02*
X100697342Y-86912747D01*
X100697342Y-86912747D02*
X100754485Y-86798461D01*
X100754485Y-86798461D02*
X100868771Y-86741319D01*
X100868771Y-86741319D02*
X100983057Y-86741319D01*
X100983057Y-86741319D02*
X101097342Y-87312747D01*
X101497342Y-86227033D02*
X100297342Y-86227033D01*
X100754485Y-86227033D02*
X100697342Y-86112748D01*
X100697342Y-86112748D02*
X100697342Y-85884176D01*
X100697342Y-85884176D02*
X100754485Y-85769890D01*
X100754485Y-85769890D02*
X100811628Y-85712748D01*
X100811628Y-85712748D02*
X100925914Y-85655605D01*
X100925914Y-85655605D02*
X101268771Y-85655605D01*
X101268771Y-85655605D02*
X101383057Y-85712748D01*
X101383057Y-85712748D02*
X101440200Y-85769890D01*
X101440200Y-85769890D02*
X101497342Y-85884176D01*
X101497342Y-85884176D02*
X101497342Y-86112748D01*
X101497342Y-86112748D02*
X101440200Y-86227033D01*
X101497342Y-84227033D02*
X100297342Y-84227033D01*
X100754485Y-84227033D02*
X100697342Y-84112748D01*
X100697342Y-84112748D02*
X100697342Y-83884176D01*
X100697342Y-83884176D02*
X100754485Y-83769890D01*
X100754485Y-83769890D02*
X100811628Y-83712748D01*
X100811628Y-83712748D02*
X100925914Y-83655605D01*
X100925914Y-83655605D02*
X101268771Y-83655605D01*
X101268771Y-83655605D02*
X101383057Y-83712748D01*
X101383057Y-83712748D02*
X101440200Y-83769890D01*
X101440200Y-83769890D02*
X101497342Y-83884176D01*
X101497342Y-83884176D02*
X101497342Y-84112748D01*
X101497342Y-84112748D02*
X101440200Y-84227033D01*
X101497342Y-83141319D02*
X100697342Y-83141319D01*
X100925914Y-83141319D02*
X100811628Y-83084176D01*
X100811628Y-83084176D02*
X100754485Y-83027034D01*
X100754485Y-83027034D02*
X100697342Y-82912748D01*
X100697342Y-82912748D02*
X100697342Y-82798462D01*
X101497342Y-82227034D02*
X101440200Y-82341319D01*
X101440200Y-82341319D02*
X101383057Y-82398462D01*
X101383057Y-82398462D02*
X101268771Y-82455605D01*
X101268771Y-82455605D02*
X100925914Y-82455605D01*
X100925914Y-82455605D02*
X100811628Y-82398462D01*
X100811628Y-82398462D02*
X100754485Y-82341319D01*
X100754485Y-82341319D02*
X100697342Y-82227034D01*
X100697342Y-82227034D02*
X100697342Y-82055605D01*
X100697342Y-82055605D02*
X100754485Y-81941319D01*
X100754485Y-81941319D02*
X100811628Y-81884177D01*
X100811628Y-81884177D02*
X100925914Y-81827034D01*
X100925914Y-81827034D02*
X101268771Y-81827034D01*
X101268771Y-81827034D02*
X101383057Y-81884177D01*
X101383057Y-81884177D02*
X101440200Y-81941319D01*
X101440200Y-81941319D02*
X101497342Y-82055605D01*
X101497342Y-82055605D02*
X101497342Y-82227034D01*
X100697342Y-81427034D02*
X101497342Y-81198463D01*
X101497342Y-81198463D02*
X100925914Y-80969891D01*
X100925914Y-80969891D02*
X101497342Y-80741320D01*
X101497342Y-80741320D02*
X100697342Y-80512748D01*
X101440200Y-80112748D02*
X101497342Y-79998462D01*
X101497342Y-79998462D02*
X101497342Y-79769891D01*
X101497342Y-79769891D02*
X101440200Y-79655605D01*
X101440200Y-79655605D02*
X101325914Y-79598462D01*
X101325914Y-79598462D02*
X101268771Y-79598462D01*
X101268771Y-79598462D02*
X101154485Y-79655605D01*
X101154485Y-79655605D02*
X101097342Y-79769891D01*
X101097342Y-79769891D02*
X101097342Y-79941320D01*
X101097342Y-79941320D02*
X101040200Y-80055605D01*
X101040200Y-80055605D02*
X100925914Y-80112748D01*
X100925914Y-80112748D02*
X100868771Y-80112748D01*
X100868771Y-80112748D02*
X100754485Y-80055605D01*
X100754485Y-80055605D02*
X100697342Y-79941320D01*
X100697342Y-79941320D02*
X100697342Y-79769891D01*
X100697342Y-79769891D02*
X100754485Y-79655605D01*
X101440200Y-78627033D02*
X101497342Y-78741319D01*
X101497342Y-78741319D02*
X101497342Y-78969891D01*
X101497342Y-78969891D02*
X101440200Y-79084176D01*
X101440200Y-79084176D02*
X101325914Y-79141319D01*
X101325914Y-79141319D02*
X100868771Y-79141319D01*
X100868771Y-79141319D02*
X100754485Y-79084176D01*
X100754485Y-79084176D02*
X100697342Y-78969891D01*
X100697342Y-78969891D02*
X100697342Y-78741319D01*
X100697342Y-78741319D02*
X100754485Y-78627033D01*
X100754485Y-78627033D02*
X100868771Y-78569891D01*
X100868771Y-78569891D02*
X100983057Y-78569891D01*
X100983057Y-78569891D02*
X101097342Y-79141319D01*
X101497342Y-78055605D02*
X100697342Y-78055605D01*
X100925914Y-78055605D02*
X100811628Y-77998462D01*
X100811628Y-77998462D02*
X100754485Y-77941320D01*
X100754485Y-77941320D02*
X100697342Y-77827034D01*
X100697342Y-77827034D02*
X100697342Y-77712748D01*
X101383057Y-77312748D02*
X101440200Y-77255605D01*
X101440200Y-77255605D02*
X101497342Y-77312748D01*
X101497342Y-77312748D02*
X101440200Y-77369891D01*
X101440200Y-77369891D02*
X101383057Y-77312748D01*
X101383057Y-77312748D02*
X101497342Y-77312748D01*
X104161342Y-107427030D02*
X104161342Y-106741316D01*
X105361342Y-107084173D02*
X104161342Y-107084173D01*
X105361342Y-106169887D02*
X105304200Y-106284172D01*
X105304200Y-106284172D02*
X105247057Y-106341315D01*
X105247057Y-106341315D02*
X105132771Y-106398458D01*
X105132771Y-106398458D02*
X104789914Y-106398458D01*
X104789914Y-106398458D02*
X104675628Y-106341315D01*
X104675628Y-106341315D02*
X104618485Y-106284172D01*
X104618485Y-106284172D02*
X104561342Y-106169887D01*
X104561342Y-106169887D02*
X104561342Y-105998458D01*
X104561342Y-105998458D02*
X104618485Y-105884172D01*
X104618485Y-105884172D02*
X104675628Y-105827030D01*
X104675628Y-105827030D02*
X104789914Y-105769887D01*
X104789914Y-105769887D02*
X105132771Y-105769887D01*
X105132771Y-105769887D02*
X105247057Y-105827030D01*
X105247057Y-105827030D02*
X105304200Y-105884172D01*
X105304200Y-105884172D02*
X105361342Y-105998458D01*
X105361342Y-105998458D02*
X105361342Y-106169887D01*
X104561342Y-104455601D02*
X105361342Y-104169887D01*
X105361342Y-104169887D02*
X104561342Y-103884172D01*
X105361342Y-103427029D02*
X104561342Y-103427029D01*
X104161342Y-103427029D02*
X104218485Y-103484172D01*
X104218485Y-103484172D02*
X104275628Y-103427029D01*
X104275628Y-103427029D02*
X104218485Y-103369886D01*
X104218485Y-103369886D02*
X104161342Y-103427029D01*
X104161342Y-103427029D02*
X104275628Y-103427029D01*
X105304200Y-102398457D02*
X105361342Y-102512743D01*
X105361342Y-102512743D02*
X105361342Y-102741315D01*
X105361342Y-102741315D02*
X105304200Y-102855600D01*
X105304200Y-102855600D02*
X105189914Y-102912743D01*
X105189914Y-102912743D02*
X104732771Y-102912743D01*
X104732771Y-102912743D02*
X104618485Y-102855600D01*
X104618485Y-102855600D02*
X104561342Y-102741315D01*
X104561342Y-102741315D02*
X104561342Y-102512743D01*
X104561342Y-102512743D02*
X104618485Y-102398457D01*
X104618485Y-102398457D02*
X104732771Y-102341315D01*
X104732771Y-102341315D02*
X104847057Y-102341315D01*
X104847057Y-102341315D02*
X104961342Y-102912743D01*
X104561342Y-101941315D02*
X105361342Y-101712744D01*
X105361342Y-101712744D02*
X104789914Y-101484172D01*
X104789914Y-101484172D02*
X105361342Y-101255601D01*
X105361342Y-101255601D02*
X104561342Y-101027029D01*
X105361342Y-99655600D02*
X104561342Y-99655600D01*
X104161342Y-99655600D02*
X104218485Y-99712743D01*
X104218485Y-99712743D02*
X104275628Y-99655600D01*
X104275628Y-99655600D02*
X104218485Y-99598457D01*
X104218485Y-99598457D02*
X104161342Y-99655600D01*
X104161342Y-99655600D02*
X104275628Y-99655600D01*
X104561342Y-99255600D02*
X104561342Y-98798457D01*
X104161342Y-99084171D02*
X105189914Y-99084171D01*
X105189914Y-99084171D02*
X105304200Y-99027028D01*
X105304200Y-99027028D02*
X105361342Y-98912743D01*
X105361342Y-98912743D02*
X105361342Y-98798457D01*
X105361342Y-97484171D02*
X104561342Y-97484171D01*
X104161342Y-97484171D02*
X104218485Y-97541314D01*
X104218485Y-97541314D02*
X104275628Y-97484171D01*
X104275628Y-97484171D02*
X104218485Y-97427028D01*
X104218485Y-97427028D02*
X104161342Y-97484171D01*
X104161342Y-97484171D02*
X104275628Y-97484171D01*
X104561342Y-96912742D02*
X105361342Y-96912742D01*
X104675628Y-96912742D02*
X104618485Y-96855599D01*
X104618485Y-96855599D02*
X104561342Y-96741314D01*
X104561342Y-96741314D02*
X104561342Y-96569885D01*
X104561342Y-96569885D02*
X104618485Y-96455599D01*
X104618485Y-96455599D02*
X104732771Y-96398457D01*
X104732771Y-96398457D02*
X105361342Y-96398457D01*
X105361342Y-94398457D02*
X104732771Y-94398457D01*
X104732771Y-94398457D02*
X104618485Y-94455599D01*
X104618485Y-94455599D02*
X104561342Y-94569885D01*
X104561342Y-94569885D02*
X104561342Y-94798457D01*
X104561342Y-94798457D02*
X104618485Y-94912742D01*
X105304200Y-94398457D02*
X105361342Y-94512742D01*
X105361342Y-94512742D02*
X105361342Y-94798457D01*
X105361342Y-94798457D02*
X105304200Y-94912742D01*
X105304200Y-94912742D02*
X105189914Y-94969885D01*
X105189914Y-94969885D02*
X105075628Y-94969885D01*
X105075628Y-94969885D02*
X104961342Y-94912742D01*
X104961342Y-94912742D02*
X104904200Y-94798457D01*
X104904200Y-94798457D02*
X104904200Y-94512742D01*
X104904200Y-94512742D02*
X104847057Y-94398457D01*
X105304200Y-93312743D02*
X105361342Y-93427028D01*
X105361342Y-93427028D02*
X105361342Y-93655600D01*
X105361342Y-93655600D02*
X105304200Y-93769885D01*
X105304200Y-93769885D02*
X105247057Y-93827028D01*
X105247057Y-93827028D02*
X105132771Y-93884171D01*
X105132771Y-93884171D02*
X104789914Y-93884171D01*
X104789914Y-93884171D02*
X104675628Y-93827028D01*
X104675628Y-93827028D02*
X104618485Y-93769885D01*
X104618485Y-93769885D02*
X104561342Y-93655600D01*
X104561342Y-93655600D02*
X104561342Y-93427028D01*
X104561342Y-93427028D02*
X104618485Y-93312743D01*
X104561342Y-92969886D02*
X104561342Y-92512743D01*
X104161342Y-92798457D02*
X105189914Y-92798457D01*
X105189914Y-92798457D02*
X105304200Y-92741314D01*
X105304200Y-92741314D02*
X105361342Y-92627029D01*
X105361342Y-92627029D02*
X105361342Y-92512743D01*
X105361342Y-92112743D02*
X104561342Y-92112743D01*
X104161342Y-92112743D02*
X104218485Y-92169886D01*
X104218485Y-92169886D02*
X104275628Y-92112743D01*
X104275628Y-92112743D02*
X104218485Y-92055600D01*
X104218485Y-92055600D02*
X104161342Y-92112743D01*
X104161342Y-92112743D02*
X104275628Y-92112743D01*
X105361342Y-91369886D02*
X105304200Y-91484171D01*
X105304200Y-91484171D02*
X105247057Y-91541314D01*
X105247057Y-91541314D02*
X105132771Y-91598457D01*
X105132771Y-91598457D02*
X104789914Y-91598457D01*
X104789914Y-91598457D02*
X104675628Y-91541314D01*
X104675628Y-91541314D02*
X104618485Y-91484171D01*
X104618485Y-91484171D02*
X104561342Y-91369886D01*
X104561342Y-91369886D02*
X104561342Y-91198457D01*
X104561342Y-91198457D02*
X104618485Y-91084171D01*
X104618485Y-91084171D02*
X104675628Y-91027029D01*
X104675628Y-91027029D02*
X104789914Y-90969886D01*
X104789914Y-90969886D02*
X105132771Y-90969886D01*
X105132771Y-90969886D02*
X105247057Y-91027029D01*
X105247057Y-91027029D02*
X105304200Y-91084171D01*
X105304200Y-91084171D02*
X105361342Y-91198457D01*
X105361342Y-91198457D02*
X105361342Y-91369886D01*
X104561342Y-90455600D02*
X105361342Y-90455600D01*
X104675628Y-90455600D02*
X104618485Y-90398457D01*
X104618485Y-90398457D02*
X104561342Y-90284172D01*
X104561342Y-90284172D02*
X104561342Y-90112743D01*
X104561342Y-90112743D02*
X104618485Y-89998457D01*
X104618485Y-89998457D02*
X104732771Y-89941315D01*
X104732771Y-89941315D02*
X105361342Y-89941315D01*
X105304200Y-89312743D02*
X105361342Y-89312743D01*
X105361342Y-89312743D02*
X105475628Y-89369886D01*
X105475628Y-89369886D02*
X105532771Y-89427029D01*
X105304200Y-87369886D02*
X105361342Y-87484171D01*
X105361342Y-87484171D02*
X105361342Y-87712743D01*
X105361342Y-87712743D02*
X105304200Y-87827028D01*
X105304200Y-87827028D02*
X105247057Y-87884171D01*
X105247057Y-87884171D02*
X105132771Y-87941314D01*
X105132771Y-87941314D02*
X104789914Y-87941314D01*
X104789914Y-87941314D02*
X104675628Y-87884171D01*
X104675628Y-87884171D02*
X104618485Y-87827028D01*
X104618485Y-87827028D02*
X104561342Y-87712743D01*
X104561342Y-87712743D02*
X104561342Y-87484171D01*
X104561342Y-87484171D02*
X104618485Y-87369886D01*
X105361342Y-86684172D02*
X105304200Y-86798457D01*
X105304200Y-86798457D02*
X105247057Y-86855600D01*
X105247057Y-86855600D02*
X105132771Y-86912743D01*
X105132771Y-86912743D02*
X104789914Y-86912743D01*
X104789914Y-86912743D02*
X104675628Y-86855600D01*
X104675628Y-86855600D02*
X104618485Y-86798457D01*
X104618485Y-86798457D02*
X104561342Y-86684172D01*
X104561342Y-86684172D02*
X104561342Y-86512743D01*
X104561342Y-86512743D02*
X104618485Y-86398457D01*
X104618485Y-86398457D02*
X104675628Y-86341315D01*
X104675628Y-86341315D02*
X104789914Y-86284172D01*
X104789914Y-86284172D02*
X105132771Y-86284172D01*
X105132771Y-86284172D02*
X105247057Y-86341315D01*
X105247057Y-86341315D02*
X105304200Y-86398457D01*
X105304200Y-86398457D02*
X105361342Y-86512743D01*
X105361342Y-86512743D02*
X105361342Y-86684172D01*
X104561342Y-85769886D02*
X105361342Y-85769886D01*
X104675628Y-85769886D02*
X104618485Y-85712743D01*
X104618485Y-85712743D02*
X104561342Y-85598458D01*
X104561342Y-85598458D02*
X104561342Y-85427029D01*
X104561342Y-85427029D02*
X104618485Y-85312743D01*
X104618485Y-85312743D02*
X104732771Y-85255601D01*
X104732771Y-85255601D02*
X105361342Y-85255601D01*
X104561342Y-84684172D02*
X105361342Y-84684172D01*
X104675628Y-84684172D02*
X104618485Y-84627029D01*
X104618485Y-84627029D02*
X104561342Y-84512744D01*
X104561342Y-84512744D02*
X104561342Y-84341315D01*
X104561342Y-84341315D02*
X104618485Y-84227029D01*
X104618485Y-84227029D02*
X104732771Y-84169887D01*
X104732771Y-84169887D02*
X105361342Y-84169887D01*
X105304200Y-83141315D02*
X105361342Y-83255601D01*
X105361342Y-83255601D02*
X105361342Y-83484173D01*
X105361342Y-83484173D02*
X105304200Y-83598458D01*
X105304200Y-83598458D02*
X105189914Y-83655601D01*
X105189914Y-83655601D02*
X104732771Y-83655601D01*
X104732771Y-83655601D02*
X104618485Y-83598458D01*
X104618485Y-83598458D02*
X104561342Y-83484173D01*
X104561342Y-83484173D02*
X104561342Y-83255601D01*
X104561342Y-83255601D02*
X104618485Y-83141315D01*
X104618485Y-83141315D02*
X104732771Y-83084173D01*
X104732771Y-83084173D02*
X104847057Y-83084173D01*
X104847057Y-83084173D02*
X104961342Y-83655601D01*
X105304200Y-82055602D02*
X105361342Y-82169887D01*
X105361342Y-82169887D02*
X105361342Y-82398459D01*
X105361342Y-82398459D02*
X105304200Y-82512744D01*
X105304200Y-82512744D02*
X105247057Y-82569887D01*
X105247057Y-82569887D02*
X105132771Y-82627030D01*
X105132771Y-82627030D02*
X104789914Y-82627030D01*
X104789914Y-82627030D02*
X104675628Y-82569887D01*
X104675628Y-82569887D02*
X104618485Y-82512744D01*
X104618485Y-82512744D02*
X104561342Y-82398459D01*
X104561342Y-82398459D02*
X104561342Y-82169887D01*
X104561342Y-82169887D02*
X104618485Y-82055602D01*
X104561342Y-81712745D02*
X104561342Y-81255602D01*
X104161342Y-81541316D02*
X105189914Y-81541316D01*
X105189914Y-81541316D02*
X105304200Y-81484173D01*
X105304200Y-81484173D02*
X105361342Y-81369888D01*
X105361342Y-81369888D02*
X105361342Y-81255602D01*
X105361342Y-79941316D02*
X104561342Y-79941316D01*
X104161342Y-79941316D02*
X104218485Y-79998459D01*
X104218485Y-79998459D02*
X104275628Y-79941316D01*
X104275628Y-79941316D02*
X104218485Y-79884173D01*
X104218485Y-79884173D02*
X104161342Y-79941316D01*
X104161342Y-79941316D02*
X104275628Y-79941316D01*
X104561342Y-79541316D02*
X104561342Y-79084173D01*
X104161342Y-79369887D02*
X105189914Y-79369887D01*
X105189914Y-79369887D02*
X105304200Y-79312744D01*
X105304200Y-79312744D02*
X105361342Y-79198459D01*
X105361342Y-79198459D02*
X105361342Y-79084173D01*
X105361342Y-77255602D02*
X104732771Y-77255602D01*
X104732771Y-77255602D02*
X104618485Y-77312744D01*
X104618485Y-77312744D02*
X104561342Y-77427030D01*
X104561342Y-77427030D02*
X104561342Y-77655602D01*
X104561342Y-77655602D02*
X104618485Y-77769887D01*
X105304200Y-77255602D02*
X105361342Y-77369887D01*
X105361342Y-77369887D02*
X105361342Y-77655602D01*
X105361342Y-77655602D02*
X105304200Y-77769887D01*
X105304200Y-77769887D02*
X105189914Y-77827030D01*
X105189914Y-77827030D02*
X105075628Y-77827030D01*
X105075628Y-77827030D02*
X104961342Y-77769887D01*
X104961342Y-77769887D02*
X104904200Y-77655602D01*
X104904200Y-77655602D02*
X104904200Y-77369887D01*
X104904200Y-77369887D02*
X104847057Y-77255602D01*
X104561342Y-76855602D02*
X104561342Y-76398459D01*
X104161342Y-76684173D02*
X105189914Y-76684173D01*
X105189914Y-76684173D02*
X105304200Y-76627030D01*
X105304200Y-76627030D02*
X105361342Y-76512745D01*
X105361342Y-76512745D02*
X105361342Y-76398459D01*
X105361342Y-75084173D02*
X104161342Y-75084173D01*
X104618485Y-75084173D02*
X104561342Y-74969888D01*
X104561342Y-74969888D02*
X104561342Y-74741316D01*
X104561342Y-74741316D02*
X104618485Y-74627030D01*
X104618485Y-74627030D02*
X104675628Y-74569888D01*
X104675628Y-74569888D02*
X104789914Y-74512745D01*
X104789914Y-74512745D02*
X105132771Y-74512745D01*
X105132771Y-74512745D02*
X105247057Y-74569888D01*
X105247057Y-74569888D02*
X105304200Y-74627030D01*
X105304200Y-74627030D02*
X105361342Y-74741316D01*
X105361342Y-74741316D02*
X105361342Y-74969888D01*
X105361342Y-74969888D02*
X105304200Y-75084173D01*
X105361342Y-73998459D02*
X104561342Y-73998459D01*
X104161342Y-73998459D02*
X104218485Y-74055602D01*
X104218485Y-74055602D02*
X104275628Y-73998459D01*
X104275628Y-73998459D02*
X104218485Y-73941316D01*
X104218485Y-73941316D02*
X104161342Y-73998459D01*
X104161342Y-73998459D02*
X104275628Y-73998459D01*
X105361342Y-73255602D02*
X105304200Y-73369887D01*
X105304200Y-73369887D02*
X105247057Y-73427030D01*
X105247057Y-73427030D02*
X105132771Y-73484173D01*
X105132771Y-73484173D02*
X104789914Y-73484173D01*
X104789914Y-73484173D02*
X104675628Y-73427030D01*
X104675628Y-73427030D02*
X104618485Y-73369887D01*
X104618485Y-73369887D02*
X104561342Y-73255602D01*
X104561342Y-73255602D02*
X104561342Y-73084173D01*
X104561342Y-73084173D02*
X104618485Y-72969887D01*
X104618485Y-72969887D02*
X104675628Y-72912745D01*
X104675628Y-72912745D02*
X104789914Y-72855602D01*
X104789914Y-72855602D02*
X105132771Y-72855602D01*
X105132771Y-72855602D02*
X105247057Y-72912745D01*
X105247057Y-72912745D02*
X105304200Y-72969887D01*
X105304200Y-72969887D02*
X105361342Y-73084173D01*
X105361342Y-73084173D02*
X105361342Y-73255602D01*
X105361342Y-72341316D02*
X104561342Y-72341316D01*
X104675628Y-72341316D02*
X104618485Y-72284173D01*
X104618485Y-72284173D02*
X104561342Y-72169888D01*
X104561342Y-72169888D02*
X104561342Y-71998459D01*
X104561342Y-71998459D02*
X104618485Y-71884173D01*
X104618485Y-71884173D02*
X104732771Y-71827031D01*
X104732771Y-71827031D02*
X105361342Y-71827031D01*
X104732771Y-71827031D02*
X104618485Y-71769888D01*
X104618485Y-71769888D02*
X104561342Y-71655602D01*
X104561342Y-71655602D02*
X104561342Y-71484173D01*
X104561342Y-71484173D02*
X104618485Y-71369888D01*
X104618485Y-71369888D02*
X104732771Y-71312745D01*
X104732771Y-71312745D02*
X105361342Y-71312745D01*
X105304200Y-70284173D02*
X105361342Y-70398459D01*
X105361342Y-70398459D02*
X105361342Y-70627031D01*
X105361342Y-70627031D02*
X105304200Y-70741316D01*
X105304200Y-70741316D02*
X105189914Y-70798459D01*
X105189914Y-70798459D02*
X104732771Y-70798459D01*
X104732771Y-70798459D02*
X104618485Y-70741316D01*
X104618485Y-70741316D02*
X104561342Y-70627031D01*
X104561342Y-70627031D02*
X104561342Y-70398459D01*
X104561342Y-70398459D02*
X104618485Y-70284173D01*
X104618485Y-70284173D02*
X104732771Y-70227031D01*
X104732771Y-70227031D02*
X104847057Y-70227031D01*
X104847057Y-70227031D02*
X104961342Y-70798459D01*
X104561342Y-69884174D02*
X104561342Y-69427031D01*
X104161342Y-69712745D02*
X105189914Y-69712745D01*
X105189914Y-69712745D02*
X105304200Y-69655602D01*
X105304200Y-69655602D02*
X105361342Y-69541317D01*
X105361342Y-69541317D02*
X105361342Y-69427031D01*
X105361342Y-69027031D02*
X104561342Y-69027031D01*
X104789914Y-69027031D02*
X104675628Y-68969888D01*
X104675628Y-68969888D02*
X104618485Y-68912746D01*
X104618485Y-68912746D02*
X104561342Y-68798460D01*
X104561342Y-68798460D02*
X104561342Y-68684174D01*
X105361342Y-68284174D02*
X104561342Y-68284174D01*
X104161342Y-68284174D02*
X104218485Y-68341317D01*
X104218485Y-68341317D02*
X104275628Y-68284174D01*
X104275628Y-68284174D02*
X104218485Y-68227031D01*
X104218485Y-68227031D02*
X104161342Y-68284174D01*
X104161342Y-68284174D02*
X104275628Y-68284174D01*
X105304200Y-67198460D02*
X105361342Y-67312745D01*
X105361342Y-67312745D02*
X105361342Y-67541317D01*
X105361342Y-67541317D02*
X105304200Y-67655602D01*
X105304200Y-67655602D02*
X105247057Y-67712745D01*
X105247057Y-67712745D02*
X105132771Y-67769888D01*
X105132771Y-67769888D02*
X104789914Y-67769888D01*
X104789914Y-67769888D02*
X104675628Y-67712745D01*
X104675628Y-67712745D02*
X104618485Y-67655602D01*
X104618485Y-67655602D02*
X104561342Y-67541317D01*
X104561342Y-67541317D02*
X104561342Y-67312745D01*
X104561342Y-67312745D02*
X104618485Y-67198460D01*
X105304200Y-66741317D02*
X105361342Y-66627031D01*
X105361342Y-66627031D02*
X105361342Y-66398460D01*
X105361342Y-66398460D02*
X105304200Y-66284174D01*
X105304200Y-66284174D02*
X105189914Y-66227031D01*
X105189914Y-66227031D02*
X105132771Y-66227031D01*
X105132771Y-66227031D02*
X105018485Y-66284174D01*
X105018485Y-66284174D02*
X104961342Y-66398460D01*
X104961342Y-66398460D02*
X104961342Y-66569889D01*
X104961342Y-66569889D02*
X104904200Y-66684174D01*
X104904200Y-66684174D02*
X104789914Y-66741317D01*
X104789914Y-66741317D02*
X104732771Y-66741317D01*
X104732771Y-66741317D02*
X104618485Y-66684174D01*
X104618485Y-66684174D02*
X104561342Y-66569889D01*
X104561342Y-66569889D02*
X104561342Y-66398460D01*
X104561342Y-66398460D02*
X104618485Y-66284174D01*
X105247057Y-65712745D02*
X105304200Y-65655602D01*
X105304200Y-65655602D02*
X105361342Y-65712745D01*
X105361342Y-65712745D02*
X105304200Y-65769888D01*
X105304200Y-65769888D02*
X105247057Y-65712745D01*
X105247057Y-65712745D02*
X105361342Y-65712745D01*
X105361342Y-64627031D02*
X104161342Y-64627031D01*
X105304200Y-64627031D02*
X105361342Y-64741316D01*
X105361342Y-64741316D02*
X105361342Y-64969888D01*
X105361342Y-64969888D02*
X105304200Y-65084173D01*
X105304200Y-65084173D02*
X105247057Y-65141316D01*
X105247057Y-65141316D02*
X105132771Y-65198459D01*
X105132771Y-65198459D02*
X104789914Y-65198459D01*
X104789914Y-65198459D02*
X104675628Y-65141316D01*
X104675628Y-65141316D02*
X104618485Y-65084173D01*
X104618485Y-65084173D02*
X104561342Y-64969888D01*
X104561342Y-64969888D02*
X104561342Y-64741316D01*
X104561342Y-64741316D02*
X104618485Y-64627031D01*
X105361342Y-63541317D02*
X104732771Y-63541317D01*
X104732771Y-63541317D02*
X104618485Y-63598459D01*
X104618485Y-63598459D02*
X104561342Y-63712745D01*
X104561342Y-63712745D02*
X104561342Y-63941317D01*
X104561342Y-63941317D02*
X104618485Y-64055602D01*
X105304200Y-63541317D02*
X105361342Y-63655602D01*
X105361342Y-63655602D02*
X105361342Y-63941317D01*
X105361342Y-63941317D02*
X105304200Y-64055602D01*
X105304200Y-64055602D02*
X105189914Y-64112745D01*
X105189914Y-64112745D02*
X105075628Y-64112745D01*
X105075628Y-64112745D02*
X104961342Y-64055602D01*
X104961342Y-64055602D02*
X104904200Y-63941317D01*
X104904200Y-63941317D02*
X104904200Y-63655602D01*
X104904200Y-63655602D02*
X104847057Y-63541317D01*
X104561342Y-62969888D02*
X105361342Y-62969888D01*
X104675628Y-62969888D02*
X104618485Y-62912745D01*
X104618485Y-62912745D02*
X104561342Y-62798460D01*
X104561342Y-62798460D02*
X104561342Y-62627031D01*
X104561342Y-62627031D02*
X104618485Y-62512745D01*
X104618485Y-62512745D02*
X104732771Y-62455603D01*
X104732771Y-62455603D02*
X105361342Y-62455603D01*
X105361342Y-61884174D02*
X104561342Y-61884174D01*
X104161342Y-61884174D02*
X104218485Y-61941317D01*
X104218485Y-61941317D02*
X104275628Y-61884174D01*
X104275628Y-61884174D02*
X104218485Y-61827031D01*
X104218485Y-61827031D02*
X104161342Y-61884174D01*
X104161342Y-61884174D02*
X104275628Y-61884174D01*
X105304200Y-60855602D02*
X105361342Y-60969888D01*
X105361342Y-60969888D02*
X105361342Y-61198460D01*
X105361342Y-61198460D02*
X105304200Y-61312745D01*
X105304200Y-61312745D02*
X105189914Y-61369888D01*
X105189914Y-61369888D02*
X104732771Y-61369888D01*
X104732771Y-61369888D02*
X104618485Y-61312745D01*
X104618485Y-61312745D02*
X104561342Y-61198460D01*
X104561342Y-61198460D02*
X104561342Y-60969888D01*
X104561342Y-60969888D02*
X104618485Y-60855602D01*
X104618485Y-60855602D02*
X104732771Y-60798460D01*
X104732771Y-60798460D02*
X104847057Y-60798460D01*
X104847057Y-60798460D02*
X104961342Y-61369888D01*
X105361342Y-60112746D02*
X105304200Y-60227031D01*
X105304200Y-60227031D02*
X105189914Y-60284174D01*
X105189914Y-60284174D02*
X104161342Y-60284174D01*
X105304200Y-59712746D02*
X105361342Y-59598460D01*
X105361342Y-59598460D02*
X105361342Y-59369889D01*
X105361342Y-59369889D02*
X105304200Y-59255603D01*
X105304200Y-59255603D02*
X105189914Y-59198460D01*
X105189914Y-59198460D02*
X105132771Y-59198460D01*
X105132771Y-59198460D02*
X105018485Y-59255603D01*
X105018485Y-59255603D02*
X104961342Y-59369889D01*
X104961342Y-59369889D02*
X104961342Y-59541318D01*
X104961342Y-59541318D02*
X104904200Y-59655603D01*
X104904200Y-59655603D02*
X104789914Y-59712746D01*
X104789914Y-59712746D02*
X104732771Y-59712746D01*
X104732771Y-59712746D02*
X104618485Y-59655603D01*
X104618485Y-59655603D02*
X104561342Y-59541318D01*
X104561342Y-59541318D02*
X104561342Y-59369889D01*
X104561342Y-59369889D02*
X104618485Y-59255603D01*
X104561342Y-58855603D02*
X104561342Y-58398460D01*
X104161342Y-58684174D02*
X105189914Y-58684174D01*
X105189914Y-58684174D02*
X105304200Y-58627031D01*
X105304200Y-58627031D02*
X105361342Y-58512746D01*
X105361342Y-58512746D02*
X105361342Y-58398460D01*
X105361342Y-57998460D02*
X104561342Y-57998460D01*
X104789914Y-57998460D02*
X104675628Y-57941317D01*
X104675628Y-57941317D02*
X104618485Y-57884175D01*
X104618485Y-57884175D02*
X104561342Y-57769889D01*
X104561342Y-57769889D02*
X104561342Y-57655603D01*
X105361342Y-56741318D02*
X104732771Y-56741318D01*
X104732771Y-56741318D02*
X104618485Y-56798460D01*
X104618485Y-56798460D02*
X104561342Y-56912746D01*
X104561342Y-56912746D02*
X104561342Y-57141318D01*
X104561342Y-57141318D02*
X104618485Y-57255603D01*
X105304200Y-56741318D02*
X105361342Y-56855603D01*
X105361342Y-56855603D02*
X105361342Y-57141318D01*
X105361342Y-57141318D02*
X105304200Y-57255603D01*
X105304200Y-57255603D02*
X105189914Y-57312746D01*
X105189914Y-57312746D02*
X105075628Y-57312746D01*
X105075628Y-57312746D02*
X104961342Y-57255603D01*
X104961342Y-57255603D02*
X104904200Y-57141318D01*
X104904200Y-57141318D02*
X104904200Y-56855603D01*
X104904200Y-56855603D02*
X104847057Y-56741318D01*
X105361342Y-56169889D02*
X104161342Y-56169889D01*
X104618485Y-56169889D02*
X104561342Y-56055604D01*
X104561342Y-56055604D02*
X104561342Y-55827032D01*
X104561342Y-55827032D02*
X104618485Y-55712746D01*
X104618485Y-55712746D02*
X104675628Y-55655604D01*
X104675628Y-55655604D02*
X104789914Y-55598461D01*
X104789914Y-55598461D02*
X105132771Y-55598461D01*
X105132771Y-55598461D02*
X105247057Y-55655604D01*
X105247057Y-55655604D02*
X105304200Y-55712746D01*
X105304200Y-55712746D02*
X105361342Y-55827032D01*
X105361342Y-55827032D02*
X105361342Y-56055604D01*
X105361342Y-56055604D02*
X105304200Y-56169889D01*
X105361342Y-54912747D02*
X105304200Y-55027032D01*
X105304200Y-55027032D02*
X105189914Y-55084175D01*
X105189914Y-55084175D02*
X104161342Y-55084175D01*
X105304200Y-53998461D02*
X105361342Y-54112747D01*
X105361342Y-54112747D02*
X105361342Y-54341319D01*
X105361342Y-54341319D02*
X105304200Y-54455604D01*
X105304200Y-54455604D02*
X105189914Y-54512747D01*
X105189914Y-54512747D02*
X104732771Y-54512747D01*
X104732771Y-54512747D02*
X104618485Y-54455604D01*
X104618485Y-54455604D02*
X104561342Y-54341319D01*
X104561342Y-54341319D02*
X104561342Y-54112747D01*
X104561342Y-54112747D02*
X104618485Y-53998461D01*
X104618485Y-53998461D02*
X104732771Y-53941319D01*
X104732771Y-53941319D02*
X104847057Y-53941319D01*
X104847057Y-53941319D02*
X104961342Y-54512747D01*
X104561342Y-53541319D02*
X105361342Y-53255605D01*
X104561342Y-52969890D02*
X105361342Y-53255605D01*
X105361342Y-53255605D02*
X105647057Y-53369890D01*
X105647057Y-53369890D02*
X105704200Y-53427033D01*
X105704200Y-53427033D02*
X105761342Y-53541319D01*
X105247057Y-52512747D02*
X105304200Y-52455604D01*
X105304200Y-52455604D02*
X105361342Y-52512747D01*
X105361342Y-52512747D02*
X105304200Y-52569890D01*
X105304200Y-52569890D02*
X105247057Y-52512747D01*
X105247057Y-52512747D02*
X105361342Y-52512747D01*
X105304200Y-51427033D02*
X105361342Y-51541318D01*
X105361342Y-51541318D02*
X105361342Y-51769890D01*
X105361342Y-51769890D02*
X105304200Y-51884175D01*
X105304200Y-51884175D02*
X105247057Y-51941318D01*
X105247057Y-51941318D02*
X105132771Y-51998461D01*
X105132771Y-51998461D02*
X104789914Y-51998461D01*
X104789914Y-51998461D02*
X104675628Y-51941318D01*
X104675628Y-51941318D02*
X104618485Y-51884175D01*
X104618485Y-51884175D02*
X104561342Y-51769890D01*
X104561342Y-51769890D02*
X104561342Y-51541318D01*
X104561342Y-51541318D02*
X104618485Y-51427033D01*
X105361342Y-50741319D02*
X105304200Y-50855604D01*
X105304200Y-50855604D02*
X105247057Y-50912747D01*
X105247057Y-50912747D02*
X105132771Y-50969890D01*
X105132771Y-50969890D02*
X104789914Y-50969890D01*
X104789914Y-50969890D02*
X104675628Y-50912747D01*
X104675628Y-50912747D02*
X104618485Y-50855604D01*
X104618485Y-50855604D02*
X104561342Y-50741319D01*
X104561342Y-50741319D02*
X104561342Y-50569890D01*
X104561342Y-50569890D02*
X104618485Y-50455604D01*
X104618485Y-50455604D02*
X104675628Y-50398462D01*
X104675628Y-50398462D02*
X104789914Y-50341319D01*
X104789914Y-50341319D02*
X105132771Y-50341319D01*
X105132771Y-50341319D02*
X105247057Y-50398462D01*
X105247057Y-50398462D02*
X105304200Y-50455604D01*
X105304200Y-50455604D02*
X105361342Y-50569890D01*
X105361342Y-50569890D02*
X105361342Y-50741319D01*
X105361342Y-49827033D02*
X104561342Y-49827033D01*
X104675628Y-49827033D02*
X104618485Y-49769890D01*
X104618485Y-49769890D02*
X104561342Y-49655605D01*
X104561342Y-49655605D02*
X104561342Y-49484176D01*
X104561342Y-49484176D02*
X104618485Y-49369890D01*
X104618485Y-49369890D02*
X104732771Y-49312748D01*
X104732771Y-49312748D02*
X105361342Y-49312748D01*
X104732771Y-49312748D02*
X104618485Y-49255605D01*
X104618485Y-49255605D02*
X104561342Y-49141319D01*
X104561342Y-49141319D02*
X104561342Y-48969890D01*
X104561342Y-48969890D02*
X104618485Y-48855605D01*
X104618485Y-48855605D02*
X104732771Y-48798462D01*
X104732771Y-48798462D02*
X105361342Y-48798462D01*
X108768200Y-107255601D02*
X108768200Y-106341316D01*
X109225342Y-105769887D02*
X108025342Y-105769887D01*
X108025342Y-105769887D02*
X108025342Y-105484173D01*
X108025342Y-105484173D02*
X108082485Y-105312744D01*
X108082485Y-105312744D02*
X108196771Y-105198459D01*
X108196771Y-105198459D02*
X108311057Y-105141316D01*
X108311057Y-105141316D02*
X108539628Y-105084173D01*
X108539628Y-105084173D02*
X108711057Y-105084173D01*
X108711057Y-105084173D02*
X108939628Y-105141316D01*
X108939628Y-105141316D02*
X109053914Y-105198459D01*
X109053914Y-105198459D02*
X109168200Y-105312744D01*
X109168200Y-105312744D02*
X109225342Y-105484173D01*
X109225342Y-105484173D02*
X109225342Y-105769887D01*
X109225342Y-104055602D02*
X108596771Y-104055602D01*
X108596771Y-104055602D02*
X108482485Y-104112744D01*
X108482485Y-104112744D02*
X108425342Y-104227030D01*
X108425342Y-104227030D02*
X108425342Y-104455602D01*
X108425342Y-104455602D02*
X108482485Y-104569887D01*
X109168200Y-104055602D02*
X109225342Y-104169887D01*
X109225342Y-104169887D02*
X109225342Y-104455602D01*
X109225342Y-104455602D02*
X109168200Y-104569887D01*
X109168200Y-104569887D02*
X109053914Y-104627030D01*
X109053914Y-104627030D02*
X108939628Y-104627030D01*
X108939628Y-104627030D02*
X108825342Y-104569887D01*
X108825342Y-104569887D02*
X108768200Y-104455602D01*
X108768200Y-104455602D02*
X108768200Y-104169887D01*
X108768200Y-104169887D02*
X108711057Y-104055602D01*
X108425342Y-103484173D02*
X109225342Y-103484173D01*
X108539628Y-103484173D02*
X108482485Y-103427030D01*
X108482485Y-103427030D02*
X108425342Y-103312745D01*
X108425342Y-103312745D02*
X108425342Y-103141316D01*
X108425342Y-103141316D02*
X108482485Y-103027030D01*
X108482485Y-103027030D02*
X108596771Y-102969888D01*
X108596771Y-102969888D02*
X109225342Y-102969888D01*
X109225342Y-102398459D02*
X108425342Y-102398459D01*
X108025342Y-102398459D02*
X108082485Y-102455602D01*
X108082485Y-102455602D02*
X108139628Y-102398459D01*
X108139628Y-102398459D02*
X108082485Y-102341316D01*
X108082485Y-102341316D02*
X108025342Y-102398459D01*
X108025342Y-102398459D02*
X108139628Y-102398459D01*
X109168200Y-101369887D02*
X109225342Y-101484173D01*
X109225342Y-101484173D02*
X109225342Y-101712745D01*
X109225342Y-101712745D02*
X109168200Y-101827030D01*
X109168200Y-101827030D02*
X109053914Y-101884173D01*
X109053914Y-101884173D02*
X108596771Y-101884173D01*
X108596771Y-101884173D02*
X108482485Y-101827030D01*
X108482485Y-101827030D02*
X108425342Y-101712745D01*
X108425342Y-101712745D02*
X108425342Y-101484173D01*
X108425342Y-101484173D02*
X108482485Y-101369887D01*
X108482485Y-101369887D02*
X108596771Y-101312745D01*
X108596771Y-101312745D02*
X108711057Y-101312745D01*
X108711057Y-101312745D02*
X108825342Y-101884173D01*
X109225342Y-100627031D02*
X109168200Y-100741316D01*
X109168200Y-100741316D02*
X109053914Y-100798459D01*
X109053914Y-100798459D02*
X108025342Y-100798459D01*
M02*
