%TF.GenerationSoftware,KiCad,Pcbnew,7.0.5-0*%
%TF.CreationDate,2023-07-22T21:58:15-05:00*%
%TF.ProjectId,biometrics,62696f6d-6574-4726-9963-732e6b696361,rev?*%
%TF.SameCoordinates,Original*%
%TF.FileFunction,Soldermask,Top*%
%TF.FilePolarity,Negative*%
%FSLAX46Y46*%
G04 Gerber Fmt 4.6, Leading zero omitted, Abs format (unit mm)*
G04 Created by KiCad (PCBNEW 7.0.5-0) date 2023-07-22 21:58:15*
%MOMM*%
%LPD*%
G01*
G04 APERTURE LIST*
%ADD10O,3.000000X1.700000*%
%ADD11R,1.350000X1.350000*%
%ADD12O,1.350000X1.350000*%
G04 APERTURE END LIST*
D10*
%TO.C,J3*%
X151505000Y-115535000D03*
X151505000Y-112995000D03*
X151505000Y-110455000D03*
X151505000Y-107915000D03*
X151505000Y-105375000D03*
X151505000Y-102835000D03*
X151505000Y-100295000D03*
X151505000Y-97755000D03*
X151505000Y-95215000D03*
X151505000Y-92675000D03*
X151505000Y-90135000D03*
X151505000Y-87595000D03*
X151505000Y-85055000D03*
X151505000Y-82515000D03*
X151505000Y-79975000D03*
X134995000Y-79975000D03*
X134995000Y-82515000D03*
X134995000Y-85055000D03*
X134995000Y-87595000D03*
X134995000Y-90135000D03*
X134995000Y-92675000D03*
X134995000Y-95215000D03*
X134995000Y-97755000D03*
X134995000Y-100295000D03*
X134995000Y-102835000D03*
X134995000Y-105375000D03*
X134995000Y-107915000D03*
X134995000Y-110455000D03*
X134995000Y-112995000D03*
X134995000Y-115535000D03*
%TD*%
D11*
%TO.C,J1*%
X123490000Y-87396000D03*
D12*
X123490000Y-85396000D03*
X125490000Y-87396000D03*
X125490000Y-85396000D03*
X127490000Y-87396000D03*
X127490000Y-85396000D03*
%TD*%
D11*
%TO.C,J2*%
X122490000Y-60396000D03*
D12*
X122490000Y-58396000D03*
X124490000Y-60396000D03*
X124490000Y-58396000D03*
X126490000Y-60396000D03*
X126490000Y-58396000D03*
X128490000Y-60396000D03*
X128490000Y-58396000D03*
%TD*%
M02*
