<?xml version="1.0" standalone="no"?>
 <!DOCTYPE svg PUBLIC "-//W3C//DTD SVG 1.1//EN" 
 "http://www.w3.org/Graphics/SVG/1.1/DTD/svg11.dtd"> 
<svg
  xmlns:svg="http://www.w3.org/2000/svg"
  xmlns="http://www.w3.org/2000/svg"
  xmlns:xlink="http://www.w3.org/1999/xlink"
  version="1.1"
  width="297.0022mm" height="210.0072mm" viewBox="0.0000 0.0000 297.0022 210.0072">
<title>SVG Image created as biometrics-Edge_Cuts.svg date 2023/07/17 21:30:40 </title>
  <desc>Image generated by PCBNEW </desc>
<g style="fill:#000000; fill-opacity:1.0000;stroke:#000000; stroke-opacity:1.0000;
stroke-linecap:round; stroke-linejoin:round;"
 transform="translate(0 0) scale(1 1)">
</g>
<g style="fill:#000000; fill-opacity:0.0; 
stroke:#000000; stroke-width:0.0000; stroke-opacity:1; 
stroke-linecap:round; stroke-linejoin:round;">
</g>
<g style="fill:#000000; fill-opacity:0.0; 
stroke:#000000; stroke-width:0.0212; stroke-opacity:1; 
stroke-linecap:round; stroke-linejoin:round;">
</g>
<g style="fill:#000000; fill-opacity:0.0; 
stroke:#000000; stroke-width:0.1500; stroke-opacity:1; 
stroke-linecap:round; stroke-linejoin:round;">
<path d="M177.0022 166.0072
L285.0022 166.0072
L285.0022 198.0072
L177.0022 198.0072
L177.0022 166.0072
" />
</g>
<g style="fill:#000000; fill-opacity:0.0; 
stroke:#000000; stroke-width:0.0212; stroke-opacity:1; 
stroke-linecap:round; stroke-linejoin:round;">
</g>
<g style="fill:#000000; fill-opacity:0.0; 
stroke:#000000; stroke-width:0.1500; stroke-opacity:1; 
stroke-linecap:round; stroke-linejoin:round;">
<path d="M10.0000 10.0000
L287.0022 10.0000
L287.0022 200.0072
L10.0000 200.0072
L10.0000 10.0000
" />
</g>
<g style="fill:#000000; fill-opacity:0.0; 
stroke:#000000; stroke-width:0.0212; stroke-opacity:1; 
stroke-linecap:round; stroke-linejoin:round;">
</g>
<g style="fill:#000000; fill-opacity:0.0; 
stroke:#000000; stroke-width:0.1500; stroke-opacity:1; 
stroke-linecap:round; stroke-linejoin:round;">
<path d="M12.0000 12.0000
L285.0022 12.0000
L285.0022 198.0072
L12.0000 198.0072
L12.0000 12.0000
" />
</g>
<g style="fill:#000000; fill-opacity:0.0; 
stroke:#000000; stroke-width:0.0212; stroke-opacity:1; 
stroke-linecap:round; stroke-linejoin:round;">
</g>
<g style="fill:#000000; fill-opacity:0.0; 
stroke:#000000; stroke-width:0.1500; stroke-opacity:1; 
stroke-linecap:round; stroke-linejoin:round;">
<path d="M60.0000 12.0000
L60.0000 10.0000
" />
</g>
<g style="fill:#000000; fill-opacity:0.0; 
stroke:#000000; stroke-width:0.0212; stroke-opacity:1; 
stroke-linecap:round; stroke-linejoin:round;">
</g>
<g style="fill:#000000; fill-opacity:0.0; 
stroke:#000000; stroke-width:0.1500; stroke-opacity:1; 
stroke-linecap:round; stroke-linejoin:round;">
<path d="M110.0000 12.0000
L110.0000 10.0000
" />
</g>
<g style="fill:#000000; fill-opacity:0.0; 
stroke:#000000; stroke-width:0.0212; stroke-opacity:1; 
stroke-linecap:round; stroke-linejoin:round;">
</g>
<g style="fill:#000000; fill-opacity:0.0; 
stroke:#000000; stroke-width:0.1500; stroke-opacity:1; 
stroke-linecap:round; stroke-linejoin:round;">
<path d="M160.0000 12.0000
L160.0000 10.0000
" />
</g>
<g style="fill:#000000; fill-opacity:0.0; 
stroke:#000000; stroke-width:0.0212; stroke-opacity:1; 
stroke-linecap:round; stroke-linejoin:round;">
</g>
<g style="fill:#000000; fill-opacity:0.0; 
stroke:#000000; stroke-width:0.1500; stroke-opacity:1; 
stroke-linecap:round; stroke-linejoin:round;">
<path d="M210.0000 12.0000
L210.0000 10.0000
" />
</g>
<g style="fill:#000000; fill-opacity:0.0; 
stroke:#000000; stroke-width:0.0212; stroke-opacity:1; 
stroke-linecap:round; stroke-linejoin:round;">
</g>
<g style="fill:#000000; fill-opacity:0.0; 
stroke:#000000; stroke-width:0.1500; stroke-opacity:1; 
stroke-linecap:round; stroke-linejoin:round;">
<path d="M260.0000 12.0000
L260.0000 10.0000
" />
</g>
<g style="fill:#000000; fill-opacity:0.0; 
stroke:#000000; stroke-width:0.0212; stroke-opacity:1; 
stroke-linecap:round; stroke-linejoin:round;">
</g>
<g style="fill:#000000; fill-opacity:0.0; 
stroke:#000000; stroke-width:0.1500; stroke-opacity:1; 
stroke-linecap:round; stroke-linejoin:round;">
<text x="35.0000" y="11.6500"
textLength="1.3531" font-size="1.7333" lengthAdjust="spacingAndGlyphs"
text-anchor="start" opacity="0">1</text>
<g class="stroked-text"><desc>1</desc>
<path d="M36.0892 11.5936
L35.3463 11.5936
" />
<path d="M35.7177 11.5936
L35.7177 10.2936
" />
<path d="M35.7177 10.2936
L35.5939 10.4793
" />
<path d="M35.5939 10.4793
L35.4701 10.6031
" />
<path d="M35.4701 10.6031
L35.3463 10.6650
" />
</g></g>
<g style="fill:#000000; fill-opacity:0.0; 
stroke:#000000; stroke-width:0.0212; stroke-opacity:1; 
stroke-linecap:round; stroke-linejoin:round;">
</g>
<g style="fill:#000000; fill-opacity:0.0; 
stroke:#000000; stroke-width:0.1500; stroke-opacity:1; 
stroke-linecap:round; stroke-linejoin:round;">
<text x="85.0000" y="11.6500"
textLength="1.3531" font-size="1.7333" lengthAdjust="spacingAndGlyphs"
text-anchor="start" opacity="0">2</text>
<g class="stroked-text"><desc>2</desc>
<path d="M85.3463 10.4174
L85.4082 10.3555
" />
<path d="M85.4082 10.3555
L85.5320 10.2936
" />
<path d="M85.5320 10.2936
L85.8415 10.2936
" />
<path d="M85.8415 10.2936
L85.9654 10.3555
" />
<path d="M85.9654 10.3555
L86.0273 10.4174
" />
<path d="M86.0273 10.4174
L86.0892 10.5412
" />
<path d="M86.0892 10.5412
L86.0892 10.6650
" />
<path d="M86.0892 10.6650
L86.0273 10.8507
" />
<path d="M86.0273 10.8507
L85.2844 11.5936
" />
<path d="M85.2844 11.5936
L86.0892 11.5936
" />
</g></g>
<g style="fill:#000000; fill-opacity:0.0; 
stroke:#000000; stroke-width:0.0212; stroke-opacity:1; 
stroke-linecap:round; stroke-linejoin:round;">
</g>
<g style="fill:#000000; fill-opacity:0.0; 
stroke:#000000; stroke-width:0.1500; stroke-opacity:1; 
stroke-linecap:round; stroke-linejoin:round;">
<text x="135.0000" y="11.6500"
textLength="1.3531" font-size="1.7333" lengthAdjust="spacingAndGlyphs"
text-anchor="start" opacity="0">3</text>
<g class="stroked-text"><desc>3</desc>
<path d="M135.2844 10.2936
L136.0892 10.2936
" />
<path d="M136.0892 10.2936
L135.6558 10.7888
" />
<path d="M135.6558 10.7888
L135.8415 10.7888
" />
<path d="M135.8415 10.7888
L135.9654 10.8507
" />
<path d="M135.9654 10.8507
L136.0273 10.9127
" />
<path d="M136.0273 10.9127
L136.0892 11.0365
" />
<path d="M136.0892 11.0365
L136.0892 11.3460
" />
<path d="M136.0892 11.3460
L136.0273 11.4698
" />
<path d="M136.0273 11.4698
L135.9654 11.5317
" />
<path d="M135.9654 11.5317
L135.8415 11.5936
" />
<path d="M135.8415 11.5936
L135.4701 11.5936
" />
<path d="M135.4701 11.5936
L135.3463 11.5317
" />
<path d="M135.3463 11.5317
L135.2844 11.4698
" />
</g></g>
<g style="fill:#000000; fill-opacity:0.0; 
stroke:#000000; stroke-width:0.0212; stroke-opacity:1; 
stroke-linecap:round; stroke-linejoin:round;">
</g>
<g style="fill:#000000; fill-opacity:0.0; 
stroke:#000000; stroke-width:0.1500; stroke-opacity:1; 
stroke-linecap:round; stroke-linejoin:round;">
<text x="185.0000" y="11.6500"
textLength="1.3531" font-size="1.7333" lengthAdjust="spacingAndGlyphs"
text-anchor="start" opacity="0">4</text>
<g class="stroked-text"><desc>4</desc>
<path d="M185.9654 10.7269
L185.9654 11.5936
" />
<path d="M185.6558 10.2317
L185.3463 11.1603
" />
<path d="M185.3463 11.1603
L186.1511 11.1603
" />
</g></g>
<g style="fill:#000000; fill-opacity:0.0; 
stroke:#000000; stroke-width:0.0212; stroke-opacity:1; 
stroke-linecap:round; stroke-linejoin:round;">
</g>
<g style="fill:#000000; fill-opacity:0.0; 
stroke:#000000; stroke-width:0.1500; stroke-opacity:1; 
stroke-linecap:round; stroke-linejoin:round;">
<text x="235.0000" y="11.6500"
textLength="1.3531" font-size="1.7333" lengthAdjust="spacingAndGlyphs"
text-anchor="start" opacity="0">5</text>
<g class="stroked-text"><desc>5</desc>
<path d="M236.0273 10.2936
L235.4082 10.2936
" />
<path d="M235.4082 10.2936
L235.3463 10.9127
" />
<path d="M235.3463 10.9127
L235.4082 10.8507
" />
<path d="M235.4082 10.8507
L235.5320 10.7888
" />
<path d="M235.5320 10.7888
L235.8415 10.7888
" />
<path d="M235.8415 10.7888
L235.9654 10.8507
" />
<path d="M235.9654 10.8507
L236.0273 10.9127
" />
<path d="M236.0273 10.9127
L236.0892 11.0365
" />
<path d="M236.0892 11.0365
L236.0892 11.3460
" />
<path d="M236.0892 11.3460
L236.0273 11.4698
" />
<path d="M236.0273 11.4698
L235.9654 11.5317
" />
<path d="M235.9654 11.5317
L235.8415 11.5936
" />
<path d="M235.8415 11.5936
L235.5320 11.5936
" />
<path d="M235.5320 11.5936
L235.4082 11.5317
" />
<path d="M235.4082 11.5317
L235.3463 11.4698
" />
</g></g>
<g style="fill:#000000; fill-opacity:0.0; 
stroke:#000000; stroke-width:0.0212; stroke-opacity:1; 
stroke-linecap:round; stroke-linejoin:round;">
</g>
<g style="fill:#000000; fill-opacity:0.0; 
stroke:#000000; stroke-width:0.1500; stroke-opacity:1; 
stroke-linecap:round; stroke-linejoin:round;">
<text x="285.0000" y="11.6500"
textLength="1.3531" font-size="1.7333" lengthAdjust="spacingAndGlyphs"
text-anchor="start" opacity="0">6</text>
<g class="stroked-text"><desc>6</desc>
<path d="M285.9654 10.2936
L285.7177 10.2936
" />
<path d="M285.7177 10.2936
L285.5939 10.3555
" />
<path d="M285.5939 10.3555
L285.5320 10.4174
" />
<path d="M285.5320 10.4174
L285.4082 10.6031
" />
<path d="M285.4082 10.6031
L285.3463 10.8507
" />
<path d="M285.3463 10.8507
L285.3463 11.3460
" />
<path d="M285.3463 11.3460
L285.4082 11.4698
" />
<path d="M285.4082 11.4698
L285.4701 11.5317
" />
<path d="M285.4701 11.5317
L285.5939 11.5936
" />
<path d="M285.5939 11.5936
L285.8415 11.5936
" />
<path d="M285.8415 11.5936
L285.9654 11.5317
" />
<path d="M285.9654 11.5317
L286.0273 11.4698
" />
<path d="M286.0273 11.4698
L286.0892 11.3460
" />
<path d="M286.0892 11.3460
L286.0892 11.0365
" />
<path d="M286.0892 11.0365
L286.0273 10.9127
" />
<path d="M286.0273 10.9127
L285.9654 10.8507
" />
<path d="M285.9654 10.8507
L285.8415 10.7888
" />
<path d="M285.8415 10.7888
L285.5939 10.7888
" />
<path d="M285.5939 10.7888
L285.4701 10.8507
" />
<path d="M285.4701 10.8507
L285.4082 10.9127
" />
<path d="M285.4082 10.9127
L285.3463 11.0365
" />
</g></g>
<g style="fill:#000000; fill-opacity:0.0; 
stroke:#000000; stroke-width:0.0212; stroke-opacity:1; 
stroke-linecap:round; stroke-linejoin:round;">
</g>
<g style="fill:#000000; fill-opacity:0.0; 
stroke:#000000; stroke-width:0.1500; stroke-opacity:1; 
stroke-linecap:round; stroke-linejoin:round;">
<path d="M60.0000 198.0072
L60.0000 200.0072
" />
</g>
<g style="fill:#000000; fill-opacity:0.0; 
stroke:#000000; stroke-width:0.0212; stroke-opacity:1; 
stroke-linecap:round; stroke-linejoin:round;">
</g>
<g style="fill:#000000; fill-opacity:0.0; 
stroke:#000000; stroke-width:0.1500; stroke-opacity:1; 
stroke-linecap:round; stroke-linejoin:round;">
<path d="M110.0000 198.0072
L110.0000 200.0072
" />
</g>
<g style="fill:#000000; fill-opacity:0.0; 
stroke:#000000; stroke-width:0.0212; stroke-opacity:1; 
stroke-linecap:round; stroke-linejoin:round;">
</g>
<g style="fill:#000000; fill-opacity:0.0; 
stroke:#000000; stroke-width:0.1500; stroke-opacity:1; 
stroke-linecap:round; stroke-linejoin:round;">
<path d="M160.0000 198.0072
L160.0000 200.0072
" />
</g>
<g style="fill:#000000; fill-opacity:0.0; 
stroke:#000000; stroke-width:0.0212; stroke-opacity:1; 
stroke-linecap:round; stroke-linejoin:round;">
</g>
<g style="fill:#000000; fill-opacity:0.0; 
stroke:#000000; stroke-width:0.1500; stroke-opacity:1; 
stroke-linecap:round; stroke-linejoin:round;">
<path d="M210.0000 198.0072
L210.0000 200.0072
" />
</g>
<g style="fill:#000000; fill-opacity:0.0; 
stroke:#000000; stroke-width:0.0212; stroke-opacity:1; 
stroke-linecap:round; stroke-linejoin:round;">
</g>
<g style="fill:#000000; fill-opacity:0.0; 
stroke:#000000; stroke-width:0.1500; stroke-opacity:1; 
stroke-linecap:round; stroke-linejoin:round;">
<path d="M260.0000 198.0072
L260.0000 200.0072
" />
</g>
<g style="fill:#000000; fill-opacity:0.0; 
stroke:#000000; stroke-width:0.0212; stroke-opacity:1; 
stroke-linecap:round; stroke-linejoin:round;">
</g>
<g style="fill:#000000; fill-opacity:0.0; 
stroke:#000000; stroke-width:0.1500; stroke-opacity:1; 
stroke-linecap:round; stroke-linejoin:round;">
<text x="35.0000" y="199.6572"
textLength="1.3531" font-size="1.7333" lengthAdjust="spacingAndGlyphs"
text-anchor="start" opacity="0">1</text>
<g class="stroked-text"><desc>1</desc>
<path d="M36.0892 199.6008
L35.3463 199.6008
" />
<path d="M35.7177 199.6008
L35.7177 198.3008
" />
<path d="M35.7177 198.3008
L35.5939 198.4865
" />
<path d="M35.5939 198.4865
L35.4701 198.6103
" />
<path d="M35.4701 198.6103
L35.3463 198.6722
" />
</g></g>
<g style="fill:#000000; fill-opacity:0.0; 
stroke:#000000; stroke-width:0.0212; stroke-opacity:1; 
stroke-linecap:round; stroke-linejoin:round;">
</g>
<g style="fill:#000000; fill-opacity:0.0; 
stroke:#000000; stroke-width:0.1500; stroke-opacity:1; 
stroke-linecap:round; stroke-linejoin:round;">
<text x="85.0000" y="199.6572"
textLength="1.3531" font-size="1.7333" lengthAdjust="spacingAndGlyphs"
text-anchor="start" opacity="0">2</text>
<g class="stroked-text"><desc>2</desc>
<path d="M85.3463 198.4246
L85.4082 198.3627
" />
<path d="M85.4082 198.3627
L85.5320 198.3008
" />
<path d="M85.5320 198.3008
L85.8415 198.3008
" />
<path d="M85.8415 198.3008
L85.9654 198.3627
" />
<path d="M85.9654 198.3627
L86.0273 198.4246
" />
<path d="M86.0273 198.4246
L86.0892 198.5484
" />
<path d="M86.0892 198.5484
L86.0892 198.6722
" />
<path d="M86.0892 198.6722
L86.0273 198.8579
" />
<path d="M86.0273 198.8579
L85.2844 199.6008
" />
<path d="M85.2844 199.6008
L86.0892 199.6008
" />
</g></g>
<g style="fill:#000000; fill-opacity:0.0; 
stroke:#000000; stroke-width:0.0212; stroke-opacity:1; 
stroke-linecap:round; stroke-linejoin:round;">
</g>
<g style="fill:#000000; fill-opacity:0.0; 
stroke:#000000; stroke-width:0.1500; stroke-opacity:1; 
stroke-linecap:round; stroke-linejoin:round;">
<text x="135.0000" y="199.6572"
textLength="1.3531" font-size="1.7333" lengthAdjust="spacingAndGlyphs"
text-anchor="start" opacity="0">3</text>
<g class="stroked-text"><desc>3</desc>
<path d="M135.2844 198.3008
L136.0892 198.3008
" />
<path d="M136.0892 198.3008
L135.6558 198.7960
" />
<path d="M135.6558 198.7960
L135.8415 198.7960
" />
<path d="M135.8415 198.7960
L135.9654 198.8579
" />
<path d="M135.9654 198.8579
L136.0273 198.9199
" />
<path d="M136.0273 198.9199
L136.0892 199.0437
" />
<path d="M136.0892 199.0437
L136.0892 199.3532
" />
<path d="M136.0892 199.3532
L136.0273 199.4770
" />
<path d="M136.0273 199.4770
L135.9654 199.5389
" />
<path d="M135.9654 199.5389
L135.8415 199.6008
" />
<path d="M135.8415 199.6008
L135.4701 199.6008
" />
<path d="M135.4701 199.6008
L135.3463 199.5389
" />
<path d="M135.3463 199.5389
L135.2844 199.4770
" />
</g></g>
<g style="fill:#000000; fill-opacity:0.0; 
stroke:#000000; stroke-width:0.0212; stroke-opacity:1; 
stroke-linecap:round; stroke-linejoin:round;">
</g>
<g style="fill:#000000; fill-opacity:0.0; 
stroke:#000000; stroke-width:0.1500; stroke-opacity:1; 
stroke-linecap:round; stroke-linejoin:round;">
<text x="185.0000" y="199.6572"
textLength="1.3531" font-size="1.7333" lengthAdjust="spacingAndGlyphs"
text-anchor="start" opacity="0">4</text>
<g class="stroked-text"><desc>4</desc>
<path d="M185.9654 198.7341
L185.9654 199.6008
" />
<path d="M185.6558 198.2389
L185.3463 199.1675
" />
<path d="M185.3463 199.1675
L186.1511 199.1675
" />
</g></g>
<g style="fill:#000000; fill-opacity:0.0; 
stroke:#000000; stroke-width:0.0212; stroke-opacity:1; 
stroke-linecap:round; stroke-linejoin:round;">
</g>
<g style="fill:#000000; fill-opacity:0.0; 
stroke:#000000; stroke-width:0.1500; stroke-opacity:1; 
stroke-linecap:round; stroke-linejoin:round;">
<text x="235.0000" y="199.6572"
textLength="1.3531" font-size="1.7333" lengthAdjust="spacingAndGlyphs"
text-anchor="start" opacity="0">5</text>
<g class="stroked-text"><desc>5</desc>
<path d="M236.0273 198.3008
L235.4082 198.3008
" />
<path d="M235.4082 198.3008
L235.3463 198.9199
" />
<path d="M235.3463 198.9199
L235.4082 198.8579
" />
<path d="M235.4082 198.8579
L235.5320 198.7960
" />
<path d="M235.5320 198.7960
L235.8415 198.7960
" />
<path d="M235.8415 198.7960
L235.9654 198.8579
" />
<path d="M235.9654 198.8579
L236.0273 198.9199
" />
<path d="M236.0273 198.9199
L236.0892 199.0437
" />
<path d="M236.0892 199.0437
L236.0892 199.3532
" />
<path d="M236.0892 199.3532
L236.0273 199.4770
" />
<path d="M236.0273 199.4770
L235.9654 199.5389
" />
<path d="M235.9654 199.5389
L235.8415 199.6008
" />
<path d="M235.8415 199.6008
L235.5320 199.6008
" />
<path d="M235.5320 199.6008
L235.4082 199.5389
" />
<path d="M235.4082 199.5389
L235.3463 199.4770
" />
</g></g>
<g style="fill:#000000; fill-opacity:0.0; 
stroke:#000000; stroke-width:0.0212; stroke-opacity:1; 
stroke-linecap:round; stroke-linejoin:round;">
</g>
<g style="fill:#000000; fill-opacity:0.0; 
stroke:#000000; stroke-width:0.1500; stroke-opacity:1; 
stroke-linecap:round; stroke-linejoin:round;">
<text x="285.0000" y="199.6572"
textLength="1.3531" font-size="1.7333" lengthAdjust="spacingAndGlyphs"
text-anchor="start" opacity="0">6</text>
<g class="stroked-text"><desc>6</desc>
<path d="M285.9654 198.3008
L285.7177 198.3008
" />
<path d="M285.7177 198.3008
L285.5939 198.3627
" />
<path d="M285.5939 198.3627
L285.5320 198.4246
" />
<path d="M285.5320 198.4246
L285.4082 198.6103
" />
<path d="M285.4082 198.6103
L285.3463 198.8579
" />
<path d="M285.3463 198.8579
L285.3463 199.3532
" />
<path d="M285.3463 199.3532
L285.4082 199.4770
" />
<path d="M285.4082 199.4770
L285.4701 199.5389
" />
<path d="M285.4701 199.5389
L285.5939 199.6008
" />
<path d="M285.5939 199.6008
L285.8415 199.6008
" />
<path d="M285.8415 199.6008
L285.9654 199.5389
" />
<path d="M285.9654 199.5389
L286.0273 199.4770
" />
<path d="M286.0273 199.4770
L286.0892 199.3532
" />
<path d="M286.0892 199.3532
L286.0892 199.0437
" />
<path d="M286.0892 199.0437
L286.0273 198.9199
" />
<path d="M286.0273 198.9199
L285.9654 198.8579
" />
<path d="M285.9654 198.8579
L285.8415 198.7960
" />
<path d="M285.8415 198.7960
L285.5939 198.7960
" />
<path d="M285.5939 198.7960
L285.4701 198.8579
" />
<path d="M285.4701 198.8579
L285.4082 198.9199
" />
<path d="M285.4082 198.9199
L285.3463 199.0437
" />
</g></g>
<g style="fill:#000000; fill-opacity:0.0; 
stroke:#000000; stroke-width:0.0212; stroke-opacity:1; 
stroke-linecap:round; stroke-linejoin:round;">
</g>
<g style="fill:#000000; fill-opacity:0.0; 
stroke:#000000; stroke-width:0.1500; stroke-opacity:1; 
stroke-linecap:round; stroke-linejoin:round;">
<path d="M10.0000 60.0000
L12.0000 60.0000
" />
</g>
<g style="fill:#000000; fill-opacity:0.0; 
stroke:#000000; stroke-width:0.0212; stroke-opacity:1; 
stroke-linecap:round; stroke-linejoin:round;">
</g>
<g style="fill:#000000; fill-opacity:0.0; 
stroke:#000000; stroke-width:0.1500; stroke-opacity:1; 
stroke-linecap:round; stroke-linejoin:round;">
<path d="M10.0000 110.0000
L12.0000 110.0000
" />
</g>
<g style="fill:#000000; fill-opacity:0.0; 
stroke:#000000; stroke-width:0.0212; stroke-opacity:1; 
stroke-linecap:round; stroke-linejoin:round;">
</g>
<g style="fill:#000000; fill-opacity:0.0; 
stroke:#000000; stroke-width:0.1500; stroke-opacity:1; 
stroke-linecap:round; stroke-linejoin:round;">
<path d="M10.0000 160.0000
L12.0000 160.0000
" />
</g>
<g style="fill:#000000; fill-opacity:0.0; 
stroke:#000000; stroke-width:0.0212; stroke-opacity:1; 
stroke-linecap:round; stroke-linejoin:round;">
</g>
<g style="fill:#000000; fill-opacity:0.0; 
stroke:#000000; stroke-width:0.1500; stroke-opacity:1; 
stroke-linecap:round; stroke-linejoin:round;">
<text x="11.0000" y="35.6500"
textLength="1.2293" font-size="1.7333" lengthAdjust="spacingAndGlyphs"
text-anchor="middle" opacity="0">A</text>
<g class="stroked-text"><desc>A</desc>
<path d="M10.6905 35.2222
L11.3095 35.2222
" />
<path d="M10.5667 35.5936
L11.0000 34.2936
" />
<path d="M11.0000 34.2936
L11.4333 35.5936
" />
</g></g>
<g style="fill:#000000; fill-opacity:0.0; 
stroke:#000000; stroke-width:0.0212; stroke-opacity:1; 
stroke-linecap:round; stroke-linejoin:round;">
</g>
<g style="fill:#000000; fill-opacity:0.0; 
stroke:#000000; stroke-width:0.1500; stroke-opacity:1; 
stroke-linecap:round; stroke-linejoin:round;">
<text x="11.0000" y="85.6500"
textLength="1.4150" font-size="1.7333" lengthAdjust="spacingAndGlyphs"
text-anchor="middle" opacity="0">B</text>
<g class="stroked-text"><desc>B</desc>
<path d="M11.0929 84.9127
L11.2786 84.9746
" />
<path d="M11.2786 84.9746
L11.3405 85.0365
" />
<path d="M11.3405 85.0365
L11.4024 85.1603
" />
<path d="M11.4024 85.1603
L11.4024 85.3460
" />
<path d="M11.4024 85.3460
L11.3405 85.4698
" />
<path d="M11.3405 85.4698
L11.2786 85.5317
" />
<path d="M11.2786 85.5317
L11.1548 85.5936
" />
<path d="M11.1548 85.5936
L10.6595 85.5936
" />
<path d="M10.6595 85.5936
L10.6595 84.2936
" />
<path d="M10.6595 84.2936
L11.0929 84.2936
" />
<path d="M11.0929 84.2936
L11.2167 84.3555
" />
<path d="M11.2167 84.3555
L11.2786 84.4174
" />
<path d="M11.2786 84.4174
L11.3405 84.5412
" />
<path d="M11.3405 84.5412
L11.3405 84.6650
" />
<path d="M11.3405 84.6650
L11.2786 84.7888
" />
<path d="M11.2786 84.7888
L11.2167 84.8507
" />
<path d="M11.2167 84.8507
L11.0929 84.9127
" />
<path d="M11.0929 84.9127
L10.6595 84.9127
" />
</g></g>
<g style="fill:#000000; fill-opacity:0.0; 
stroke:#000000; stroke-width:0.0212; stroke-opacity:1; 
stroke-linecap:round; stroke-linejoin:round;">
</g>
<g style="fill:#000000; fill-opacity:0.0; 
stroke:#000000; stroke-width:0.1500; stroke-opacity:1; 
stroke-linecap:round; stroke-linejoin:round;">
<text x="11.0000" y="135.6500"
textLength="1.4150" font-size="1.7333" lengthAdjust="spacingAndGlyphs"
text-anchor="middle" opacity="0">C</text>
<g class="stroked-text"><desc>C</desc>
<path d="M11.4024 135.4698
L11.3405 135.5317
" />
<path d="M11.3405 135.5317
L11.1548 135.5936
" />
<path d="M11.1548 135.5936
L11.0310 135.5936
" />
<path d="M11.0310 135.5936
L10.8452 135.5317
" />
<path d="M10.8452 135.5317
L10.7214 135.4079
" />
<path d="M10.7214 135.4079
L10.6595 135.2841
" />
<path d="M10.6595 135.2841
L10.5976 135.0365
" />
<path d="M10.5976 135.0365
L10.5976 134.8507
" />
<path d="M10.5976 134.8507
L10.6595 134.6031
" />
<path d="M10.6595 134.6031
L10.7214 134.4793
" />
<path d="M10.7214 134.4793
L10.8452 134.3555
" />
<path d="M10.8452 134.3555
L11.0310 134.2936
" />
<path d="M11.0310 134.2936
L11.1548 134.2936
" />
<path d="M11.1548 134.2936
L11.3405 134.3555
" />
<path d="M11.3405 134.3555
L11.4024 134.4174
" />
</g></g>
<g style="fill:#000000; fill-opacity:0.0; 
stroke:#000000; stroke-width:0.0212; stroke-opacity:1; 
stroke-linecap:round; stroke-linejoin:round;">
</g>
<g style="fill:#000000; fill-opacity:0.0; 
stroke:#000000; stroke-width:0.1500; stroke-opacity:1; 
stroke-linecap:round; stroke-linejoin:round;">
<text x="11.0000" y="185.6500"
textLength="1.4150" font-size="1.7333" lengthAdjust="spacingAndGlyphs"
text-anchor="middle" opacity="0">D</text>
<g class="stroked-text"><desc>D</desc>
<path d="M10.6595 185.5936
L10.6595 184.2936
" />
<path d="M10.6595 184.2936
L10.9690 184.2936
" />
<path d="M10.9690 184.2936
L11.1548 184.3555
" />
<path d="M11.1548 184.3555
L11.2786 184.4793
" />
<path d="M11.2786 184.4793
L11.3405 184.6031
" />
<path d="M11.3405 184.6031
L11.4024 184.8507
" />
<path d="M11.4024 184.8507
L11.4024 185.0365
" />
<path d="M11.4024 185.0365
L11.3405 185.2841
" />
<path d="M11.3405 185.2841
L11.2786 185.4079
" />
<path d="M11.2786 185.4079
L11.1548 185.5317
" />
<path d="M11.1548 185.5317
L10.9690 185.5936
" />
<path d="M10.9690 185.5936
L10.6595 185.5936
" />
</g></g>
<g style="fill:#000000; fill-opacity:0.0; 
stroke:#000000; stroke-width:0.0212; stroke-opacity:1; 
stroke-linecap:round; stroke-linejoin:round;">
</g>
<g style="fill:#000000; fill-opacity:0.0; 
stroke:#000000; stroke-width:0.1500; stroke-opacity:1; 
stroke-linecap:round; stroke-linejoin:round;">
<path d="M287.0022 60.0000
L285.0022 60.0000
" />
</g>
<g style="fill:#000000; fill-opacity:0.0; 
stroke:#000000; stroke-width:0.0212; stroke-opacity:1; 
stroke-linecap:round; stroke-linejoin:round;">
</g>
<g style="fill:#000000; fill-opacity:0.0; 
stroke:#000000; stroke-width:0.1500; stroke-opacity:1; 
stroke-linecap:round; stroke-linejoin:round;">
<path d="M287.0022 110.0000
L285.0022 110.0000
" />
</g>
<g style="fill:#000000; fill-opacity:0.0; 
stroke:#000000; stroke-width:0.0212; stroke-opacity:1; 
stroke-linecap:round; stroke-linejoin:round;">
</g>
<g style="fill:#000000; fill-opacity:0.0; 
stroke:#000000; stroke-width:0.1500; stroke-opacity:1; 
stroke-linecap:round; stroke-linejoin:round;">
<path d="M287.0022 160.0000
L285.0022 160.0000
" />
</g>
<g style="fill:#000000; fill-opacity:0.0; 
stroke:#000000; stroke-width:0.0212; stroke-opacity:1; 
stroke-linecap:round; stroke-linejoin:round;">
</g>
<g style="fill:#000000; fill-opacity:0.0; 
stroke:#000000; stroke-width:0.1500; stroke-opacity:1; 
stroke-linecap:round; stroke-linejoin:round;">
<text x="286.0022" y="35.6500"
textLength="1.2293" font-size="1.7333" lengthAdjust="spacingAndGlyphs"
text-anchor="middle" opacity="0">A</text>
<g class="stroked-text"><desc>A</desc>
<path d="M285.6927 35.2222
L286.3117 35.2222
" />
<path d="M285.5689 35.5936
L286.0022 34.2936
" />
<path d="M286.0022 34.2936
L286.4355 35.5936
" />
</g></g>
<g style="fill:#000000; fill-opacity:0.0; 
stroke:#000000; stroke-width:0.0212; stroke-opacity:1; 
stroke-linecap:round; stroke-linejoin:round;">
</g>
<g style="fill:#000000; fill-opacity:0.0; 
stroke:#000000; stroke-width:0.1500; stroke-opacity:1; 
stroke-linecap:round; stroke-linejoin:round;">
<text x="286.0022" y="85.6500"
textLength="1.4150" font-size="1.7333" lengthAdjust="spacingAndGlyphs"
text-anchor="middle" opacity="0">B</text>
<g class="stroked-text"><desc>B</desc>
<path d="M286.0951 84.9127
L286.2808 84.9746
" />
<path d="M286.2808 84.9746
L286.3427 85.0365
" />
<path d="M286.3427 85.0365
L286.4046 85.1603
" />
<path d="M286.4046 85.1603
L286.4046 85.3460
" />
<path d="M286.4046 85.3460
L286.3427 85.4698
" />
<path d="M286.3427 85.4698
L286.2808 85.5317
" />
<path d="M286.2808 85.5317
L286.1570 85.5936
" />
<path d="M286.1570 85.5936
L285.6617 85.5936
" />
<path d="M285.6617 85.5936
L285.6617 84.2936
" />
<path d="M285.6617 84.2936
L286.0951 84.2936
" />
<path d="M286.0951 84.2936
L286.2189 84.3555
" />
<path d="M286.2189 84.3555
L286.2808 84.4174
" />
<path d="M286.2808 84.4174
L286.3427 84.5412
" />
<path d="M286.3427 84.5412
L286.3427 84.6650
" />
<path d="M286.3427 84.6650
L286.2808 84.7888
" />
<path d="M286.2808 84.7888
L286.2189 84.8507
" />
<path d="M286.2189 84.8507
L286.0951 84.9127
" />
<path d="M286.0951 84.9127
L285.6617 84.9127
" />
</g></g>
<g style="fill:#000000; fill-opacity:0.0; 
stroke:#000000; stroke-width:0.0212; stroke-opacity:1; 
stroke-linecap:round; stroke-linejoin:round;">
</g>
<g style="fill:#000000; fill-opacity:0.0; 
stroke:#000000; stroke-width:0.1500; stroke-opacity:1; 
stroke-linecap:round; stroke-linejoin:round;">
<text x="286.0022" y="135.6500"
textLength="1.4150" font-size="1.7333" lengthAdjust="spacingAndGlyphs"
text-anchor="middle" opacity="0">C</text>
<g class="stroked-text"><desc>C</desc>
<path d="M286.4046 135.4698
L286.3427 135.5317
" />
<path d="M286.3427 135.5317
L286.1570 135.5936
" />
<path d="M286.1570 135.5936
L286.0332 135.5936
" />
<path d="M286.0332 135.5936
L285.8474 135.5317
" />
<path d="M285.8474 135.5317
L285.7236 135.4079
" />
<path d="M285.7236 135.4079
L285.6617 135.2841
" />
<path d="M285.6617 135.2841
L285.5998 135.0365
" />
<path d="M285.5998 135.0365
L285.5998 134.8507
" />
<path d="M285.5998 134.8507
L285.6617 134.6031
" />
<path d="M285.6617 134.6031
L285.7236 134.4793
" />
<path d="M285.7236 134.4793
L285.8474 134.3555
" />
<path d="M285.8474 134.3555
L286.0332 134.2936
" />
<path d="M286.0332 134.2936
L286.1570 134.2936
" />
<path d="M286.1570 134.2936
L286.3427 134.3555
" />
<path d="M286.3427 134.3555
L286.4046 134.4174
" />
</g></g>
<g style="fill:#000000; fill-opacity:0.0; 
stroke:#000000; stroke-width:0.0212; stroke-opacity:1; 
stroke-linecap:round; stroke-linejoin:round;">
</g>
<g style="fill:#000000; fill-opacity:0.0; 
stroke:#000000; stroke-width:0.1500; stroke-opacity:1; 
stroke-linecap:round; stroke-linejoin:round;">
<text x="286.0022" y="185.6500"
textLength="1.4150" font-size="1.7333" lengthAdjust="spacingAndGlyphs"
text-anchor="middle" opacity="0">D</text>
<g class="stroked-text"><desc>D</desc>
<path d="M285.6617 185.5936
L285.6617 184.2936
" />
<path d="M285.6617 184.2936
L285.9712 184.2936
" />
<path d="M285.9712 184.2936
L286.1570 184.3555
" />
<path d="M286.1570 184.3555
L286.2808 184.4793
" />
<path d="M286.2808 184.4793
L286.3427 184.6031
" />
<path d="M286.3427 184.6031
L286.4046 184.8507
" />
<path d="M286.4046 184.8507
L286.4046 185.0365
" />
<path d="M286.4046 185.0365
L286.3427 185.2841
" />
<path d="M286.3427 185.2841
L286.2808 185.4079
" />
<path d="M286.2808 185.4079
L286.1570 185.5317
" />
<path d="M286.1570 185.5317
L285.9712 185.5936
" />
<path d="M285.9712 185.5936
L285.6617 185.5936
" />
</g></g>
<g style="fill:#000000; fill-opacity:0.0; 
stroke:#000000; stroke-width:0.0212; stroke-opacity:1; 
stroke-linecap:round; stroke-linejoin:round;">
</g>
<g style="fill:#000000; fill-opacity:0.0; 
stroke:#000000; stroke-width:0.1500; stroke-opacity:1; 
stroke-linecap:round; stroke-linejoin:round;">
<text x="200.0022" y="193.8572"
textLength="6.9321" font-size="2.0000" lengthAdjust="spacingAndGlyphs"
text-anchor="start" opacity="0">Date: </text>
<g class="stroked-text"><desc>Date: </desc>
<path d="M200.4580 193.7933
L200.4580 192.2933
" />
<path d="M200.4580 192.2933
L200.8152 192.2933
" />
<path d="M200.8152 192.2933
L201.0295 192.3648
" />
<path d="M201.0295 192.3648
L201.1723 192.5076
" />
<path d="M201.1723 192.5076
L201.2437 192.6505
" />
<path d="M201.2437 192.6505
L201.3152 192.9362
" />
<path d="M201.3152 192.9362
L201.3152 193.1505
" />
<path d="M201.3152 193.1505
L201.2437 193.4362
" />
<path d="M201.2437 193.4362
L201.1723 193.5790
" />
<path d="M201.1723 193.5790
L201.0295 193.7219
" />
<path d="M201.0295 193.7219
L200.8152 193.7933
" />
<path d="M200.8152 193.7933
L200.4580 193.7933
" />
<path d="M202.6009 193.7933
L202.6009 193.0076
" />
<path d="M202.6009 193.0076
L202.5295 192.8648
" />
<path d="M202.5295 192.8648
L202.3866 192.7933
" />
<path d="M202.3866 192.7933
L202.1009 192.7933
" />
<path d="M202.1009 192.7933
L201.9580 192.8648
" />
<path d="M202.6009 193.7219
L202.4580 193.7933
" />
<path d="M202.4580 193.7933
L202.1009 193.7933
" />
<path d="M202.1009 193.7933
L201.9580 193.7219
" />
<path d="M201.9580 193.7219
L201.8866 193.5790
" />
<path d="M201.8866 193.5790
L201.8866 193.4362
" />
<path d="M201.8866 193.4362
L201.9580 193.2933
" />
<path d="M201.9580 193.2933
L202.1009 193.2219
" />
<path d="M202.1009 193.2219
L202.4580 193.2219
" />
<path d="M202.4580 193.2219
L202.6009 193.1505
" />
<path d="M203.1009 192.7933
L203.6723 192.7933
" />
<path d="M203.3152 192.2933
L203.3152 193.5790
" />
<path d="M203.3152 193.5790
L203.3866 193.7219
" />
<path d="M203.3866 193.7219
L203.5295 193.7933
" />
<path d="M203.5295 193.7933
L203.6723 193.7933
" />
<path d="M204.7437 193.7219
L204.6009 193.7933
" />
<path d="M204.6009 193.7933
L204.3152 193.7933
" />
<path d="M204.3152 193.7933
L204.1723 193.7219
" />
<path d="M204.1723 193.7219
L204.1009 193.5790
" />
<path d="M204.1009 193.5790
L204.1009 193.0076
" />
<path d="M204.1009 193.0076
L204.1723 192.8648
" />
<path d="M204.1723 192.8648
L204.3152 192.7933
" />
<path d="M204.3152 192.7933
L204.6009 192.7933
" />
<path d="M204.6009 192.7933
L204.7437 192.8648
" />
<path d="M204.7437 192.8648
L204.8152 193.0076
" />
<path d="M204.8152 193.0076
L204.8152 193.1505
" />
<path d="M204.8152 193.1505
L204.1009 193.2933
" />
<path d="M205.4580 193.6505
L205.5295 193.7219
" />
<path d="M205.5295 193.7219
L205.4580 193.7933
" />
<path d="M205.4580 193.7933
L205.3866 193.7219
" />
<path d="M205.3866 193.7219
L205.4580 193.6505
" />
<path d="M205.4580 193.6505
L205.4580 193.7933
" />
<path d="M205.4580 192.8648
L205.5295 192.9362
" />
<path d="M205.5295 192.9362
L205.4580 193.0076
" />
<path d="M205.4580 193.0076
L205.3866 192.9362
" />
<path d="M205.3866 192.9362
L205.4580 192.8648
" />
<path d="M205.4580 192.8648
L205.4580 193.0076
" />
</g></g>
<g style="fill:#000000; fill-opacity:0.0; 
stroke:#000000; stroke-width:0.0212; stroke-opacity:1; 
stroke-linecap:round; stroke-linejoin:round;">
</g>
<g style="fill:#000000; fill-opacity:0.0; 
stroke:#000000; stroke-width:0.1500; stroke-opacity:1; 
stroke-linecap:round; stroke-linejoin:round;">
<path d="M177.0022 194.5072
L285.0022 194.5072
" />
</g>
<g style="fill:#000000; fill-opacity:0.0; 
stroke:#000000; stroke-width:0.0212; stroke-opacity:1; 
stroke-linecap:round; stroke-linejoin:round;">
</g>
<g style="fill:#000000; fill-opacity:0.0; 
stroke:#000000; stroke-width:0.1500; stroke-opacity:1; 
stroke-linecap:round; stroke-linejoin:round;">
<text x="178.0022" y="196.6572"
textLength="32.2893" font-size="2.0000" lengthAdjust="spacingAndGlyphs"
text-anchor="start" opacity="0">KiCad E.D.A.  kicad 7.0.5-0</text>
<g class="stroked-text"><desc>KiCad E.D.A.  kicad 7.0.5-0</desc>
<path d="M178.4580 196.5933
L178.4580 195.0933
" />
<path d="M179.3152 196.5933
L178.6723 195.7362
" />
<path d="M179.3152 195.0933
L178.4580 195.9505
" />
<path d="M179.9580 196.5933
L179.9580 195.5933
" />
<path d="M179.9580 195.0933
L179.8866 195.1648
" />
<path d="M179.8866 195.1648
L179.9580 195.2362
" />
<path d="M179.9580 195.2362
L180.0295 195.1648
" />
<path d="M180.0295 195.1648
L179.9580 195.0933
" />
<path d="M179.9580 195.0933
L179.9580 195.2362
" />
<path d="M181.5295 196.4505
L181.4580 196.5219
" />
<path d="M181.4580 196.5219
L181.2437 196.5933
" />
<path d="M181.2437 196.5933
L181.1009 196.5933
" />
<path d="M181.1009 196.5933
L180.8866 196.5219
" />
<path d="M180.8866 196.5219
L180.7437 196.3790
" />
<path d="M180.7437 196.3790
L180.6723 196.2362
" />
<path d="M180.6723 196.2362
L180.6009 195.9505
" />
<path d="M180.6009 195.9505
L180.6009 195.7362
" />
<path d="M180.6009 195.7362
L180.6723 195.4505
" />
<path d="M180.6723 195.4505
L180.7437 195.3076
" />
<path d="M180.7437 195.3076
L180.8866 195.1648
" />
<path d="M180.8866 195.1648
L181.1009 195.0933
" />
<path d="M181.1009 195.0933
L181.2437 195.0933
" />
<path d="M181.2437 195.0933
L181.4580 195.1648
" />
<path d="M181.4580 195.1648
L181.5295 195.2362
" />
<path d="M182.8152 196.5933
L182.8152 195.8076
" />
<path d="M182.8152 195.8076
L182.7437 195.6648
" />
<path d="M182.7437 195.6648
L182.6009 195.5933
" />
<path d="M182.6009 195.5933
L182.3152 195.5933
" />
<path d="M182.3152 195.5933
L182.1723 195.6648
" />
<path d="M182.8152 196.5219
L182.6723 196.5933
" />
<path d="M182.6723 196.5933
L182.3152 196.5933
" />
<path d="M182.3152 196.5933
L182.1723 196.5219
" />
<path d="M182.1723 196.5219
L182.1009 196.3790
" />
<path d="M182.1009 196.3790
L182.1009 196.2362
" />
<path d="M182.1009 196.2362
L182.1723 196.0933
" />
<path d="M182.1723 196.0933
L182.3152 196.0219
" />
<path d="M182.3152 196.0219
L182.6723 196.0219
" />
<path d="M182.6723 196.0219
L182.8152 195.9505
" />
<path d="M184.1723 196.5933
L184.1723 195.0933
" />
<path d="M184.1723 196.5219
L184.0295 196.5933
" />
<path d="M184.0295 196.5933
L183.7437 196.5933
" />
<path d="M183.7437 196.5933
L183.6009 196.5219
" />
<path d="M183.6009 196.5219
L183.5295 196.4505
" />
<path d="M183.5295 196.4505
L183.4580 196.3076
" />
<path d="M183.4580 196.3076
L183.4580 195.8790
" />
<path d="M183.4580 195.8790
L183.5295 195.7362
" />
<path d="M183.5295 195.7362
L183.6009 195.6648
" />
<path d="M183.6009 195.6648
L183.7437 195.5933
" />
<path d="M183.7437 195.5933
L184.0295 195.5933
" />
<path d="M184.0295 195.5933
L184.1723 195.6648
" />
<path d="M186.0295 195.8076
L186.5295 195.8076
" />
<path d="M186.7437 196.5933
L186.0295 196.5933
" />
<path d="M186.0295 196.5933
L186.0295 195.0933
" />
<path d="M186.0295 195.0933
L186.7437 195.0933
" />
<path d="M187.3866 196.4505
L187.4580 196.5219
" />
<path d="M187.4580 196.5219
L187.3866 196.5933
" />
<path d="M187.3866 196.5933
L187.3152 196.5219
" />
<path d="M187.3152 196.5219
L187.3866 196.4505
" />
<path d="M187.3866 196.4505
L187.3866 196.5933
" />
<path d="M188.1009 196.5933
L188.1009 195.0933
" />
<path d="M188.1009 195.0933
L188.4580 195.0933
" />
<path d="M188.4580 195.0933
L188.6723 195.1648
" />
<path d="M188.6723 195.1648
L188.8152 195.3076
" />
<path d="M188.8152 195.3076
L188.8866 195.4505
" />
<path d="M188.8866 195.4505
L188.9580 195.7362
" />
<path d="M188.9580 195.7362
L188.9580 195.9505
" />
<path d="M188.9580 195.9505
L188.8866 196.2362
" />
<path d="M188.8866 196.2362
L188.8152 196.3790
" />
<path d="M188.8152 196.3790
L188.6723 196.5219
" />
<path d="M188.6723 196.5219
L188.4580 196.5933
" />
<path d="M188.4580 196.5933
L188.1009 196.5933
" />
<path d="M189.6009 196.4505
L189.6723 196.5219
" />
<path d="M189.6723 196.5219
L189.6009 196.5933
" />
<path d="M189.6009 196.5933
L189.5295 196.5219
" />
<path d="M189.5295 196.5219
L189.6009 196.4505
" />
<path d="M189.6009 196.4505
L189.6009 196.5933
" />
<path d="M190.2437 196.1648
L190.9580 196.1648
" />
<path d="M190.1009 196.5933
L190.6009 195.0933
" />
<path d="M190.6009 195.0933
L191.1009 196.5933
" />
<path d="M191.6009 196.4505
L191.6723 196.5219
" />
<path d="M191.6723 196.5219
L191.6009 196.5933
" />
<path d="M191.6009 196.5933
L191.5295 196.5219
" />
<path d="M191.5295 196.5219
L191.6009 196.4505
" />
<path d="M191.6009 196.4505
L191.6009 196.5933
" />
<path d="M194.6009 196.5933
L194.6009 195.0933
" />
<path d="M194.7437 196.0219
L195.1723 196.5933
" />
<path d="M195.1723 195.5933
L194.6009 196.1648
" />
<path d="M195.8152 196.5933
L195.8152 195.5933
" />
<path d="M195.8152 195.0933
L195.7437 195.1648
" />
<path d="M195.7437 195.1648
L195.8152 195.2362
" />
<path d="M195.8152 195.2362
L195.8866 195.1648
" />
<path d="M195.8866 195.1648
L195.8152 195.0933
" />
<path d="M195.8152 195.0933
L195.8152 195.2362
" />
<path d="M197.1723 196.5219
L197.0295 196.5933
" />
<path d="M197.0295 196.5933
L196.7437 196.5933
" />
<path d="M196.7437 196.5933
L196.6009 196.5219
" />
<path d="M196.6009 196.5219
L196.5295 196.4505
" />
<path d="M196.5295 196.4505
L196.4580 196.3076
" />
<path d="M196.4580 196.3076
L196.4580 195.8790
" />
<path d="M196.4580 195.8790
L196.5295 195.7362
" />
<path d="M196.5295 195.7362
L196.6009 195.6648
" />
<path d="M196.6009 195.6648
L196.7437 195.5933
" />
<path d="M196.7437 195.5933
L197.0295 195.5933
" />
<path d="M197.0295 195.5933
L197.1723 195.6648
" />
<path d="M198.4580 196.5933
L198.4580 195.8076
" />
<path d="M198.4580 195.8076
L198.3866 195.6648
" />
<path d="M198.3866 195.6648
L198.2437 195.5933
" />
<path d="M198.2437 195.5933
L197.9580 195.5933
" />
<path d="M197.9580 195.5933
L197.8152 195.6648
" />
<path d="M198.4580 196.5219
L198.3152 196.5933
" />
<path d="M198.3152 196.5933
L197.9580 196.5933
" />
<path d="M197.9580 196.5933
L197.8152 196.5219
" />
<path d="M197.8152 196.5219
L197.7437 196.3790
" />
<path d="M197.7437 196.3790
L197.7437 196.2362
" />
<path d="M197.7437 196.2362
L197.8152 196.0933
" />
<path d="M197.8152 196.0933
L197.9580 196.0219
" />
<path d="M197.9580 196.0219
L198.3152 196.0219
" />
<path d="M198.3152 196.0219
L198.4580 195.9505
" />
<path d="M199.8152 196.5933
L199.8152 195.0933
" />
<path d="M199.8152 196.5219
L199.6723 196.5933
" />
<path d="M199.6723 196.5933
L199.3866 196.5933
" />
<path d="M199.3866 196.5933
L199.2437 196.5219
" />
<path d="M199.2437 196.5219
L199.1723 196.4505
" />
<path d="M199.1723 196.4505
L199.1009 196.3076
" />
<path d="M199.1009 196.3076
L199.1009 195.8790
" />
<path d="M199.1009 195.8790
L199.1723 195.7362
" />
<path d="M199.1723 195.7362
L199.2437 195.6648
" />
<path d="M199.2437 195.6648
L199.3866 195.5933
" />
<path d="M199.3866 195.5933
L199.6723 195.5933
" />
<path d="M199.6723 195.5933
L199.8152 195.6648
" />
<path d="M201.5295 195.0933
L202.5295 195.0933
" />
<path d="M202.5295 195.0933
L201.8866 196.5933
" />
<path d="M203.1009 196.4505
L203.1723 196.5219
" />
<path d="M203.1723 196.5219
L203.1009 196.5933
" />
<path d="M203.1009 196.5933
L203.0295 196.5219
" />
<path d="M203.0295 196.5219
L203.1009 196.4505
" />
<path d="M203.1009 196.4505
L203.1009 196.5933
" />
<path d="M204.1009 195.0933
L204.2437 195.0933
" />
<path d="M204.2437 195.0933
L204.3866 195.1648
" />
<path d="M204.3866 195.1648
L204.4580 195.2362
" />
<path d="M204.4580 195.2362
L204.5295 195.3790
" />
<path d="M204.5295 195.3790
L204.6009 195.6648
" />
<path d="M204.6009 195.6648
L204.6009 196.0219
" />
<path d="M204.6009 196.0219
L204.5295 196.3076
" />
<path d="M204.5295 196.3076
L204.4580 196.4505
" />
<path d="M204.4580 196.4505
L204.3866 196.5219
" />
<path d="M204.3866 196.5219
L204.2437 196.5933
" />
<path d="M204.2437 196.5933
L204.1009 196.5933
" />
<path d="M204.1009 196.5933
L203.9580 196.5219
" />
<path d="M203.9580 196.5219
L203.8866 196.4505
" />
<path d="M203.8866 196.4505
L203.8152 196.3076
" />
<path d="M203.8152 196.3076
L203.7437 196.0219
" />
<path d="M203.7437 196.0219
L203.7437 195.6648
" />
<path d="M203.7437 195.6648
L203.8152 195.3790
" />
<path d="M203.8152 195.3790
L203.8866 195.2362
" />
<path d="M203.8866 195.2362
L203.9580 195.1648
" />
<path d="M203.9580 195.1648
L204.1009 195.0933
" />
<path d="M205.2437 196.4505
L205.3152 196.5219
" />
<path d="M205.3152 196.5219
L205.2437 196.5933
" />
<path d="M205.2437 196.5933
L205.1723 196.5219
" />
<path d="M205.1723 196.5219
L205.2437 196.4505
" />
<path d="M205.2437 196.4505
L205.2437 196.5933
" />
<path d="M206.6723 195.0933
L205.9580 195.0933
" />
<path d="M205.9580 195.0933
L205.8866 195.8076
" />
<path d="M205.8866 195.8076
L205.9580 195.7362
" />
<path d="M205.9580 195.7362
L206.1009 195.6648
" />
<path d="M206.1009 195.6648
L206.4580 195.6648
" />
<path d="M206.4580 195.6648
L206.6009 195.7362
" />
<path d="M206.6009 195.7362
L206.6723 195.8076
" />
<path d="M206.6723 195.8076
L206.7437 195.9505
" />
<path d="M206.7437 195.9505
L206.7437 196.3076
" />
<path d="M206.7437 196.3076
L206.6723 196.4505
" />
<path d="M206.6723 196.4505
L206.6009 196.5219
" />
<path d="M206.6009 196.5219
L206.4580 196.5933
" />
<path d="M206.4580 196.5933
L206.1009 196.5933
" />
<path d="M206.1009 196.5933
L205.9580 196.5219
" />
<path d="M205.9580 196.5219
L205.8866 196.4505
" />
<path d="M207.3866 196.0219
L208.5295 196.0219
" />
<path d="M209.5295 195.0933
L209.6723 195.0933
" />
<path d="M209.6723 195.0933
L209.8152 195.1648
" />
<path d="M209.8152 195.1648
L209.8866 195.2362
" />
<path d="M209.8866 195.2362
L209.9580 195.3790
" />
<path d="M209.9580 195.3790
L210.0295 195.6648
" />
<path d="M210.0295 195.6648
L210.0295 196.0219
" />
<path d="M210.0295 196.0219
L209.9580 196.3076
" />
<path d="M209.9580 196.3076
L209.8866 196.4505
" />
<path d="M209.8866 196.4505
L209.8152 196.5219
" />
<path d="M209.8152 196.5219
L209.6723 196.5933
" />
<path d="M209.6723 196.5933
L209.5295 196.5933
" />
<path d="M209.5295 196.5933
L209.3866 196.5219
" />
<path d="M209.3866 196.5219
L209.3152 196.4505
" />
<path d="M209.3152 196.4505
L209.2437 196.3076
" />
<path d="M209.2437 196.3076
L209.1723 196.0219
" />
<path d="M209.1723 196.0219
L209.1723 195.6648
" />
<path d="M209.1723 195.6648
L209.2437 195.3790
" />
<path d="M209.2437 195.3790
L209.3152 195.2362
" />
<path d="M209.3152 195.2362
L209.3866 195.1648
" />
<path d="M209.3866 195.1648
L209.5295 195.0933
" />
</g></g>
<g style="fill:#000000; fill-opacity:0.0; 
stroke:#000000; stroke-width:0.0212; stroke-opacity:1; 
stroke-linecap:round; stroke-linejoin:round;">
</g>
<g style="fill:#000000; fill-opacity:0.0; 
stroke:#000000; stroke-width:0.1500; stroke-opacity:1; 
stroke-linecap:round; stroke-linejoin:round;">
<path d="M177.0022 191.5072
L285.0022 191.5072
" />
</g>
<g style="fill:#000000; fill-opacity:0.0; 
stroke:#000000; stroke-width:0.0212; stroke-opacity:1; 
stroke-linecap:round; stroke-linejoin:round;">
</g>
<g style="fill:#000000; fill-opacity:0.0; 
stroke:#000000; stroke-width:0.3000; stroke-opacity:1; 
stroke-linecap:round; stroke-linejoin:round;">
<text x="263.0022" y="193.8572"
textLength="6.2357" font-size="2.0000" lengthAdjust="spacingAndGlyphs"
text-anchor="start" opacity="0">Rev: </text>
<g class="stroked-text"><desc>Rev: </desc>
<path d="M264.4139 193.7855
L263.9139 193.0712
" />
<path d="M263.5567 193.7855
L263.5567 192.2855
" />
<path d="M263.5567 192.2855
L264.1281 192.2855
" />
<path d="M264.1281 192.2855
L264.2710 192.3570
" />
<path d="M264.2710 192.3570
L264.3424 192.4284
" />
<path d="M264.3424 192.4284
L264.4139 192.5712
" />
<path d="M264.4139 192.5712
L264.4139 192.7855
" />
<path d="M264.4139 192.7855
L264.3424 192.9284
" />
<path d="M264.3424 192.9284
L264.2710 192.9998
" />
<path d="M264.2710 192.9998
L264.1281 193.0712
" />
<path d="M264.1281 193.0712
L263.5567 193.0712
" />
<path d="M265.6281 193.7141
L265.4853 193.7855
" />
<path d="M265.4853 193.7855
L265.1996 193.7855
" />
<path d="M265.1996 193.7855
L265.0567 193.7141
" />
<path d="M265.0567 193.7141
L264.9853 193.5712
" />
<path d="M264.9853 193.5712
L264.9853 192.9998
" />
<path d="M264.9853 192.9998
L265.0567 192.8570
" />
<path d="M265.0567 192.8570
L265.1996 192.7855
" />
<path d="M265.1996 192.7855
L265.4853 192.7855
" />
<path d="M265.4853 192.7855
L265.6281 192.8570
" />
<path d="M265.6281 192.8570
L265.6996 192.9998
" />
<path d="M265.6996 192.9998
L265.6996 193.1427
" />
<path d="M265.6996 193.1427
L264.9853 193.2855
" />
<path d="M266.1996 192.7855
L266.5567 193.7855
" />
<path d="M266.5567 193.7855
L266.9139 192.7855
" />
<path d="M267.4853 193.6427
L267.5567 193.7141
" />
<path d="M267.5567 193.7141
L267.4853 193.7855
" />
<path d="M267.4853 193.7855
L267.4139 193.7141
" />
<path d="M267.4139 193.7141
L267.4853 193.6427
" />
<path d="M267.4853 193.6427
L267.4853 193.7855
" />
<path d="M267.4853 192.8570
L267.5567 192.9284
" />
<path d="M267.5567 192.9284
L267.4853 192.9998
" />
<path d="M267.4853 192.9998
L267.4139 192.9284
" />
<path d="M267.4139 192.9284
L267.4853 192.8570
" />
<path d="M267.4853 192.8570
L267.4853 192.9998
" />
</g></g>
<g style="fill:#000000; fill-opacity:0.0; 
stroke:#000000; stroke-width:0.0212; stroke-opacity:1; 
stroke-linecap:round; stroke-linejoin:round;">
</g>
<g style="fill:#000000; fill-opacity:0.0; 
stroke:#000000; stroke-width:0.1500; stroke-opacity:1; 
stroke-linecap:round; stroke-linejoin:round;">
<text x="178.0022" y="193.8572"
textLength="9.2893" font-size="2.0000" lengthAdjust="spacingAndGlyphs"
text-anchor="start" opacity="0">Size: A4</text>
<g class="stroked-text"><desc>Size: A4</desc>
<path d="M178.3866 193.7219
L178.6009 193.7933
" />
<path d="M178.6009 193.7933
L178.9580 193.7933
" />
<path d="M178.9580 193.7933
L179.1009 193.7219
" />
<path d="M179.1009 193.7219
L179.1723 193.6505
" />
<path d="M179.1723 193.6505
L179.2437 193.5076
" />
<path d="M179.2437 193.5076
L179.2437 193.3648
" />
<path d="M179.2437 193.3648
L179.1723 193.2219
" />
<path d="M179.1723 193.2219
L179.1009 193.1505
" />
<path d="M179.1009 193.1505
L178.9580 193.0790
" />
<path d="M178.9580 193.0790
L178.6723 193.0076
" />
<path d="M178.6723 193.0076
L178.5295 192.9362
" />
<path d="M178.5295 192.9362
L178.4580 192.8648
" />
<path d="M178.4580 192.8648
L178.3866 192.7219
" />
<path d="M178.3866 192.7219
L178.3866 192.5790
" />
<path d="M178.3866 192.5790
L178.4580 192.4362
" />
<path d="M178.4580 192.4362
L178.5295 192.3648
" />
<path d="M178.5295 192.3648
L178.6723 192.2933
" />
<path d="M178.6723 192.2933
L179.0295 192.2933
" />
<path d="M179.0295 192.2933
L179.2437 192.3648
" />
<path d="M179.8866 193.7933
L179.8866 192.7933
" />
<path d="M179.8866 192.2933
L179.8152 192.3648
" />
<path d="M179.8152 192.3648
L179.8866 192.4362
" />
<path d="M179.8866 192.4362
L179.9580 192.3648
" />
<path d="M179.9580 192.3648
L179.8866 192.2933
" />
<path d="M179.8866 192.2933
L179.8866 192.4362
" />
<path d="M180.4580 192.7933
L181.2437 192.7933
" />
<path d="M181.2437 192.7933
L180.4580 193.7933
" />
<path d="M180.4580 193.7933
L181.2437 193.7933
" />
<path d="M182.3866 193.7219
L182.2437 193.7933
" />
<path d="M182.2437 193.7933
L181.9580 193.7933
" />
<path d="M181.9580 193.7933
L181.8152 193.7219
" />
<path d="M181.8152 193.7219
L181.7437 193.5790
" />
<path d="M181.7437 193.5790
L181.7437 193.0076
" />
<path d="M181.7437 193.0076
L181.8152 192.8648
" />
<path d="M181.8152 192.8648
L181.9580 192.7933
" />
<path d="M181.9580 192.7933
L182.2437 192.7933
" />
<path d="M182.2437 192.7933
L182.3866 192.8648
" />
<path d="M182.3866 192.8648
L182.4580 193.0076
" />
<path d="M182.4580 193.0076
L182.4580 193.1505
" />
<path d="M182.4580 193.1505
L181.7437 193.2933
" />
<path d="M183.1009 193.6505
L183.1723 193.7219
" />
<path d="M183.1723 193.7219
L183.1009 193.7933
" />
<path d="M183.1009 193.7933
L183.0295 193.7219
" />
<path d="M183.0295 193.7219
L183.1009 193.6505
" />
<path d="M183.1009 193.6505
L183.1009 193.7933
" />
<path d="M183.1009 192.8648
L183.1723 192.9362
" />
<path d="M183.1723 192.9362
L183.1009 193.0076
" />
<path d="M183.1009 193.0076
L183.0295 192.9362
" />
<path d="M183.0295 192.9362
L183.1009 192.8648
" />
<path d="M183.1009 192.8648
L183.1009 193.0076
" />
<path d="M184.8866 193.3648
L185.6009 193.3648
" />
<path d="M184.7437 193.7933
L185.2437 192.2933
" />
<path d="M185.2437 192.2933
L185.7437 193.7933
" />
<path d="M186.8866 192.7933
L186.8866 193.7933
" />
<path d="M186.5295 192.2219
L186.1723 193.2933
" />
<path d="M186.1723 193.2933
L187.1009 193.2933
" />
</g></g>
<g style="fill:#000000; fill-opacity:0.0; 
stroke:#000000; stroke-width:0.0212; stroke-opacity:1; 
stroke-linecap:round; stroke-linejoin:round;">
</g>
<g style="fill:#000000; fill-opacity:0.0; 
stroke:#000000; stroke-width:0.1500; stroke-opacity:1; 
stroke-linecap:round; stroke-linejoin:round;">
<text x="263.0022" y="196.6572"
textLength="8.4321" font-size="2.0000" lengthAdjust="spacingAndGlyphs"
text-anchor="start" opacity="0">Id: 1/1</text>
<g class="stroked-text"><desc>Id: 1/1</desc>
<path d="M263.4580 196.5933
L263.4580 195.0933
" />
<path d="M264.8152 196.5933
L264.8152 195.0933
" />
<path d="M264.8152 196.5219
L264.6723 196.5933
" />
<path d="M264.6723 196.5933
L264.3866 196.5933
" />
<path d="M264.3866 196.5933
L264.2437 196.5219
" />
<path d="M264.2437 196.5219
L264.1723 196.4505
" />
<path d="M264.1723 196.4505
L264.1009 196.3076
" />
<path d="M264.1009 196.3076
L264.1009 195.8790
" />
<path d="M264.1009 195.8790
L264.1723 195.7362
" />
<path d="M264.1723 195.7362
L264.2437 195.6648
" />
<path d="M264.2437 195.6648
L264.3866 195.5933
" />
<path d="M264.3866 195.5933
L264.6723 195.5933
" />
<path d="M264.6723 195.5933
L264.8152 195.6648
" />
<path d="M265.5295 196.4505
L265.6009 196.5219
" />
<path d="M265.6009 196.5219
L265.5295 196.5933
" />
<path d="M265.5295 196.5933
L265.4580 196.5219
" />
<path d="M265.4580 196.5219
L265.5295 196.4505
" />
<path d="M265.5295 196.4505
L265.5295 196.5933
" />
<path d="M265.5295 195.6648
L265.6009 195.7362
" />
<path d="M265.6009 195.7362
L265.5295 195.8076
" />
<path d="M265.5295 195.8076
L265.4580 195.7362
" />
<path d="M265.4580 195.7362
L265.5295 195.6648
" />
<path d="M265.5295 195.6648
L265.5295 195.8076
" />
<path d="M268.1723 196.5933
L267.3152 196.5933
" />
<path d="M267.7437 196.5933
L267.7437 195.0933
" />
<path d="M267.7437 195.0933
L267.6009 195.3076
" />
<path d="M267.6009 195.3076
L267.4580 195.4505
" />
<path d="M267.4580 195.4505
L267.3152 195.5219
" />
<path d="M269.8866 195.0219
L268.6009 196.9505
" />
<path d="M271.1723 196.5933
L270.3152 196.5933
" />
<path d="M270.7437 196.5933
L270.7437 195.0933
" />
<path d="M270.7437 195.0933
L270.6009 195.3076
" />
<path d="M270.6009 195.3076
L270.4580 195.4505
" />
<path d="M270.4580 195.4505
L270.3152 195.5219
" />
</g></g>
<g style="fill:#000000; fill-opacity:0.0; 
stroke:#000000; stroke-width:0.0212; stroke-opacity:1; 
stroke-linecap:round; stroke-linejoin:round;">
</g>
<g style="fill:#000000; fill-opacity:0.0; 
stroke:#000000; stroke-width:0.1500; stroke-opacity:1; 
stroke-linecap:round; stroke-linejoin:round;">
<path d="M177.0022 187.5072
L285.0022 187.5072
" />
</g>
<g style="fill:#000000; fill-opacity:0.0; 
stroke:#000000; stroke-width:0.0212; stroke-opacity:1; 
stroke-linecap:round; stroke-linejoin:round;">
</g>
<g style="fill:#000000; fill-opacity:0.0; 
stroke:#000000; stroke-width:0.4000; stroke-opacity:1; 
stroke-linecap:round; stroke-linejoin:round;">
<text x="178.0022" y="190.3072"
textLength="9.4571" font-size="2.6667" lengthAdjust="spacingAndGlyphs"
text-anchor="start" opacity="0">Title: </text>
<g class="stroked-text"><desc>Title: </desc>
<path d="M178.6939 188.2116
L179.8368 188.2116
" />
<path d="M179.0154 190.2116
L179.2654 188.2116
" />
<path d="M180.2535 190.2116
L180.4201 188.8783
" />
<path d="M180.5035 188.2116
L180.3963 188.3069
" />
<path d="M180.3963 188.3069
L180.4796 188.4021
" />
<path d="M180.4796 188.4021
L180.5868 188.3069
" />
<path d="M180.5868 188.3069
L180.5035 188.2116
" />
<path d="M180.5035 188.2116
L180.4796 188.4021
" />
<path d="M181.0868 188.8783
L181.8487 188.8783
" />
<path d="M181.4558 188.2116
L181.2415 189.9259
" />
<path d="M181.2415 189.9259
L181.3130 190.1164
" />
<path d="M181.3130 190.1164
L181.4915 190.2116
" />
<path d="M181.4915 190.2116
L181.6820 190.2116
" />
<path d="M182.6344 190.2116
L182.4558 190.1164
" />
<path d="M182.4558 190.1164
L182.3844 189.9259
" />
<path d="M182.3844 189.9259
L182.5987 188.2116
" />
<path d="M184.1701 190.1164
L183.9677 190.2116
" />
<path d="M183.9677 190.2116
L183.5868 190.2116
" />
<path d="M183.5868 190.2116
L183.4082 190.1164
" />
<path d="M183.4082 190.1164
L183.3368 189.9259
" />
<path d="M183.3368 189.9259
L183.4320 189.1640
" />
<path d="M183.4320 189.1640
L183.5511 188.9735
" />
<path d="M183.5511 188.9735
L183.7535 188.8783
" />
<path d="M183.7535 188.8783
L184.1344 188.8783
" />
<path d="M184.1344 188.8783
L184.3130 188.9735
" />
<path d="M184.3130 188.9735
L184.3844 189.1640
" />
<path d="M184.3844 189.1640
L184.3606 189.3545
" />
<path d="M184.3606 189.3545
L183.3844 189.5450
" />
<path d="M185.1344 190.0212
L185.2177 190.1164
" />
<path d="M185.2177 190.1164
L185.1106 190.2116
" />
<path d="M185.1106 190.2116
L185.0273 190.1164
" />
<path d="M185.0273 190.1164
L185.1344 190.0212
" />
<path d="M185.1344 190.0212
L185.1106 190.2116
" />
<path d="M185.2654 188.9735
L185.3487 189.0688
" />
<path d="M185.3487 189.0688
L185.2415 189.1640
" />
<path d="M185.2415 189.1640
L185.1582 189.0688
" />
<path d="M185.1582 189.0688
L185.2654 188.9735
" />
<path d="M185.2654 188.9735
L185.2415 189.1640
" />
</g></g>
<g style="fill:#000000; fill-opacity:0.0; 
stroke:#000000; stroke-width:0.0212; stroke-opacity:1; 
stroke-linecap:round; stroke-linejoin:round;">
</g>
<g style="fill:#000000; fill-opacity:0.0; 
stroke:#000000; stroke-width:0.1500; stroke-opacity:1; 
stroke-linecap:round; stroke-linejoin:round;">
<text x="178.0022" y="186.4572"
textLength="29.5036" font-size="2.0000" lengthAdjust="spacingAndGlyphs"
text-anchor="start" opacity="0">File: biometrics.kicad_pcb</text>
<g class="stroked-text"><desc>File: biometrics.kicad_pcb</desc>
<path d="M178.9580 185.6076
L178.4580 185.6076
" />
<path d="M178.4580 186.3933
L178.4580 184.8933
" />
<path d="M178.4580 184.8933
L179.1723 184.8933
" />
<path d="M179.7437 186.3933
L179.7437 185.3933
" />
<path d="M179.7437 184.8933
L179.6723 184.9648
" />
<path d="M179.6723 184.9648
L179.7437 185.0362
" />
<path d="M179.7437 185.0362
L179.8152 184.9648
" />
<path d="M179.8152 184.9648
L179.7437 184.8933
" />
<path d="M179.7437 184.8933
L179.7437 185.0362
" />
<path d="M180.6723 186.3933
L180.5295 186.3219
" />
<path d="M180.5295 186.3219
L180.4580 186.1790
" />
<path d="M180.4580 186.1790
L180.4580 184.8933
" />
<path d="M181.8152 186.3219
L181.6723 186.3933
" />
<path d="M181.6723 186.3933
L181.3866 186.3933
" />
<path d="M181.3866 186.3933
L181.2437 186.3219
" />
<path d="M181.2437 186.3219
L181.1723 186.1790
" />
<path d="M181.1723 186.1790
L181.1723 185.6076
" />
<path d="M181.1723 185.6076
L181.2437 185.4648
" />
<path d="M181.2437 185.4648
L181.3866 185.3933
" />
<path d="M181.3866 185.3933
L181.6723 185.3933
" />
<path d="M181.6723 185.3933
L181.8152 185.4648
" />
<path d="M181.8152 185.4648
L181.8866 185.6076
" />
<path d="M181.8866 185.6076
L181.8866 185.7505
" />
<path d="M181.8866 185.7505
L181.1723 185.8933
" />
<path d="M182.5295 186.2505
L182.6009 186.3219
" />
<path d="M182.6009 186.3219
L182.5295 186.3933
" />
<path d="M182.5295 186.3933
L182.4580 186.3219
" />
<path d="M182.4580 186.3219
L182.5295 186.2505
" />
<path d="M182.5295 186.2505
L182.5295 186.3933
" />
<path d="M182.5295 185.4648
L182.6009 185.5362
" />
<path d="M182.6009 185.5362
L182.5295 185.6076
" />
<path d="M182.5295 185.6076
L182.4580 185.5362
" />
<path d="M182.4580 185.5362
L182.5295 185.4648
" />
<path d="M182.5295 185.4648
L182.5295 185.6076
" />
<path d="M184.3866 186.3933
L184.3866 184.8933
" />
<path d="M184.3866 185.4648
L184.5295 185.3933
" />
<path d="M184.5295 185.3933
L184.8152 185.3933
" />
<path d="M184.8152 185.3933
L184.9580 185.4648
" />
<path d="M184.9580 185.4648
L185.0295 185.5362
" />
<path d="M185.0295 185.5362
L185.1009 185.6790
" />
<path d="M185.1009 185.6790
L185.1009 186.1076
" />
<path d="M185.1009 186.1076
L185.0295 186.2505
" />
<path d="M185.0295 186.2505
L184.9580 186.3219
" />
<path d="M184.9580 186.3219
L184.8152 186.3933
" />
<path d="M184.8152 186.3933
L184.5295 186.3933
" />
<path d="M184.5295 186.3933
L184.3866 186.3219
" />
<path d="M185.7437 186.3933
L185.7437 185.3933
" />
<path d="M185.7437 184.8933
L185.6723 184.9648
" />
<path d="M185.6723 184.9648
L185.7437 185.0362
" />
<path d="M185.7437 185.0362
L185.8152 184.9648
" />
<path d="M185.8152 184.9648
L185.7437 184.8933
" />
<path d="M185.7437 184.8933
L185.7437 185.0362
" />
<path d="M186.6723 186.3933
L186.5295 186.3219
" />
<path d="M186.5295 186.3219
L186.4580 186.2505
" />
<path d="M186.4580 186.2505
L186.3866 186.1076
" />
<path d="M186.3866 186.1076
L186.3866 185.6790
" />
<path d="M186.3866 185.6790
L186.4580 185.5362
" />
<path d="M186.4580 185.5362
L186.5295 185.4648
" />
<path d="M186.5295 185.4648
L186.6723 185.3933
" />
<path d="M186.6723 185.3933
L186.8866 185.3933
" />
<path d="M186.8866 185.3933
L187.0295 185.4648
" />
<path d="M187.0295 185.4648
L187.1009 185.5362
" />
<path d="M187.1009 185.5362
L187.1723 185.6790
" />
<path d="M187.1723 185.6790
L187.1723 186.1076
" />
<path d="M187.1723 186.1076
L187.1009 186.2505
" />
<path d="M187.1009 186.2505
L187.0295 186.3219
" />
<path d="M187.0295 186.3219
L186.8866 186.3933
" />
<path d="M186.8866 186.3933
L186.6723 186.3933
" />
<path d="M187.8152 186.3933
L187.8152 185.3933
" />
<path d="M187.8152 185.5362
L187.8866 185.4648
" />
<path d="M187.8866 185.4648
L188.0295 185.3933
" />
<path d="M188.0295 185.3933
L188.2437 185.3933
" />
<path d="M188.2437 185.3933
L188.3866 185.4648
" />
<path d="M188.3866 185.4648
L188.4580 185.6076
" />
<path d="M188.4580 185.6076
L188.4580 186.3933
" />
<path d="M188.4580 185.6076
L188.5295 185.4648
" />
<path d="M188.5295 185.4648
L188.6723 185.3933
" />
<path d="M188.6723 185.3933
L188.8866 185.3933
" />
<path d="M188.8866 185.3933
L189.0295 185.4648
" />
<path d="M189.0295 185.4648
L189.1009 185.6076
" />
<path d="M189.1009 185.6076
L189.1009 186.3933
" />
<path d="M190.3866 186.3219
L190.2437 186.3933
" />
<path d="M190.2437 186.3933
L189.9580 186.3933
" />
<path d="M189.9580 186.3933
L189.8152 186.3219
" />
<path d="M189.8152 186.3219
L189.7437 186.1790
" />
<path d="M189.7437 186.1790
L189.7437 185.6076
" />
<path d="M189.7437 185.6076
L189.8152 185.4648
" />
<path d="M189.8152 185.4648
L189.9580 185.3933
" />
<path d="M189.9580 185.3933
L190.2437 185.3933
" />
<path d="M190.2437 185.3933
L190.3866 185.4648
" />
<path d="M190.3866 185.4648
L190.4580 185.6076
" />
<path d="M190.4580 185.6076
L190.4580 185.7505
" />
<path d="M190.4580 185.7505
L189.7437 185.8933
" />
<path d="M190.8866 185.3933
L191.4580 185.3933
" />
<path d="M191.1009 184.8933
L191.1009 186.1790
" />
<path d="M191.1009 186.1790
L191.1723 186.3219
" />
<path d="M191.1723 186.3219
L191.3152 186.3933
" />
<path d="M191.3152 186.3933
L191.4580 186.3933
" />
<path d="M191.9580 186.3933
L191.9580 185.3933
" />
<path d="M191.9580 185.6790
L192.0295 185.5362
" />
<path d="M192.0295 185.5362
L192.1009 185.4648
" />
<path d="M192.1009 185.4648
L192.2437 185.3933
" />
<path d="M192.2437 185.3933
L192.3866 185.3933
" />
<path d="M192.8866 186.3933
L192.8866 185.3933
" />
<path d="M192.8866 184.8933
L192.8152 184.9648
" />
<path d="M192.8152 184.9648
L192.8866 185.0362
" />
<path d="M192.8866 185.0362
L192.9580 184.9648
" />
<path d="M192.9580 184.9648
L192.8866 184.8933
" />
<path d="M192.8866 184.8933
L192.8866 185.0362
" />
<path d="M194.2437 186.3219
L194.1009 186.3933
" />
<path d="M194.1009 186.3933
L193.8152 186.3933
" />
<path d="M193.8152 186.3933
L193.6723 186.3219
" />
<path d="M193.6723 186.3219
L193.6009 186.2505
" />
<path d="M193.6009 186.2505
L193.5295 186.1076
" />
<path d="M193.5295 186.1076
L193.5295 185.6790
" />
<path d="M193.5295 185.6790
L193.6009 185.5362
" />
<path d="M193.6009 185.5362
L193.6723 185.4648
" />
<path d="M193.6723 185.4648
L193.8152 185.3933
" />
<path d="M193.8152 185.3933
L194.1009 185.3933
" />
<path d="M194.1009 185.3933
L194.2437 185.4648
" />
<path d="M194.8152 186.3219
L194.9580 186.3933
" />
<path d="M194.9580 186.3933
L195.2437 186.3933
" />
<path d="M195.2437 186.3933
L195.3866 186.3219
" />
<path d="M195.3866 186.3219
L195.4580 186.1790
" />
<path d="M195.4580 186.1790
L195.4580 186.1076
" />
<path d="M195.4580 186.1076
L195.3866 185.9648
" />
<path d="M195.3866 185.9648
L195.2437 185.8933
" />
<path d="M195.2437 185.8933
L195.0295 185.8933
" />
<path d="M195.0295 185.8933
L194.8866 185.8219
" />
<path d="M194.8866 185.8219
L194.8152 185.6790
" />
<path d="M194.8152 185.6790
L194.8152 185.6076
" />
<path d="M194.8152 185.6076
L194.8866 185.4648
" />
<path d="M194.8866 185.4648
L195.0295 185.3933
" />
<path d="M195.0295 185.3933
L195.2437 185.3933
" />
<path d="M195.2437 185.3933
L195.3866 185.4648
" />
<path d="M196.1009 186.2505
L196.1723 186.3219
" />
<path d="M196.1723 186.3219
L196.1009 186.3933
" />
<path d="M196.1009 186.3933
L196.0295 186.3219
" />
<path d="M196.0295 186.3219
L196.1009 186.2505
" />
<path d="M196.1009 186.2505
L196.1009 186.3933
" />
<path d="M196.8152 186.3933
L196.8152 184.8933
" />
<path d="M196.9580 185.8219
L197.3866 186.3933
" />
<path d="M197.3866 185.3933
L196.8152 185.9648
" />
<path d="M198.0295 186.3933
L198.0295 185.3933
" />
<path d="M198.0295 184.8933
L197.9580 184.9648
" />
<path d="M197.9580 184.9648
L198.0295 185.0362
" />
<path d="M198.0295 185.0362
L198.1009 184.9648
" />
<path d="M198.1009 184.9648
L198.0295 184.8933
" />
<path d="M198.0295 184.8933
L198.0295 185.0362
" />
<path d="M199.3866 186.3219
L199.2437 186.3933
" />
<path d="M199.2437 186.3933
L198.9580 186.3933
" />
<path d="M198.9580 186.3933
L198.8152 186.3219
" />
<path d="M198.8152 186.3219
L198.7437 186.2505
" />
<path d="M198.7437 186.2505
L198.6723 186.1076
" />
<path d="M198.6723 186.1076
L198.6723 185.6790
" />
<path d="M198.6723 185.6790
L198.7437 185.5362
" />
<path d="M198.7437 185.5362
L198.8152 185.4648
" />
<path d="M198.8152 185.4648
L198.9580 185.3933
" />
<path d="M198.9580 185.3933
L199.2437 185.3933
" />
<path d="M199.2437 185.3933
L199.3866 185.4648
" />
<path d="M200.6723 186.3933
L200.6723 185.6076
" />
<path d="M200.6723 185.6076
L200.6009 185.4648
" />
<path d="M200.6009 185.4648
L200.4580 185.3933
" />
<path d="M200.4580 185.3933
L200.1723 185.3933
" />
<path d="M200.1723 185.3933
L200.0295 185.4648
" />
<path d="M200.6723 186.3219
L200.5295 186.3933
" />
<path d="M200.5295 186.3933
L200.1723 186.3933
" />
<path d="M200.1723 186.3933
L200.0295 186.3219
" />
<path d="M200.0295 186.3219
L199.9580 186.1790
" />
<path d="M199.9580 186.1790
L199.9580 186.0362
" />
<path d="M199.9580 186.0362
L200.0295 185.8933
" />
<path d="M200.0295 185.8933
L200.1723 185.8219
" />
<path d="M200.1723 185.8219
L200.5295 185.8219
" />
<path d="M200.5295 185.8219
L200.6723 185.7505
" />
<path d="M202.0295 186.3933
L202.0295 184.8933
" />
<path d="M202.0295 186.3219
L201.8866 186.3933
" />
<path d="M201.8866 186.3933
L201.6009 186.3933
" />
<path d="M201.6009 186.3933
L201.4580 186.3219
" />
<path d="M201.4580 186.3219
L201.3866 186.2505
" />
<path d="M201.3866 186.2505
L201.3152 186.1076
" />
<path d="M201.3152 186.1076
L201.3152 185.6790
" />
<path d="M201.3152 185.6790
L201.3866 185.5362
" />
<path d="M201.3866 185.5362
L201.4580 185.4648
" />
<path d="M201.4580 185.4648
L201.6009 185.3933
" />
<path d="M201.6009 185.3933
L201.8866 185.3933
" />
<path d="M201.8866 185.3933
L202.0295 185.4648
" />
<path d="M202.3866 186.5362
L203.5295 186.5362
" />
<path d="M203.8866 185.3933
L203.8866 186.8933
" />
<path d="M203.8866 185.4648
L204.0295 185.3933
" />
<path d="M204.0295 185.3933
L204.3152 185.3933
" />
<path d="M204.3152 185.3933
L204.4580 185.4648
" />
<path d="M204.4580 185.4648
L204.5295 185.5362
" />
<path d="M204.5295 185.5362
L204.6009 185.6790
" />
<path d="M204.6009 185.6790
L204.6009 186.1076
" />
<path d="M204.6009 186.1076
L204.5295 186.2505
" />
<path d="M204.5295 186.2505
L204.4580 186.3219
" />
<path d="M204.4580 186.3219
L204.3152 186.3933
" />
<path d="M204.3152 186.3933
L204.0295 186.3933
" />
<path d="M204.0295 186.3933
L203.8866 186.3219
" />
<path d="M205.8866 186.3219
L205.7437 186.3933
" />
<path d="M205.7437 186.3933
L205.4580 186.3933
" />
<path d="M205.4580 186.3933
L205.3152 186.3219
" />
<path d="M205.3152 186.3219
L205.2437 186.2505
" />
<path d="M205.2437 186.2505
L205.1723 186.1076
" />
<path d="M205.1723 186.1076
L205.1723 185.6790
" />
<path d="M205.1723 185.6790
L205.2437 185.5362
" />
<path d="M205.2437 185.5362
L205.3152 185.4648
" />
<path d="M205.3152 185.4648
L205.4580 185.3933
" />
<path d="M205.4580 185.3933
L205.7437 185.3933
" />
<path d="M205.7437 185.3933
L205.8866 185.4648
" />
<path d="M206.5295 186.3933
L206.5295 184.8933
" />
<path d="M206.5295 185.4648
L206.6723 185.3933
" />
<path d="M206.6723 185.3933
L206.9580 185.3933
" />
<path d="M206.9580 185.3933
L207.1009 185.4648
" />
<path d="M207.1009 185.4648
L207.1723 185.5362
" />
<path d="M207.1723 185.5362
L207.2437 185.6790
" />
<path d="M207.2437 185.6790
L207.2437 186.1076
" />
<path d="M207.2437 186.1076
L207.1723 186.2505
" />
<path d="M207.1723 186.2505
L207.1009 186.3219
" />
<path d="M207.1009 186.3219
L206.9580 186.3933
" />
<path d="M206.9580 186.3933
L206.6723 186.3933
" />
<path d="M206.6723 186.3933
L206.5295 186.3219
" />
</g></g>
<g style="fill:#000000; fill-opacity:0.0; 
stroke:#000000; stroke-width:0.0212; stroke-opacity:1; 
stroke-linecap:round; stroke-linejoin:round;">
</g>
<g style="fill:#000000; fill-opacity:0.0; 
stroke:#000000; stroke-width:0.1500; stroke-opacity:1; 
stroke-linecap:round; stroke-linejoin:round;">
<path d="M177.0022 181.5072
L285.0022 181.5072
" />
</g>
<g style="fill:#000000; fill-opacity:0.0; 
stroke:#000000; stroke-width:0.0212; stroke-opacity:1; 
stroke-linecap:round; stroke-linejoin:round;">
</g>
<g style="fill:#000000; fill-opacity:0.0; 
stroke:#000000; stroke-width:0.1500; stroke-opacity:1; 
stroke-linecap:round; stroke-linejoin:round;">
<text x="178.0022" y="183.7572"
textLength="8.1464" font-size="2.0000" lengthAdjust="spacingAndGlyphs"
text-anchor="start" opacity="0">Sheet: </text>
<g class="stroked-text"><desc>Sheet: </desc>
<path d="M178.3866 183.6219
L178.6009 183.6933
" />
<path d="M178.6009 183.6933
L178.9580 183.6933
" />
<path d="M178.9580 183.6933
L179.1009 183.6219
" />
<path d="M179.1009 183.6219
L179.1723 183.5505
" />
<path d="M179.1723 183.5505
L179.2437 183.4076
" />
<path d="M179.2437 183.4076
L179.2437 183.2648
" />
<path d="M179.2437 183.2648
L179.1723 183.1219
" />
<path d="M179.1723 183.1219
L179.1009 183.0505
" />
<path d="M179.1009 183.0505
L178.9580 182.9790
" />
<path d="M178.9580 182.9790
L178.6723 182.9076
" />
<path d="M178.6723 182.9076
L178.5295 182.8362
" />
<path d="M178.5295 182.8362
L178.4580 182.7648
" />
<path d="M178.4580 182.7648
L178.3866 182.6219
" />
<path d="M178.3866 182.6219
L178.3866 182.4790
" />
<path d="M178.3866 182.4790
L178.4580 182.3362
" />
<path d="M178.4580 182.3362
L178.5295 182.2648
" />
<path d="M178.5295 182.2648
L178.6723 182.1933
" />
<path d="M178.6723 182.1933
L179.0295 182.1933
" />
<path d="M179.0295 182.1933
L179.2437 182.2648
" />
<path d="M179.8866 183.6933
L179.8866 182.1933
" />
<path d="M180.5295 183.6933
L180.5295 182.9076
" />
<path d="M180.5295 182.9076
L180.4580 182.7648
" />
<path d="M180.4580 182.7648
L180.3152 182.6933
" />
<path d="M180.3152 182.6933
L180.1009 182.6933
" />
<path d="M180.1009 182.6933
L179.9580 182.7648
" />
<path d="M179.9580 182.7648
L179.8866 182.8362
" />
<path d="M181.8152 183.6219
L181.6723 183.6933
" />
<path d="M181.6723 183.6933
L181.3866 183.6933
" />
<path d="M181.3866 183.6933
L181.2437 183.6219
" />
<path d="M181.2437 183.6219
L181.1723 183.4790
" />
<path d="M181.1723 183.4790
L181.1723 182.9076
" />
<path d="M181.1723 182.9076
L181.2437 182.7648
" />
<path d="M181.2437 182.7648
L181.3866 182.6933
" />
<path d="M181.3866 182.6933
L181.6723 182.6933
" />
<path d="M181.6723 182.6933
L181.8152 182.7648
" />
<path d="M181.8152 182.7648
L181.8866 182.9076
" />
<path d="M181.8866 182.9076
L181.8866 183.0505
" />
<path d="M181.8866 183.0505
L181.1723 183.1933
" />
<path d="M183.1009 183.6219
L182.9580 183.6933
" />
<path d="M182.9580 183.6933
L182.6723 183.6933
" />
<path d="M182.6723 183.6933
L182.5295 183.6219
" />
<path d="M182.5295 183.6219
L182.4580 183.4790
" />
<path d="M182.4580 183.4790
L182.4580 182.9076
" />
<path d="M182.4580 182.9076
L182.5295 182.7648
" />
<path d="M182.5295 182.7648
L182.6723 182.6933
" />
<path d="M182.6723 182.6933
L182.9580 182.6933
" />
<path d="M182.9580 182.6933
L183.1009 182.7648
" />
<path d="M183.1009 182.7648
L183.1723 182.9076
" />
<path d="M183.1723 182.9076
L183.1723 183.0505
" />
<path d="M183.1723 183.0505
L182.4580 183.1933
" />
<path d="M183.6009 182.6933
L184.1723 182.6933
" />
<path d="M183.8152 182.1933
L183.8152 183.4790
" />
<path d="M183.8152 183.4790
L183.8866 183.6219
" />
<path d="M183.8866 183.6219
L184.0295 183.6933
" />
<path d="M184.0295 183.6933
L184.1723 183.6933
" />
<path d="M184.6723 183.5505
L184.7437 183.6219
" />
<path d="M184.7437 183.6219
L184.6723 183.6933
" />
<path d="M184.6723 183.6933
L184.6009 183.6219
" />
<path d="M184.6009 183.6219
L184.6723 183.5505
" />
<path d="M184.6723 183.5505
L184.6723 183.6933
" />
<path d="M184.6723 182.7648
L184.7437 182.8362
" />
<path d="M184.7437 182.8362
L184.6723 182.9076
" />
<path d="M184.6723 182.9076
L184.6009 182.8362
" />
<path d="M184.6009 182.8362
L184.6723 182.7648
" />
<path d="M184.6723 182.7648
L184.6723 182.9076
" />
</g></g>
<g style="fill:#000000; fill-opacity:0.0; 
stroke:#000000; stroke-width:0.0212; stroke-opacity:1; 
stroke-linecap:round; stroke-linejoin:round;">
</g>
<g style="fill:#000000; fill-opacity:0.0; 
stroke:#000000; stroke-width:0.3000; stroke-opacity:1; 
stroke-linecap:round; stroke-linejoin:round;">
<text x="178.0022" y="180.7572"
textLength="0.7500" font-size="2.0000" lengthAdjust="spacingAndGlyphs"
text-anchor="start" opacity="0"></text>
<g class="stroked-text"><desc></desc>
</g></g>
<g style="fill:#000000; fill-opacity:0.0; 
stroke:#000000; stroke-width:0.0212; stroke-opacity:1; 
stroke-linecap:round; stroke-linejoin:round;">
</g>
<g style="fill:#000000; fill-opacity:0.0; 
stroke:#000000; stroke-width:0.1500; stroke-opacity:1; 
stroke-linecap:round; stroke-linejoin:round;">
<text x="178.0022" y="177.7572"
textLength="0.3750" font-size="2.0000" lengthAdjust="spacingAndGlyphs"
text-anchor="start" opacity="0"></text>
<g class="stroked-text"><desc></desc>
</g></g>
<g style="fill:#000000; fill-opacity:0.0; 
stroke:#000000; stroke-width:0.0212; stroke-opacity:1; 
stroke-linecap:round; stroke-linejoin:round;">
</g>
<g style="fill:#000000; fill-opacity:0.0; 
stroke:#000000; stroke-width:0.1500; stroke-opacity:1; 
stroke-linecap:round; stroke-linejoin:round;">
<text x="178.0022" y="174.7572"
textLength="0.3750" font-size="2.0000" lengthAdjust="spacingAndGlyphs"
text-anchor="start" opacity="0"></text>
<g class="stroked-text"><desc></desc>
</g></g>
<g style="fill:#000000; fill-opacity:0.0; 
stroke:#000000; stroke-width:0.0212; stroke-opacity:1; 
stroke-linecap:round; stroke-linejoin:round;">
</g>
<g style="fill:#000000; fill-opacity:0.0; 
stroke:#000000; stroke-width:0.1500; stroke-opacity:1; 
stroke-linecap:round; stroke-linejoin:round;">
<text x="178.0022" y="171.7572"
textLength="0.3750" font-size="2.0000" lengthAdjust="spacingAndGlyphs"
text-anchor="start" opacity="0"></text>
<g class="stroked-text"><desc></desc>
</g></g>
<g style="fill:#000000; fill-opacity:0.0; 
stroke:#000000; stroke-width:0.0212; stroke-opacity:1; 
stroke-linecap:round; stroke-linejoin:round;">
</g>
<g style="fill:#000000; fill-opacity:0.0; 
stroke:#000000; stroke-width:0.1500; stroke-opacity:1; 
stroke-linecap:round; stroke-linejoin:round;">
<text x="178.0022" y="168.7572"
textLength="0.3750" font-size="2.0000" lengthAdjust="spacingAndGlyphs"
text-anchor="start" opacity="0"></text>
<g class="stroked-text"><desc></desc>
</g></g>
<g style="fill:#000000; fill-opacity:0.0; 
stroke:#000000; stroke-width:0.0212; stroke-opacity:1; 
stroke-linecap:round; stroke-linejoin:round;">
</g>
<g style="fill:#000000; fill-opacity:0.0; 
stroke:#000000; stroke-width:0.1500; stroke-opacity:1; 
stroke-linecap:round; stroke-linejoin:round;">
<path d="M197.0022 191.5072
L197.0022 194.5072
" />
</g>
<g style="fill:#000000; fill-opacity:0.0; 
stroke:#000000; stroke-width:0.0212; stroke-opacity:1; 
stroke-linecap:round; stroke-linejoin:round;">
</g>
<g style="fill:#000000; fill-opacity:0.0; 
stroke:#000000; stroke-width:0.1500; stroke-opacity:1; 
stroke-linecap:round; stroke-linejoin:round;">
<path d="M261.0022 191.5072
L261.0022 198.0072
" />
</g>
<g style="fill:#D0D2CD; fill-opacity:0.0; 
stroke:#D0D2CD; stroke-width:0.1500; stroke-opacity:1; 
stroke-linecap:round; stroke-linejoin:round;">
</g>
<g style="fill:#D0D2CD; fill-opacity:0.0; 
stroke:#D0D2CD; stroke-width:0.1000; stroke-opacity:1; 
stroke-linecap:round; stroke-linejoin:round;">
<path style="fill:#D0D2CD; fill-opacity:0.0; 
stroke:#D0D2CD; stroke-width:0.1000; stroke-opacity:1; 
stroke-linecap:round; stroke-linejoin:round;fill:none"
d="M 159.3065,28.4596
159.3731,28.4647
159.4388,28.4731
159.5034,28.4846
159.5669,28.4993
159.6292,28.5169
159.6901,28.5376
159.7497,28.5611
159.8079,28.5873
159.8645,28.6163
159.9194,28.6479
159.9727,28.6821
160.0241,28.7187
160.0737,28.7576
160.1213,28.7989
160.1669,28.8423
160.2103,28.8879
160.2516,28.9355
160.2905,28.9851
160.3271,29.0365
160.3613,29.0898
160.3929,29.1447
160.4218,29.2013
160.4481,29.2595
160.4716,29.3190
160.4923,29.3800
160.5099,29.4423
160.5246,29.5058
160.5361,29.5704
160.5445,29.6361
160.5496,29.7027
160.5513,29.7703
160.5496,29.8378
160.5445,29.9044
160.5361,29.9701
160.5246,30.0347
160.5099,30.0982
160.4923,30.1605
160.4716,30.2215
160.4481,30.2811
160.4218,30.3392
160.3929,30.3958
160.3613,30.4508
160.3271,30.5040
160.2905,30.5555
160.2516,30.6050
160.2103,30.6527
160.1669,30.6982
160.1213,30.7417
160.0737,30.7829
160.0241,30.8219
159.9727,30.8585
159.9194,30.8926
159.8645,30.9242
159.8079,30.9532
159.7497,30.9795
159.6901,31.0030
159.6292,31.0236
159.5669,31.0413
159.5034,31.0559
159.4388,31.0675
159.3731,31.0758
159.3065,31.0809
159.2389,31.0826
159.1714,31.0809
159.1047,31.0758
159.0391,31.0675
158.9744,31.0559
158.9110,31.0413
158.8487,31.0236
158.7877,31.0030
158.7281,30.9795
158.6700,30.9532
158.6134,30.9242
158.5584,30.8926
158.5052,30.8585
158.4537,30.8219
158.4042,30.7829
158.3566,30.7417
158.3110,30.6982
158.2675,30.6527
158.2263,30.6050
158.1873,30.5555
158.1507,30.5040
158.1166,30.4508
158.0850,30.3958
158.0560,30.3392
158.0297,30.2811
158.0062,30.2215
157.9856,30.1605
157.9679,30.0982
157.9533,30.0347
157.9417,29.9701
157.9334,29.9044
157.9283,29.8378
157.9266,29.7703
157.9283,29.7027
157.9334,29.6361
157.9417,29.5704
157.9533,29.5058
157.9679,29.4423
157.9856,29.3800
158.0062,29.3190
158.0297,29.2595
158.0560,29.2013
158.0850,29.1447
158.1166,29.0898
158.1507,29.0365
158.1873,28.9851
158.2263,28.9355
158.2675,28.8879
158.3110,28.8423
158.3566,28.7989
158.4042,28.7576
158.4537,28.7187
158.5052,28.6821
158.5584,28.6479
158.6134,28.6163
158.6700,28.5873
158.7281,28.5611
158.7877,28.5376
158.8487,28.5169
158.9110,28.4993
158.9744,28.4846
159.0391,28.4731
159.1047,28.4647
159.1714,28.4596
159.2389,28.4579
Z" /> 
<path style="fill:#D0D2CD; fill-opacity:0.0; 
stroke:#D0D2CD; stroke-width:0.1000; stroke-opacity:1; 
stroke-linecap:round; stroke-linejoin:round;fill:none"
d="M 159.3065,114.7112
159.3731,114.7162
159.4388,114.7246
159.5034,114.7361
159.5669,114.7508
159.6292,114.7685
159.6901,114.7891
159.7497,114.8126
159.8079,114.8389
159.8645,114.8678
159.9194,114.8994
159.9727,114.9336
160.0241,114.9702
160.0737,115.0091
160.1213,115.0504
160.1669,115.0938
160.2103,115.1394
160.2516,115.1870
160.2905,115.2366
160.3271,115.2881
160.3613,115.3413
160.3929,115.3963
160.4218,115.4528
160.4481,115.5110
160.4716,115.5706
160.4923,115.6315
160.5099,115.6938
160.5246,115.7573
160.5361,115.8219
160.5445,115.8876
160.5496,115.9543
160.5513,116.0218
160.5496,116.0893
160.5445,116.1560
160.5361,116.2216
160.5246,116.2863
160.5099,116.3498
160.4923,116.4120
160.4716,116.4730
160.4481,116.5326
160.4218,116.5907
160.3929,116.6473
160.3613,116.7023
160.3271,116.7555
160.2905,116.8070
160.2516,116.8566
160.2103,116.9042
160.1669,116.9498
160.1213,116.9932
160.0737,117.0345
160.0241,117.0734
159.9727,117.1100
159.9194,117.1441
159.8645,117.1757
159.8079,117.2047
159.7497,117.2310
159.6901,117.2545
159.6292,117.2751
159.5669,117.2928
159.5034,117.3075
159.4388,117.3190
159.3731,117.3274
159.3065,117.3324
159.2389,117.3341
159.1714,117.3324
159.1047,117.3274
159.0391,117.3190
158.9744,117.3075
158.9110,117.2928
158.8487,117.2751
158.7877,117.2545
158.7281,117.2310
158.6700,117.2047
158.6134,117.1757
158.5584,117.1441
158.5052,117.1100
158.4537,117.0734
158.4042,117.0345
158.3566,116.9932
158.3110,116.9498
158.2675,116.9042
158.2263,116.8566
158.1873,116.8070
158.1507,116.7555
158.1166,116.7023
158.0850,116.6473
158.0560,116.5907
158.0297,116.5326
158.0062,116.4730
157.9856,116.4120
157.9679,116.3498
157.9533,116.2863
157.9417,116.2216
157.9334,116.1560
157.9283,116.0893
157.9266,116.0218
157.9283,115.9543
157.9334,115.8876
157.9417,115.8219
157.9533,115.7573
157.9679,115.6938
157.9856,115.6315
158.0062,115.5706
158.0297,115.5110
158.0560,115.4528
158.0850,115.3963
158.1166,115.3413
158.1507,115.2881
158.1873,115.2366
158.2263,115.1870
158.2675,115.1394
158.3110,115.0938
158.3566,115.0504
158.4042,115.0091
158.4537,114.9702
158.5052,114.9336
158.5584,114.8994
158.6134,114.8678
158.6700,114.8389
158.7281,114.8126
158.7877,114.7891
158.8487,114.7685
158.9110,114.7508
158.9744,114.7361
159.0391,114.7246
159.1047,114.7162
159.1714,114.7112
159.2389,114.7095
Z" /> 
<path style="fill:#D0D2CD; fill-opacity:0.0; 
stroke:#D0D2CD; stroke-width:0.1000; stroke-opacity:1; 
stroke-linecap:round; stroke-linejoin:round;fill:none"
d="M 91.8060,28.4596
91.8726,28.4647
91.9383,28.4731
92.0029,28.4846
92.0664,28.4993
92.1287,28.5169
92.1897,28.5376
92.2493,28.5611
92.3074,28.5873
92.3640,28.6163
92.4189,28.6479
92.4722,28.6821
92.5236,28.7187
92.5732,28.7576
92.6208,28.7989
92.6664,28.8423
92.7098,28.8879
92.7511,28.9355
92.7901,28.9851
92.8266,29.0365
92.8608,29.0898
92.8924,29.1447
92.9214,29.2013
92.9476,29.2595
92.9711,29.3190
92.9918,29.3800
93.0095,29.4423
93.0241,29.5058
93.0356,29.5704
93.0440,29.6361
93.0491,29.7027
93.0508,29.7703
93.0491,29.8378
93.0440,29.9044
93.0356,29.9701
93.0241,30.0347
93.0095,30.0982
92.9918,30.1605
92.9711,30.2215
92.9476,30.2811
92.9214,30.3392
92.8924,30.3958
92.8608,30.4508
92.8266,30.5040
92.7901,30.5555
92.7511,30.6050
92.7098,30.6527
92.6664,30.6982
92.6208,30.7417
92.5732,30.7829
92.5236,30.8219
92.4722,30.8585
92.4189,30.8926
92.3640,30.9242
92.3074,30.9532
92.2493,30.9795
92.1897,31.0030
92.1287,31.0236
92.0664,31.0413
92.0029,31.0559
91.9383,31.0675
91.8726,31.0758
91.8060,31.0809
91.7384,31.0826
91.6709,31.0809
91.6043,31.0758
91.5386,31.0675
91.4740,31.0559
91.4105,31.0413
91.3482,31.0236
91.2872,31.0030
91.2276,30.9795
91.1695,30.9532
91.1129,30.9242
91.0579,30.8926
91.0047,30.8585
90.9532,30.8219
90.9037,30.7829
90.8561,30.7417
90.8105,30.6982
90.7670,30.6527
90.7258,30.6050
90.6868,30.5555
90.6502,30.5040
90.6161,30.4508
90.5845,30.3958
90.5555,30.3392
90.5292,30.2811
90.5057,30.2215
90.4851,30.1605
90.4674,30.0982
90.4528,30.0347
90.4412,29.9701
90.4329,29.9044
90.4278,29.8378
90.4261,29.7703
90.4278,29.7027
90.4329,29.6361
90.4412,29.5704
90.4528,29.5058
90.4674,29.4423
90.4851,29.3800
90.5057,29.3190
90.5292,29.2595
90.5555,29.2013
90.5845,29.1447
90.6161,29.0898
90.6502,29.0365
90.6868,28.9851
90.7258,28.9355
90.7670,28.8879
90.8105,28.8423
90.8561,28.7989
90.9037,28.7576
90.9532,28.7187
91.0047,28.6821
91.0579,28.6479
91.1129,28.6163
91.1695,28.5873
91.2276,28.5611
91.2872,28.5376
91.3482,28.5169
91.4105,28.4993
91.4740,28.4846
91.5386,28.4731
91.6043,28.4647
91.6709,28.4596
91.7384,28.4579
Z" /> 
<path style="fill:#D0D2CD; fill-opacity:0.0; 
stroke:#D0D2CD; stroke-width:0.1000; stroke-opacity:1; 
stroke-linecap:round; stroke-linejoin:round;fill:none"
d="M 160.1447,26.0250
160.2970,26.0366
160.4471,26.0557
160.5948,26.0821
160.7399,26.1156
160.8823,26.1561
161.0217,26.2033
161.1579,26.2570
161.2908,26.3171
161.4202,26.3834
161.5458,26.4557
161.6676,26.5337
161.7852,26.6174
161.8986,26.7065
162.0074,26.8008
162.1117,26.9002
162.2110,27.0044
162.3053,27.1133
162.3944,27.2267
162.4781,27.3443
162.5562,27.4660
162.6284,27.5917
162.6947,27.7210
162.7548,27.8539
162.8086,27.9902
162.8558,28.1296
162.8962,28.2719
162.9297,28.4170
162.9561,28.5648
162.9752,28.7149
162.9868,28.8672
162.9907,29.0215
162.9907,116.7706
162.9866,116.9249
162.9748,117.0772
162.9555,117.2273
162.9290,117.3750
162.8953,117.5201
162.8548,117.6625
162.8075,117.8019
162.7537,117.9381
162.6935,118.0710
162.6272,118.2004
162.5549,118.3260
162.4768,118.4478
162.3931,118.5654
162.3040,118.6788
162.2097,118.7876
162.1103,118.8919
162.0061,118.9912
161.8972,119.0855
161.7839,119.1746
161.6662,119.2583
161.5445,119.3364
161.4188,119.4086
161.2894,119.4749
161.1564,119.5350
161.0201,119.5888
160.8806,119.6360
160.7382,119.6764
160.5929,119.7099
160.4451,119.7363
160.2948,119.7554
160.1423,119.7670
159.9877,119.7709
90.9897,119.7709
90.8353,119.7670
90.6830,119.7554
90.5329,119.7363
90.3852,119.7099
90.2401,119.6764
90.0977,119.6360
89.9583,119.5888
89.8221,119.5350
89.6892,119.4749
89.5599,119.4086
89.4342,119.3364
89.3125,119.2583
89.1948,119.1746
89.0815,119.0855
88.9726,118.9912
88.8684,118.8919
88.7690,118.7876
88.6747,118.6788
88.5856,118.5654
88.5019,118.4478
88.4238,118.3260
88.3516,118.2004
88.2853,118.0710
88.2252,117.9381
88.1714,117.8019
88.1242,117.6625
88.0838,117.5201
88.0503,117.3750
88.0239,117.2273
88.0048,117.0772
87.9932,116.9249
87.9893,116.7706
87.9893,29.0215
87.9932,28.8672
88.0048,28.7149
88.0239,28.5648
88.0503,28.4170
88.0838,28.2719
88.1242,28.1296
88.1714,27.9902
88.2252,27.8539
88.2853,27.7210
88.3516,27.5917
88.4238,27.4660
88.5019,27.3443
88.5856,27.2267
88.6747,27.1133
88.7690,27.0044
88.8684,26.9002
88.9726,26.8008
89.0815,26.7065
89.1948,26.6174
89.3125,26.5337
89.4342,26.4557
89.5599,26.3834
89.6892,26.3171
89.8221,26.2570
89.9583,26.2033
90.0977,26.1561
90.2401,26.1156
90.3852,26.0821
90.5329,26.0557
90.6830,26.0366
90.8353,26.0250
90.9897,26.0211
159.9904,26.0211
Z" /> 
<path style="fill:#D0D2CD; fill-opacity:0.0; 
stroke:#D0D2CD; stroke-width:0.1000; stroke-opacity:1; 
stroke-linecap:round; stroke-linejoin:round;fill:none"
d="M 91.8060,114.7112
91.8726,114.7162
91.9383,114.7246
92.0029,114.7361
92.0664,114.7508
92.1287,114.7685
92.1897,114.7891
92.2493,114.8126
92.3074,114.8389
92.3640,114.8678
92.4189,114.8994
92.4722,114.9336
92.5236,114.9702
92.5732,115.0091
92.6208,115.0504
92.6664,115.0938
92.7098,115.1394
92.7511,115.1870
92.7901,115.2366
92.8266,115.2881
92.8608,115.3413
92.8924,115.3963
92.9214,115.4528
92.9476,115.5110
92.9711,115.5706
92.9918,115.6315
93.0095,115.6938
93.0241,115.7573
93.0356,115.8219
93.0440,115.8876
93.0491,115.9543
93.0508,116.0218
93.0491,116.0893
93.0440,116.1560
93.0356,116.2216
93.0241,116.2863
93.0095,116.3498
92.9918,116.4120
92.9711,116.4730
92.9476,116.5326
92.9214,116.5907
92.8924,116.6473
92.8608,116.7023
92.8266,116.7555
92.7901,116.8070
92.7511,116.8566
92.7098,116.9042
92.6664,116.9498
92.6208,116.9932
92.5732,117.0345
92.5236,117.0734
92.4722,117.1100
92.4189,117.1441
92.3640,117.1757
92.3074,117.2047
92.2493,117.2310
92.1897,117.2545
92.1287,117.2751
92.0664,117.2928
92.0029,117.3075
91.9383,117.3190
91.8726,117.3274
91.8060,117.3324
91.7384,117.3341
91.6709,117.3324
91.6043,117.3274
91.5386,117.3190
91.4740,117.3075
91.4105,117.2928
91.3482,117.2751
91.2872,117.2545
91.2276,117.2310
91.1695,117.2047
91.1129,117.1757
91.0579,117.1441
91.0047,117.1100
90.9532,117.0734
90.9037,117.0345
90.8561,116.9932
90.8105,116.9498
90.7670,116.9042
90.7258,116.8566
90.6868,116.8070
90.6502,116.7555
90.6161,116.7023
90.5845,116.6473
90.5555,116.5907
90.5292,116.5326
90.5057,116.4730
90.4851,116.4120
90.4674,116.3498
90.4528,116.2863
90.4412,116.2216
90.4329,116.1560
90.4278,116.0893
90.4261,116.0218
90.4278,115.9543
90.4329,115.8876
90.4412,115.8219
90.4528,115.7573
90.4674,115.6938
90.4851,115.6315
90.5057,115.5706
90.5292,115.5110
90.5555,115.4528
90.5845,115.3963
90.6161,115.3413
90.6502,115.2881
90.6868,115.2366
90.7258,115.1870
90.7670,115.1394
90.8105,115.0938
90.8561,115.0504
90.9037,115.0091
90.9532,114.9702
91.0047,114.9336
91.0579,114.8994
91.1129,114.8678
91.1695,114.8389
91.2276,114.8126
91.2872,114.7891
91.3482,114.7685
91.4105,114.7508
91.4740,114.7361
91.5386,114.7246
91.6043,114.7162
91.6709,114.7112
91.7384,114.7095
Z" /> 
<g >
</g>
<g >
</g>
<g >
</g>
<g >
</g>
<g >
</g>
<g >
</g>
</g> 
</svg>
